<svg xmlns="http://www.w3.org/2000/svg" viewBox="0 0 1876.75 5489.16"><defs><style>.cls-1{fill:#2c1a00;}.cls-2,.cls-7,.cls-8{fill:none;stroke-width:2px;}.cls-2,.cls-8,.cls-9{stroke:#65c8d0;}.cls-2{stroke-linecap:round;}.cls-2,.cls-7,.cls-8,.cls-9{stroke-miterlimit:10;}.cls-3{font-size:40px;fill:#f2f2f2;}.cls-11,.cls-13,.cls-14,.cls-3,.cls-9{font-family:STYuanti-SC-Light, Yuanti SC;}.cls-4,.cls-6{fill:#212121;}.cls-5,.cls-9{fill:#7ed1d2;}.cls-10,.cls-12,.cls-5{opacity:0.3;}.cls-6{opacity:0.8;}.cls-7{stroke:#7ed1d2;}.cls-11,.cls-13,.cls-9{font-size:60px;}.cls-10{fill:#fff781;}.cls-11{fill:#d6c416;}.cls-12{fill:#c6223a;}.cls-13{fill:#d31841;}.cls-14{font-size:50px;fill:#fff;}</style></defs><title>INFO</title><g id="Layer_2" data-name="Layer 2"><g id="Layer_1-2" data-name="Layer 1"><rect class="cls-1" width="1876.75" height="5489.16"/><circle class="cls-2" cx="639.9" cy="5064.72" r="8.28"/><circle class="cls-2" cx="686.78" cy="5037.09" r="6.88"/><circle class="cls-2" cx="642.17" cy="5020.05" r="6.88"/><circle class="cls-2" cx="759.96" cy="5020.05" r="11.64"/><circle class="cls-2" cx="725.13" cy="5067.54" r="11.64"/><circle class="cls-2" cx="707.22" cy="5056.44" r="3.79"/><circle class="cls-2" cx="662.89" cy="5033.3" r="3.79"/><circle class="cls-2" cx="801.76" cy="5027.63" r="3.79"/><circle class="cls-2" cx="621.97" cy="5054.03" r="3.79"/><circle class="cls-2" cx="763.27" cy="5070.27" r="3.79"/><circle class="cls-2" cx="620.78" cy="5023.84" r="3.79"/><circle class="cls-2" cx="1023.26" cy="5045.39" r="6.88"/><circle class="cls-2" cx="860.18" cy="5063.35" r="6.88"/><circle class="cls-2" cx="990.54" cy="5045.39" r="13.55"/><circle class="cls-2" cx="843.17" cy="4981.3" r="3.79"/><circle class="cls-2" cx="1020.17" cy="5071.33" r="3.79"/><circle class="cls-2" cx="771.6" cy="4954.02" r="3.79"/><circle class="cls-2" cx="932.23" cy="4951.77" r="8.28" transform="translate(-792.79 217.49) rotate(-9.36)"/><circle class="cls-2" cx="834.16" cy="5046.63" r="6.88" transform="translate(-809.52 202.81) rotate(-9.36)"/><circle class="cls-2" cx="933.33" cy="4984.71" r="6.88" transform="translate(-798.14 218.11) rotate(-9.36)"/><circle class="cls-2" cx="819.05" cy="5004.77" r="6.88" transform="translate(-802.92 199.79) rotate(-9.36)"/><circle class="cls-2" cx="967.12" cy="4993.54" r="6.88" transform="translate(-799.12 223.72) rotate(-9.36)"/><circle class="cls-2" cx="891.71" cy="5044.83" r="6.88" transform="translate(-808.46 212.14) rotate(-9.36)"/><circle class="cls-2" cx="768.97" cy="4993.59" r="6.88" transform="translate(-801.77 191.5) rotate(-9.36)"/><circle class="cls-2" cx="795.82" cy="4947.14" r="6.88" transform="translate(-793.85 195.25) rotate(-9.36)"/><circle class="cls-2" cx="797.44" cy="5056.52" r="10.32" transform="translate(-811.62 196.97) rotate(-9.36)"/><circle class="cls-2" cx="949.03" cy="5043.97" r="11.64" transform="translate(-807.56 221.45) rotate(-9.36)"/><circle class="cls-2" cx="913.05" cy="5063.35" r="11.64" transform="translate(-811.19 215.86) rotate(-9.36)"/><circle class="cls-2" cx="876.74" cy="4953.95" r="11.64" transform="translate(-793.89 208.5) rotate(-9.36)"/><circle class="cls-2" cx="813.73" cy="4972.48" r="13.55" transform="translate(-797.74 198.5) rotate(-9.36)"/><circle class="cls-2" cx="829.86" cy="5070.27" r="7.68" transform="translate(-813.43 202.42) rotate(-9.36)"/><circle class="cls-2" cx="900.44" cy="5004.53" r="15.87" transform="translate(-801.8 213.03) rotate(-9.36)"/><circle class="cls-2" cx="862.44" cy="5042.68" r="3.79" transform="translate(-808.51 207.35) rotate(-9.36)"/><circle class="cls-2" cx="864.02" cy="4998.07" r="3.79" transform="translate(-801.23 207.02) rotate(-9.36)"/><circle class="cls-2" cx="905.55" cy="4942.23" r="3.79" transform="translate(-791.6 213.03) rotate(-9.36)"/><circle class="cls-2" cx="691.07" cy="5068.84" r="3.79" transform="translate(-815.04 179.84) rotate(-9.36)"/><circle class="cls-2" cx="951.35" cy="5016.86" r="3.79" transform="translate(-803.12 221.47) rotate(-9.36)"/><circle class="cls-2" cx="874.29" cy="5029.51" r="3.79" transform="translate(-806.2 209.11) rotate(-9.36)"/><circle class="cls-2" cx="884.18" cy="5072.63" r="3.79" transform="matrix(0.99, -0.16, 0.16, 0.99, -813.09, 211.29)"/><circle class="cls-2" cx="966.97" cy="4969.35" r="3.79" transform="translate(-795.19 223.38) rotate(-9.36)"/><circle class="cls-2" cx="960.69" cy="5065.24" r="3.79" transform="translate(-810.87 223.63) rotate(-9.36)"/><circle class="cls-2" cx="792.95" cy="5005.94" r="3.79" transform="translate(-803.46 195.57) rotate(-9.36)"/><circle class="cls-2" cx="913.05" cy="4964.46" r="3.79" transform="translate(-795.11 214.54) rotate(-9.36)"/><circle class="cls-2" cx="863.97" cy="4974.46" r="3.79" transform="translate(-797.39 206.7) rotate(-9.36)"/><circle class="cls-2" cx="917.29" cy="5036.77" r="3.79" transform="translate(-806.81 216.19) rotate(-9.36)"/><circle class="cls-2" cx="935.53" cy="5011.65" r="3.79" transform="translate(-802.49 218.83) rotate(-9.36)"/><circle class="cls-2" cx="845.97" cy="4951.69" r="3.79" transform="translate(-793.93 203.47) rotate(-9.36)"/><circle class="cls-2" cx="761.75" cy="4973.1" r="3.79" transform="translate(-798.53 190.06) rotate(-9.36)"/><circle class="cls-2" cx="1085.49" cy="5051.91" r="6.88" transform="translate(-4047.08 5649.25) rotate(-84.51)"/><circle class="cls-2" cx="723.19" cy="5035.95" r="6.88" transform="translate(-4358.83 5274.18) rotate(-84.51)"/><circle class="cls-2" cx="1047.47" cy="5052.07" r="10.32" transform="translate(-4081.62 5611.54) rotate(-84.51)"/><circle class="cls-2" cx="988.5" cy="4953.95" r="11.64" transform="translate(-4037.28 5464.11) rotate(-84.51)"/><circle class="cls-2" cx="995.42" cy="5008.81" r="13.55" transform="translate(-4085.63 5520.62) rotate(-84.51)"/><circle class="cls-2" cx="1046.67" cy="4958.58" r="15.87" transform="translate(-3989.28 5526.21) rotate(-84.51)"/><circle class="cls-2" cx="1017.83" cy="5024.57" r="3.79" transform="translate(-4081.06 5557.17) rotate(-84.51)"/><circle class="cls-2" cx="1077.56" cy="5067.91" r="3.79" transform="translate(-4070.18 5655.84) rotate(-84.51)"/><circle class="cls-2" cx="1045.12" cy="5076.43" r="3.79" transform="translate(-4107.99 5631.24) rotate(-84.51)"/><circle class="cls-2" cx="968.51" cy="5018.63" r="3.79" transform="matrix(0.1, -1, 1, 0.1, -4119.75, 5502.71)"/><circle class="cls-2" cx="743.21" cy="5054.03" r="3.79" transform="translate(-4358.74 5310.45) rotate(-84.51)"/><circle class="cls-2" cx="1023.83" cy="5001.74" r="3.79" transform="translate(-4052.9 5542.5) rotate(-84.51)"/><circle class="cls-2" cx="1081.36" cy="4969.35" r="3.79" transform="translate(-3968.63 5570.47) rotate(-84.51)"/><circle class="cls-2" cx="1012.27" cy="4975.12" r="3.79" transform="translate(-4036.86 5506.92) rotate(-84.51)"/><circle class="cls-2" cx="721.47" cy="5014.29" r="3.79" transform="translate(-4338.84 5252.87) rotate(-84.51)"/><circle class="cls-2" cx="666.52" cy="4948.56" r="6.88" transform="translate(-4323.1 5138.74) rotate(-84.51)"/><circle class="cls-2" cx="738.38" cy="4948.71" r="6.88" transform="translate(-4258.27 5210.4) rotate(-84.51)"/><circle class="cls-2" cx="844.42" cy="5023.84" r="6.88" transform="translate(-4237.15 5383.91) rotate(-84.51)"/><circle class="cls-2" cx="722.62" cy="4961.57" r="6.88" transform="translate(-4285.32 5206.34) rotate(-84.51)"/><circle class="cls-2" cx="1077.77" cy="5011.75" r="6.88" transform="translate(-4014.09 5605.25) rotate(-84.51)"/><circle class="cls-2" cx="628.5" cy="4948.71" r="10.32" transform="translate(-4357.64 5101.03) rotate(-84.51)"/><circle class="cls-2" cx="726.74" cy="4990.62" r="11.64" transform="translate(-4310.51 5236.72) rotate(-84.51)"/><circle class="cls-2" cx="1085.49" cy="4948.71" r="11.64" transform="translate(-3944.36 5555.93) rotate(-84.51)"/><circle class="cls-2" cx="675.95" cy="4992.07" r="20.02" transform="translate(-4357.89 5187.48) rotate(-84.51)"/><circle class="cls-2" cx="694.87" cy="4951.99" r="3.79" transform="translate(-4300.88 5170.05) rotate(-84.51)"/><circle class="cls-2" cx="708.41" cy="5000.55" r="3.79" transform="translate(-4336.97 5227.46) rotate(-84.51)"/><circle class="cls-2" cx="1048.92" cy="5004.87" r="3.79" transform="translate(-4033.33 5570.31) rotate(-84.51)"/><circle class="cls-2" cx="635.08" cy="4988.15" r="3.79" transform="translate(-4390.94 5143.24) rotate(-84.51)"/><circle class="cls-2" cx="767.06" cy="5046.63" r="3.79" transform="translate(-4329.8 5327.51) rotate(-84.51)"/><circle class="cls-2" cx="1097.78" cy="5029.84" r="3.79" transform="matrix(0.1, -1, 1, 0.1, -4013.99, 5641.52)"/><circle class="cls-2" cx="620.78" cy="4973.14" r="3.79" transform="translate(-4388.94 5115.43) rotate(-84.51)"/><circle class="cls-2" cx="1076.04" cy="4990.09" r="3.79" transform="translate(-3994.09 5583.94) rotate(-84.51)"/><text class="cls-3" transform="translate(598.99 483.3)">室内</text><text class="cls-3" transform="translate(694.87 484.98)">18ug/m3</text><rect class="cls-4" x="611.63" y="604.98" width="675.61" height="149.5"/><circle class="cls-2" cx="680.95" cy="626.81" r="11.7"/><circle class="cls-2" cx="738.05" cy="626.81" r="11.7"/><circle class="cls-2" cx="635.23" cy="626.81" r="11.7"/><circle class="cls-2" cx="795.76" cy="638.52" r="11.7"/><circle class="cls-2" cx="1081.73" cy="634.71" r="11.7"/><circle class="cls-2" cx="650.55" cy="713.51" r="25.56"/><circle class="cls-2" cx="704.12" cy="722.35" r="21.24"/><circle class="cls-2" cx="1076.51" cy="724.76" r="21.24"/><circle class="cls-2" cx="880.52" cy="634.71" r="21.24"/><circle class="cls-2" cx="759.06" cy="682.32" r="35.93"/><circle class="cls-2" cx="843.4" cy="692.16" r="35.93"/><circle class="cls-2" cx="981.88" cy="676.73" r="61.79"/><circle class="cls-2" cx="684.57" cy="669.35" r="11.7"/><circle class="cls-2" cx="1076.51" cy="675.78" r="11.7"/><circle class="cls-2" cx="787.81" cy="733.04" r="11.7"/><circle class="cls-2" cx="887.3" cy="733.37" r="11.7"/><circle class="cls-2" cx="899" cy="699.04" r="11.7"/><rect class="cls-5" x="147.95" y="604.24" width="498.98" height="150.24"/><rect class="cls-6" x="646.93" y="604.24" width="498.98" height="150.24"/><line class="cls-7" x1="646.93" y1="507.15" x2="646.93" y2="753.92"/><rect class="cls-8" x="1131.65" y="604.98" width="117.35" height="149.5"/><text class="cls-9" transform="translate(1159.87 694.38)">优</text><rect class="cls-4" x="98.31" y="604.24" width="513.32" height="150.24"/><rect class="cls-8" x="611.63" y="604.61" width="498.98" height="150.24"/><text class="cls-3" transform="translate(739.87 1101.3)">室内</text><text class="cls-3" transform="translate(835.74 1102.97)">50ug/m3</text><rect class="cls-4" x="611.63" y="1222.98" width="675.61" height="149.5"/><circle class="cls-2" cx="680.95" cy="1244.81" r="11.7"/><circle class="cls-2" cx="738.05" cy="1244.81" r="11.7"/><circle class="cls-2" cx="635.23" cy="1244.81" r="11.7"/><circle class="cls-2" cx="795.76" cy="1256.51" r="11.7"/><circle class="cls-2" cx="1081.73" cy="1252.7" r="11.7"/><circle class="cls-2" cx="650.55" cy="1331.51" r="25.56"/><circle class="cls-2" cx="704.12" cy="1340.35" r="21.24"/><circle class="cls-2" cx="1076.51" cy="1342.76" r="21.24"/><circle class="cls-2" cx="880.52" cy="1252.7" r="21.24"/><circle class="cls-2" cx="759.06" cy="1300.32" r="35.93"/><circle class="cls-2" cx="843.4" cy="1310.16" r="35.93"/><circle class="cls-2" cx="981.88" cy="1294.73" r="61.79"/><circle class="cls-2" cx="684.57" cy="1287.35" r="11.7"/><circle class="cls-2" cx="1076.51" cy="1293.77" r="11.7"/><circle class="cls-2" cx="787.81" cy="1351.04" r="11.7"/><circle class="cls-2" cx="887.3" cy="1351.37" r="11.7"/><circle class="cls-2" cx="899" cy="1317.04" r="11.7"/><rect class="cls-10" x="288.83" y="1222.24" width="498.98" height="150.24"/><rect class="cls-6" x="787.81" y="1222.24" width="498.98" height="150.24"/><line class="cls-7" x1="787.81" y1="1125.15" x2="787.81" y2="1371.92"/><rect class="cls-8" x="1131.65" y="1222.98" width="117.35" height="149.5"/><text class="cls-11" transform="translate(1159.87 1312.38) scale(1.04 1)">良</text><rect class="cls-4" x="98.31" y="1222.24" width="513.32" height="150.24"/><rect class="cls-8" x="611.63" y="1222.61" width="498.98" height="150.24"/><text class="cls-3" transform="translate(1028.58 1679.96)">室内</text><text class="cls-3" transform="translate(1124.45 1681.63)">210ug/m3</text><rect class="cls-4" x="611.63" y="1801.64" width="675.61" height="149.5"/><circle class="cls-2" cx="680.95" cy="1823.47" r="11.7"/><circle class="cls-2" cx="738.05" cy="1823.47" r="11.7"/><circle class="cls-2" cx="635.23" cy="1823.47" r="11.7"/><circle class="cls-2" cx="795.76" cy="1835.17" r="11.7"/><circle class="cls-2" cx="1081.73" cy="1831.36" r="11.7"/><circle class="cls-2" cx="650.55" cy="1910.17" r="25.56"/><circle class="cls-2" cx="704.12" cy="1919.01" r="21.24"/><circle class="cls-2" cx="1076.51" cy="1921.42" r="21.24"/><circle class="cls-2" cx="880.52" cy="1831.36" r="21.24"/><circle class="cls-2" cx="759.06" cy="1878.98" r="35.93"/><circle class="cls-2" cx="843.4" cy="1888.82" r="35.93"/><circle class="cls-2" cx="981.88" cy="1873.39" r="61.79"/><circle class="cls-2" cx="684.57" cy="1866.01" r="11.7"/><circle class="cls-2" cx="1076.51" cy="1872.43" r="11.7"/><circle class="cls-2" cx="787.81" cy="1929.69" r="11.7"/><circle class="cls-2" cx="887.3" cy="1930.03" r="11.7"/><circle class="cls-2" cx="899" cy="1895.7" r="11.7"/><rect class="cls-12" x="577.54" y="1800.9" width="498.98" height="150.24"/><rect class="cls-6" x="1076.51" y="1800.9" width="498.98" height="150.24"/><line class="cls-7" x1="1076.51" y1="1703.81" x2="1076.51" y2="1950.58"/><rect class="cls-8" x="1131.65" y="1801.64" width="117.35" height="149.5"/><text class="cls-13" transform="translate(1159.87 1891.04) scale(1.04 1)">差</text><rect class="cls-4" x="98.31" y="1800.9" width="513.32" height="150.24"/><rect class="cls-8" x="611.63" y="1801.27" width="498.98" height="150.24"/><text class="cls-3" transform="translate(598.99 2578.18)">室内</text><text class="cls-3" transform="translate(694.87 2579.85)">18ug/m3</text><rect class="cls-4" x="611.63" y="5217.04" width="675.61" height="149.5"/><circle class="cls-2" cx="680.95" cy="4736.52" r="11.7"/><circle class="cls-2" cx="738.05" cy="4736.52" r="11.7"/><circle class="cls-2" cx="635.23" cy="4736.52" r="11.7"/><circle class="cls-2" cx="795.76" cy="4748.22" r="11.7"/><circle class="cls-2" cx="1081.73" cy="4744.41" r="11.7"/><circle class="cls-2" cx="650.55" cy="4823.22" r="25.56"/><circle class="cls-2" cx="704.12" cy="4832.06" r="21.24"/><circle class="cls-2" cx="1076.51" cy="4834.47" r="21.24"/><circle class="cls-2" cx="880.52" cy="4744.41" r="21.24"/><circle class="cls-2" cx="759.06" cy="4792.03" r="35.93"/><circle class="cls-2" cx="843.4" cy="4801.87" r="35.93"/><circle class="cls-2" cx="981.88" cy="4786.44" r="61.79"/><circle class="cls-2" cx="684.57" cy="4779.06" r="11.7"/><circle class="cls-2" cx="1076.51" cy="4785.48" r="11.7"/><circle class="cls-2" cx="787.81" cy="4842.75" r="11.7"/><circle class="cls-2" cx="887.3" cy="4843.08" r="11.7"/><circle class="cls-2" cx="899" cy="4808.75" r="11.7"/><rect class="cls-5" x="147.95" y="4353.17" width="498.98" height="150.24"/><rect class="cls-6" x="646.93" y="3980.46" width="498.98" height="150.24"/><line class="cls-7" x1="646.93" y1="3883.55" x2="646.93" y2="4130.32"/><rect class="cls-8" x="1131.65" y="3070.7" width="117.35" height="149.5"/><text class="cls-9" transform="translate(1159.87 2911.87)">优</text><rect class="cls-4" x="98.31" y="3501.71" width="513.32" height="150.24"/><rect class="cls-8" x="611.63" y="3070.33" width="498.98" height="150.24"/><text class="cls-14" transform="translate(98.31 2204.26) scale(1.04 1)">分层</text><text class="cls-14" transform="translate(98.31 154.46) scale(1.04 1)">状态</text><text class="cls-14" transform="translate(100.18 2425.05) scale(1.04 1)">L1 Moving &amp; data input</text><text class="cls-14" transform="translate(100.18 2735.33) scale(1.04 1)">L2 Static &amp; Colour changing &amp; Font Changing</text><text class="cls-14" transform="translate(100.18 3412.59) scale(1.04 1)">L4 Static</text><text class="cls-14" transform="translate(100.18 4797.04) scale(1.04 1)">L7 Static</text><text class="cls-14" transform="translate(100.18 5291.79) scale(1.04 1)">L8 Static</text><text class="cls-14" transform="translate(100.18 3741.07) scale(1.04 1)">L5 Moving</text><text class="cls-14" transform="translate(100.18 4233.75) scale(1.04 1)">L6 Moving &amp; Colour Changing</text><text class="cls-14" transform="translate(100.18 3145.44) scale(1.04 1)">L3 Static</text></g></g></svg>