<svg xmlns="http://www.w3.org/2000/svg" viewBox="0 0 486.59 145.14">
    <defs>
        <style>.cls-1{fill:none;stroke:#65c8d0;stroke-linecap:round;stroke-miterlimit:10;stroke-width:2px;}</style>
    </defs>
    <title>L7.2</title>
    <g id="Layer_2" data-name="Layer 2">
        <g id="Layer_1-2" data-name="Layer 1">
            <circle class="cls-1" cx="23.91" cy="128.64" r="8.28"/>
            <circle class="cls-1" cx="70.8" cy="101.01" r="6.88"/>
            <circle class="cls-1" cx="26.19" cy="83.98" r="6.88"/>
            <circle class="cls-1" cx="143.97" cy="83.98" r="11.64"/>
            <circle class="cls-1" cx="109.14" cy="131.46" r="11.64"/>
            <circle class="cls-1" cx="91.24" cy="120.37" r="3.79"/>
            <circle class="cls-1" cx="46.9" cy="97.22" r="3.79"/>
            <circle class="cls-1" cx="185.78" cy="91.56" r="3.79"/>
            <circle class="cls-1" cx="5.99" cy="117.96" r="3.79"/>
            <circle class="cls-1" cx="147.28" cy="134.2" r="3.79"/>
            <circle class="cls-1" cx="4.79" cy="87.77" r="3.79"/>
            <circle class="cls-1" cx="407.28" cy="109.31" r="6.88"/>
            <circle class="cls-1" cx="244.19" cy="127.28" r="6.88"/>
            <circle class="cls-1" cx="374.55" cy="109.31" r="13.55"/>
            <circle class="cls-1" cx="227.19" cy="45.23" r="3.79"/>
            <circle class="cls-1" cx="404.19" cy="135.25" r="3.79"/>
            <circle class="cls-1" cx="155.61" cy="17.94" r="3.79"/>
            <circle class="cls-1" cx="316.25" cy="15.7" r="8.28" transform="translate(1.66 51.63) rotate(-9.36)"/>
            <circle class="cls-1" cx="218.18" cy="110.56" r="6.88" transform="translate(-15.07 36.95) rotate(-9.36)"/>
            <circle class="cls-1" cx="317.34" cy="48.64" r="6.88" transform="translate(-3.69 52.25) rotate(-9.36)"/>
            <circle class="cls-1" cx="203.06" cy="68.69" r="6.88" transform="translate(-8.47 33.93) rotate(-9.36)"/>
            <circle class="cls-1" cx="351.13" cy="57.47" r="6.88" transform="translate(-4.67 57.86) rotate(-9.36)"/>
            <circle class="cls-1" cx="275.73" cy="108.76" r="6.88" transform="translate(-14.02 46.28) rotate(-9.36)"/>
            <circle class="cls-1" cx="152.99" cy="57.51" r="6.88" transform="translate(-7.32 25.64) rotate(-9.36)"/>
            <circle class="cls-1" cx="179.84" cy="11.06" r="6.88" transform="translate(0.59 29.39) rotate(-9.36)"/>
            <circle class="cls-1" cx="181.46" cy="120.45" r="10.32" transform="translate(-17.17 31.11) rotate(-9.36)"/>
            <circle class="cls-1" cx="333.04" cy="107.89" r="11.64" transform="translate(-13.11 55.59) rotate(-9.36)"/>
            <circle class="cls-1" cx="297.07" cy="127.28" r="11.64" transform="translate(-16.74 50) rotate(-9.36)"/>
            <circle class="cls-1" cx="260.75" cy="17.87" r="11.64" transform="translate(0.56 42.64) rotate(-9.36)"/>
            <circle class="cls-1" cx="197.74" cy="36.41" r="13.55" transform="translate(-3.29 32.64) rotate(-9.36)"/>
            <circle class="cls-1" cx="213.88" cy="134.2" r="7.68" transform="translate(-18.98 36.56) rotate(-9.36)"/>
            <circle class="cls-1" cx="284.46" cy="68.46" r="15.87" transform="translate(-7.35 47.17) rotate(-9.36)"/>
            <circle class="cls-1" cx="246.45" cy="106.61" r="3.79" transform="translate(-14.06 41.49) rotate(-9.36)"/>
            <circle class="cls-1" cx="248.03" cy="62" r="3.79" transform="translate(-6.78 41.16) rotate(-9.36)"/>
            <circle class="cls-1" cx="289.56" cy="6.15" r="3.79" transform="translate(2.85 47.17) rotate(-9.36)"/>
            <circle class="cls-1" cx="75.09" cy="132.77" r="3.79" transform="translate(-20.59 13.98) rotate(-9.36)"/>
            <circle class="cls-1" cx="335.37" cy="80.78" r="3.79" transform="translate(-8.67 55.61) rotate(-9.36)"/>
            <circle class="cls-1" cx="258.31" cy="93.43" r="3.79" transform="translate(-11.75 43.25) rotate(-9.36)"/>
            <circle class="cls-1" cx="268.2" cy="136.56" r="3.79"
                    transform="matrix(0.99, -0.16, 0.16, 0.99, -18.64, 45.43)"/>
            <circle class="cls-1" cx="350.99" cy="33.27" r="3.79" transform="translate(-0.74 57.52) rotate(-9.36)"/>
            <circle class="cls-1" cx="344.71" cy="129.17" r="3.79" transform="translate(-16.42 57.77) rotate(-9.36)"/>
            <circle class="cls-1" cx="176.97" cy="69.87" r="3.79" transform="translate(-9.01 29.71) rotate(-9.36)"/>
            <circle class="cls-1" cx="297.07" cy="28.39" r="3.79" transform="translate(-0.66 48.68) rotate(-9.36)"/>
            <circle class="cls-1" cx="247.98" cy="38.39" r="3.79" transform="translate(-2.94 40.84) rotate(-9.36)"/>
            <circle class="cls-1" cx="301.3" cy="100.7" r="3.79" transform="translate(-12.36 50.33) rotate(-9.36)"/>
            <circle class="cls-1" cx="319.54" cy="75.58" r="3.79" transform="translate(-8.04 52.97) rotate(-9.36)"/>
            <circle class="cls-1" cx="229.99" cy="15.62" r="3.79" transform="translate(0.52 37.61) rotate(-9.36)"/>
            <circle class="cls-1" cx="145.77" cy="37.02" r="3.79" transform="translate(-4.08 24.2) rotate(-9.36)"/>
            <circle class="cls-1" cx="469.51" cy="115.84" r="6.88" transform="translate(309.3 572.11) rotate(-84.51)"/>
            <circle class="cls-1" cx="107.21" cy="99.87" r="6.88" transform="translate(-2.46 197.04) rotate(-84.51)"/>
            <circle class="cls-1" cx="431.48" cy="115.99" r="10.32" transform="translate(274.75 534.4) rotate(-84.51)"/>
            <circle class="cls-1" cx="372.51" cy="17.87" r="11.64" transform="translate(319.09 386.97) rotate(-84.51)"/>
            <circle class="cls-1" cx="379.44" cy="72.73" r="13.55" transform="translate(270.75 443.48) rotate(-84.51)"/>
            <circle class="cls-1" cx="430.69" cy="22.51" r="15.87" transform="translate(367.09 449.07) rotate(-84.51)"/>
            <circle class="cls-1" cx="401.84" cy="88.5" r="3.79" transform="translate(275.32 480.03) rotate(-84.51)"/>
            <circle class="cls-1" cx="461.58" cy="131.84" r="3.79" transform="translate(286.2 578.69) rotate(-84.51)"/>
            <circle class="cls-1" cx="429.14" cy="140.35" r="3.79" transform="translate(248.39 554.1) rotate(-84.51)"/>
            <circle class="cls-1" cx="352.52" cy="82.56" r="3.79" transform="matrix(0.1, -1, 1, 0.1, 236.63, 425.57)"/>
            <circle class="cls-1" cx="127.22" cy="117.96" r="3.79" transform="translate(-2.36 233.31) rotate(-84.51)"/>
            <circle class="cls-1" cx="407.84" cy="65.66" r="3.79" transform="translate(303.48 465.36) rotate(-84.51)"/>
            <circle class="cls-1" cx="465.37" cy="33.27" r="3.79" transform="translate(387.74 493.33) rotate(-84.51)"/>
            <circle class="cls-1" cx="396.29" cy="39.04" r="3.79" transform="translate(319.52 429.78) rotate(-84.51)"/>
            <circle class="cls-1" cx="105.48" cy="78.21" r="3.79" transform="translate(17.54 175.73) rotate(-84.51)"/>
            <circle class="cls-1" cx="50.54" cy="12.48" r="6.88" transform="translate(33.28 61.6) rotate(-84.51)"/>
            <circle class="cls-1" cx="122.39" cy="12.64" r="6.88" transform="translate(98.1 133.26) rotate(-84.51)"/>
            <circle class="cls-1" cx="228.44" cy="87.77" r="6.88" transform="translate(119.22 306.77) rotate(-84.51)"/>
            <circle class="cls-1" cx="106.63" cy="25.49" r="6.88" transform="translate(71.06 129.2) rotate(-84.51)"/>
            <circle class="cls-1" cx="461.78" cy="75.68" r="6.88" transform="translate(342.29 528.11) rotate(-84.51)"/>
            <circle class="cls-1" cx="12.51" cy="12.64" r="10.32" transform="translate(-1.26 23.89) rotate(-84.51)"/>
            <circle class="cls-1" cx="110.75" cy="54.55" r="11.64" transform="translate(45.86 159.57) rotate(-84.51)"/>
            <circle class="cls-1" cx="469.51" cy="12.64" r="11.64" transform="translate(412.02 478.78) rotate(-84.51)"/>
            <circle class="cls-1" cx="59.97" cy="56" r="20.02" transform="translate(-1.51 110.34) rotate(-84.51)"/>
            <circle class="cls-1" cx="78.88" cy="15.91" r="3.79" transform="translate(55.5 92.91) rotate(-84.51)"/>
            <circle class="cls-1" cx="92.43" cy="64.48" r="3.79" transform="translate(19.4 150.32) rotate(-84.51)"/>
            <circle class="cls-1" cx="432.93" cy="68.8" r="3.79" transform="translate(323.04 493.17) rotate(-84.51)"/>
            <circle class="cls-1" cx="19.09" cy="52.07" r="3.79" transform="translate(-34.57 66.1) rotate(-84.51)"/>
            <circle class="cls-1" cx="151.08" cy="110.56" r="3.79" transform="translate(26.58 250.37) rotate(-84.51)"/>
            <circle class="cls-1" cx="481.8" cy="93.76" r="3.79" transform="matrix(0.1, -1, 1, 0.1, 342.38, 564.38)"/>
            <circle class="cls-1" cx="4.79" cy="37.06" r="3.79" transform="translate(-32.56 38.29) rotate(-84.51)"/>
            <circle class="cls-1" cx="460.06" cy="54.02" r="3.79" transform="translate(362.28 506.8) rotate(-84.51)"/>
        </g>
    </g>
</svg>