<svg xmlns="http://www.w3.org/2000/svg" viewBox="0 0 2430.26 4570.48">
    <defs>
        <style>
            .cls-1{fill:#2c1a00;}.cls-2{fill:#7ed1d2;}.cls-3{fill:#212121;}.cls-4{fill:none;stroke:#7ed1d2;stroke-miterlimit:10;stroke-width:2px;}.cls-5{font-size:50px;fill:#fff;font-family:STYuanti-SC-Light,
            Yuanti SC;}
        </style>
    </defs>
    <title>INFO</title>
    <g id="Layer_2" data-name="Layer 2">
        <g id="Layer_1-2" data-name="Layer 1">
            <rect class="cls-1" width="2430.26" height="4570.48"/>
            <path class="cls-2"
                  d="M1331.27,1518.08l829-96.17-833-96.63c-28.49-3.31-57.86-1.35-84.5,7.15-36,11.48-74.79,36.22-74.79,89.49,0,48.13,33.78,73,67.56,85.82C1265.09,1518.94,1298.74,1521.85,1331.27,1518.08Z"/>
            <rect class="cls-3" x="1077.46" y="1273.48" width="1082.84" height="296.42"/>
            <path class="cls-4"
                  d="M1338.6,1530.82l938.64-108.89-943.16-109.41c-32.26-3.74-65.51-1.53-95.68,8.09-40.77,13-84.67,41-84.67,101.32,0,54.49,38.25,82.64,76.49,97.16C1263.66,1531.79,1301.77,1535.09,1338.6,1530.82Z"/>
            <line class="cls-4" x1="2134.29" y1="1273.48" x2="2134.29" y2="1569.91"/>
            <line class="cls-4" x1="1077.46" y1="1421.69" x2="2134.29" y2="1421.69"/>
            <rect class="cls-3" x="85.15" y="1273.48" width="1006.01" height="296.42"/>
            <text class="cls-5" transform="translate(1021.88 1433.69) scale(1.04 1)">0</text>
            <path class="cls-2"
                  d="M1331.27,1083.06l829-96.17-833-96.63c-28.49-3.31-57.86-1.35-84.5,7.15-36,11.48-74.79,36.22-74.79,89.49,0,48.13,33.78,73,67.56,85.82C1265.09,1083.92,1298.74,1086.83,1331.27,1083.06Z"/>
            <rect class="cls-3" x="356.87" y="838.46" width="1082.84" height="296.42"/>
            <path class="cls-4"
                  d="M1338.6,1095.8l938.64-108.89L1334.08,877.5c-32.26-3.74-65.51-1.53-95.68,8.09-40.77,13-84.67,41-84.67,101.32,0,54.49,38.25,82.64,76.49,97.16C1263.66,1096.78,1301.77,1100.07,1338.6,1095.8Z"/>
            <line class="cls-4" x1="1413.7" y1="838.46" x2="1413.7" y2="1134.89"/>
            <line class="cls-4" x1="356.87" y1="986.68" x2="1413.7" y2="986.68"/>
            <rect class="cls-3" x="85.15" y="838.46" width="1006.01" height="296.42"/>
            <text class="cls-5" transform="translate(947.08 998.68) scale(1.04 1)">1400</text>
            <path class="cls-2"
                  d="M1331.27,597.77l829-96.17-833-96.63c-28.49-3.31-57.86-1.35-84.5,7.15-36,11.48-74.79,36.22-74.79,89.49,0,48.13,33.78,73,67.56,85.82C1265.09,598.63,1298.74,601.55,1331.27,597.77Z"/>
            <path class="cls-2"
                  d="M1331.27,4298.57l829-96.17-833-96.63c-28.49-3.31-57.86-1.35-84.5,7.15-36,11.48-74.79,36.22-74.79,89.49,0,48.13,33.78,73,67.56,85.82C1265.09,4299.43,1298.74,4302.35,1331.27,4298.57Z"/>
            <rect class="cls-3" x="85.15" y="353.18" width="1082.84" height="296.42"/>
            <rect class="cls-3" x="85.15" y="3560.18" width="1082.84" height="296.42"/>
            <path class="cls-4"
                  d="M1338.6,610.52l938.64-108.89L1334.08,392.22c-32.26-3.74-65.51-1.53-95.68,8.09-40.77,13-84.67,41-84.67,101.32,0,54.49,38.25,82.64,76.49,97.16C1263.66,611.49,1301.77,614.79,1338.6,610.52Z"/>
            <path class="cls-4"
                  d="M1338.6,3310.78l938.64-108.89-943.16-109.41c-32.26-3.74-65.51-1.53-95.68,8.09-40.77,13-84.67,41-84.67,101.32,0,54.49,38.25,82.64,76.49,97.16C1263.66,3311.75,1301.77,3315.05,1338.6,3310.78Z"/>
            <line class="cls-4" x1="1141.98" y1="353.18" x2="1141.98" y2="649.6"/>
            <line class="cls-4" x1="85.15" y1="501.39" x2="1141.98" y2="501.39"/>
            <line class="cls-4" x1="1141.98" y1="2613.31" x2="1141.98" y2="2909.73"/>
            <line class="cls-4" x1="85.15" y1="2761.52" x2="1141.98" y2="2761.52"/>
            <rect class="cls-3" x="85.15" y="353.18" width="1006.01" height="296.42"/>
            <text class="cls-5" transform="translate(934.81 513.39) scale(1.04 1)">2000</text>
            <rect class="cls-3" x="85.15" y="2052.12" width="1006.01" height="296.42"/>
            <text class="cls-5" transform="translate(934.81 2212.33) scale(1.04 1)">2000</text>
            <text class="cls-5" transform="translate(85.15 207.05) scale(1.04 1)">状态</text>
            <text class="cls-5" transform="translate(85.15 1812.92) scale(1.04 1)">分层</text>
            <text class="cls-5" transform="translate(85.15 1991.93) scale(1.04 1)">L1 static</text>
            <text class="cls-5" transform="translate(85.15 2523.72) scale(1.04 1)">L2 moving</text>
            <text class="cls-5" transform="translate(85.15 3201.65) scale(1.04 1)">L3 static</text>
            <text class="cls-5" transform="translate(85.15 3490.96) scale(1.04 1)">L4 moving</text>
            <text class="cls-5" transform="translate(86.92 4203.96) scale(1.04 1)">L5 static</text>
        </g>
    </g>
</svg>