<svg xmlns="http://www.w3.org/2000/svg" xmlns:xlink="http://www.w3.org/1999/xlink" viewBox="0 0 16257.93 16624.39"><defs><style>.cls-1{fill:#331001;}.cls-1,.cls-19{stroke:#65c8d0;}.cls-1,.cls-18,.cls-19,.cls-5{stroke-miterlimit:10;}.cls-2{fill:#212121;}.cls-3{font-size:325.58px;}.cls-12,.cls-13,.cls-3,.cls-7{fill:#f2f2f2;}.cls-12,.cls-13,.cls-3,.cls-6,.cls-7{font-family:STYuanti-SC-Light, Yuanti SC;}.cls-20,.cls-4,.cls-5,.cls-6,.cls-9{fill:#fff;}.cls-5{stroke:#fff;}.cls-6{font-size:30px;}.cls-7{font-size:43.29px;}.cls-13,.cls-8{font-size:80px;}.cls-10,.cls-11,.cls-12,.cls-9{font-size:40px;}.cls-11{letter-spacing:0em;}.cls-14,.cls-15,.cls-16,.cls-17,.cls-22,.cls-23{opacity:0.3;}.cls-14{fill:url(#radial-gradient);}.cls-15{fill:url(#radial-gradient-2);}.cls-16{fill:url(#radial-gradient-3);}.cls-17{fill:url(#radial-gradient-4);}.cls-18{fill:#ffce03;stroke:#fbb03b;}.cls-18,.cls-19{opacity:0.5;}.cls-19{fill:#7ed1d2;}.cls-20,.cls-21{opacity:0.12;}.cls-22{fill:url(#radial-gradient-5);}.cls-23{fill:url(#radial-gradient-6);}</style><radialGradient id="radial-gradient" cx="-9304.45" cy="-2329.64" r="3004.51" gradientUnits="userSpaceOnUse"><stop offset="0" stop-color="#fbb03b"/><stop offset="1" stop-opacity="0"/></radialGradient><radialGradient id="radial-gradient-2" cx="4652.48" cy="-3367.33" r="3004.5" gradientTransform="translate(-4661.04 -5696.97) rotate(180)" gradientUnits="userSpaceOnUse"><stop offset="0" stop-color="aqua"/><stop offset="1" stop-opacity="0"/></radialGradient><radialGradient id="radial-gradient-3" cx="-3120.9" cy="-2329.64" r="3004.51" xlink:href="#radial-gradient"/><radialGradient id="radial-gradient-4" cx="-931.88" cy="-3367.33" r="3004.5" xlink:href="#radial-gradient-2"/><radialGradient id="radial-gradient-5" cx="1348.59" cy="-5953.69" r="3004.51" xlink:href="#radial-gradient"/><radialGradient id="radial-gradient-6" cx="-6000.56" cy="256.73" r="3004.5" xlink:href="#radial-gradient-2"/></defs><title>ALL</title><g id="Layer_2" data-name="Layer 2"><g id="Layer_1-2" data-name="Layer 1"><rect class="cls-1" x="0.5" y="0.5" width="16256.93" height="16623.39"/><path class="cls-2" d="M-11622.31,553.39V3444.73h1770.57V553.39Zm885.28,1657.1c-371.94,0-673.46-301.52-673.46-673.46S-11109,863.57-10737,863.57s673.46,301.52,673.46,673.46S-10365.08,2210.49-10737,2210.49Z" transform="translate(12103.1 8569.75)"/><text class="cls-3" transform="translate(658.67 1426.34)">82°</text><text class="cls-3" transform="translate(1235.82 1426.34)">32°</text><path class="cls-4" d="M-11183.77-7865.66c6.72-2.71,13.57-5.1,20.45-7.37s13.82-4.38,20.79-6.37q20.93-5.92,42.24-10.38a710.7,710.7,0,0,1,86.09-12.68,700.45,700.45,0,0,1,87.07-1.88,668.07,668.07,0,0,1,86.65,9.24,645.5,645.5,0,0,1,165.91,52.52c52.64,24.88,101.78,56.92,146.51,94.11s85,79.93,118.74,127.36a635.79,635.79,0,0,1,80.53,154.27,677,677,0,0,1,36.88,169.92,709.65,709.65,0,0,1,2.1,87c-.55,14.49-1.54,29-3.06,43.39q-1.16,10.81-2.75,21.57c-1.07,7.17-2.26,14.32-3.79,21.4,1.38-7.11,2.42-14.28,3.34-21.47s1.67-14.39,2.29-21.6q1.92-21.63,2.38-43.35a707.35,707.35,0,0,0-3.44-86.67,697.84,697.84,0,0,0-13.86-85.54,669.1,669.1,0,0,0-24.49-83.05,649.28,649.28,0,0,0-35.21-79,636.76,636.76,0,0,0-45.55-73.52,660.43,660.43,0,0,0-54.94-66.79,703.87,703.87,0,0,0-63-59.27,715.2,715.2,0,0,0-69.63-51.36,671.86,671.86,0,0,0-75.48-42.24,647.6,647.6,0,0,0-80.36-32,659.24,659.24,0,0,0-83.94-21,692.8,692.8,0,0,0-172.68-9,708.45,708.45,0,0,0-86,11.31q-21.31,4.15-42.32,9.7-10.5,2.76-20.89,5.93C-11170.11-7870.48-11177-7868.24-11183.77-7865.66Z" transform="translate(12103.1 8569.75)"/><circle class="cls-5" cx="1619.07" cy="867.81" r="14.27"/><path class="cls-4" d="M-11097-6517.47a238,238,0,0,0,31.56,14.11c5.38,2,10.84,3.84,16.32,5.54l8.26,2.42c2.77.74,5.56,1.42,8.33,2.13a280.06,280.06,0,0,0,33.78,6.15l4.26.52,2.13.27,2.14.17,8.55.66c2.85.29,5.71.27,8.57.35l8.57.2,8.57-.21c2.86-.08,5.72-.06,8.57-.35l8.55-.66,2.14-.17,2.13-.27,4.26-.53,4.26-.51c1.42-.17,2.84-.33,4.25-.6l8.47-1.44,2.12-.36,2.1-.45,4.2-.91c2.8-.59,5.62-1.13,8.39-1.88s5.56-1.39,8.34-2.13l8.26-2.42c5.48-1.7,10.94-3.5,16.32-5.54a238.22,238.22,0,0,0,31.56-14.1,184.41,184.41,0,0,1-30.45,16.83,240.71,240.71,0,0,1-32.83,11.89,257.82,257.82,0,0,1-69.19,9.8,258,258,0,0,1-69.19-9.81,240.76,240.76,0,0,1-32.83-11.89A184.58,184.58,0,0,1-11097-6517.47Z" transform="translate(12103.1 8569.75)"/><circle class="cls-5" cx="1138.57" cy="2087.8" r="11.86"/><line class="cls-4" x1="1138.57" y1="2105.66" x2="1138.57" y2="2616.05"/><polygon class="cls-4" points="1140.57 2105.66 1138.57 2616.05 1136.57 2105.66 1140.57 2105.66"/><line class="cls-4" x1="1138.57" y1="1202.56" x2="1138.57" y2="1495.16"/><polygon class="cls-4" points="1143.57 1202.56 1138.57 1495.16 1133.57 1202.56 1143.57 1202.56"/><line class="cls-4" x1="1138.57" y1="3156.48" x2="1138.57" y2="2764.16"/><polygon class="cls-4" points="1136.57 3156.48 1138.57 2764.16 1140.57 3156.48 1136.57 3156.48"/><text class="cls-6" transform="translate(763.57 1624.35)">当前咱的是五级过滤，五个滤芯，基本都这样，有在后面<tspan x="0" y="50">加特殊要求的，比如加一个矿物质的。当前咱的是五级过</tspan><tspan x="0" y="100">滤。当前咱的是五级过滤，五个滤芯，基本都这样，有在</tspan><tspan x="90" y="150">后面加特殊要求的，比如加一个矿物质的。</tspan></text><text class="cls-7" transform="translate(710.52 2239.94)">室内温度<tspan class="cls-8"><tspan x="-101.5" y="120">32 </tspan><tspan class="cls-9" x="5.94" y="120">°C</tspan><tspan class="cls-4" x="40.78" y="120" xml:space="preserve">  </tspan><tspan x="80.78" y="120">|</tspan><tspan class="cls-4" x="99.34" y="120" xml:space="preserve">  </tspan><tspan x="139.34" y="120">64 </tspan><tspan class="cls-9" x="245.1" y="120">°F</tspan></tspan></text><text class="cls-7" transform="translate(710.52 2477.42)">室内湿度<tspan class="cls-8"><tspan x="14.34" y="120">23 </tspan><tspan class="cls-10" x="121.78" y="120">%</tspan></tspan></text><text class="cls-7" transform="translate(710.52 2714.91)">室内日照<tspan class="cls-8"><tspan x="-4.22" y="120">4.6 </tspan><tspan class="cls-11" x="121.78" y="120">hrs</tspan></tspan></text><text class="cls-7" transform="translate(710.52 2952.39)">室内噪声<tspan class="cls-8"><tspan x="8.82" y="120">20 </tspan><tspan class="cls-10" x="117.54" y="120">DB</tspan></tspan></text><text class="cls-7" transform="translate(1393.47 2239.94)">室外温度<tspan class="cls-8"><tspan x="-101.5" y="120">32 </tspan><tspan class="cls-9" x="5.94" y="120">°C</tspan><tspan class="cls-4" x="40.78" y="120" xml:space="preserve">  </tspan><tspan x="80.78" y="120">|</tspan><tspan class="cls-4" x="99.34" y="120" xml:space="preserve">  </tspan><tspan x="139.34" y="120">64 </tspan><tspan class="cls-9" x="245.1" y="120">°F</tspan></tspan></text><text class="cls-7" transform="translate(1391.4 2477.43)">室外湿度<tspan class="cls-8"><tspan x="14.34" y="120">23 </tspan><tspan class="cls-10" x="121.78" y="120">%</tspan></tspan></text><text class="cls-7" transform="translate(1391.4 2714.91)">室外日照<tspan class="cls-8"><tspan x="-4.22" y="120">4.6 </tspan><tspan class="cls-11" x="121.78" y="120">hrs</tspan></tspan></text><text class="cls-7" transform="translate(1391.4 2952.39)">室外噪声<tspan class="cls-8"><tspan x="8.82" y="120">20 </tspan><tspan class="cls-10" x="117.54" y="120">DB</tspan></tspan></text><text class="cls-12" transform="translate(983.23 609.21)">LIFE-STYLE INDEX</text><text class="cls-13" transform="translate(818.57 533.07)">健康生活综合指数</text><text class="cls-3" transform="translate(2637.83 1426.34)">82°</text><text class="cls-3" transform="translate(3214.98 1426.34)">32°</text><path class="cls-4" d="M-7473.91-7865.66c6.72-2.71,13.57-5.1,20.45-7.37s13.82-4.38,20.79-6.37q20.93-5.92,42.24-10.38a710.7,710.7,0,0,1,86.09-12.68,700.45,700.45,0,0,1,87.07-1.88,668.07,668.07,0,0,1,86.65,9.24,645.5,645.5,0,0,1,165.91,52.52c52.64,24.88,101.78,56.92,146.51,94.11s85,79.93,118.74,127.36a635.79,635.79,0,0,1,80.53,154.27A677,677,0,0,1-6582-7296.93a709.64,709.64,0,0,1,2.1,87c-.55,14.49-1.54,29-3.06,43.39q-1.16,10.81-2.75,21.57c-1.07,7.17-2.26,14.32-3.79,21.4,1.38-7.11,2.42-14.28,3.34-21.47s1.67-14.39,2.29-21.6q1.92-21.63,2.38-43.35a707.35,707.35,0,0,0-3.44-86.67,697.84,697.84,0,0,0-13.86-85.54,669.1,669.1,0,0,0-24.49-83.05,649.28,649.28,0,0,0-35.21-79,636.76,636.76,0,0,0-45.55-73.52,660.43,660.43,0,0,0-54.94-66.79,703.87,703.87,0,0,0-63-59.27,715.2,715.2,0,0,0-69.63-51.36,671.86,671.86,0,0,0-75.48-42.24,647.6,647.6,0,0,0-80.36-32,659.24,659.24,0,0,0-83.94-21,692.8,692.8,0,0,0-172.68-9,708.45,708.45,0,0,0-86,11.31q-21.31,4.15-42.32,9.7-10.5,2.76-20.89,5.93C-7460.25-7870.48-7467.14-7868.24-7473.91-7865.66Z" transform="translate(12103.1 8569.75)"/><circle class="cls-5" cx="5328.93" cy="867.81" r="14.27"/><path class="cls-4" d="M-7387.15-6517.47a238,238,0,0,0,31.56,14.11c5.38,2,10.84,3.84,16.32,5.54l8.26,2.42c2.77.74,5.56,1.42,8.33,2.13a280.06,280.06,0,0,0,33.78,6.15l4.26.52,2.13.27,2.14.17,8.55.66c2.85.29,5.71.27,8.57.35l8.57.2,8.57-.21c2.86-.08,5.72-.06,8.57-.35l8.55-.66,2.14-.17,2.13-.27,4.26-.53,4.26-.51c1.42-.17,2.84-.33,4.25-.6l8.47-1.44,2.12-.36,2.1-.45,4.2-.91c2.8-.59,5.62-1.13,8.39-1.88s5.56-1.39,8.34-2.13l8.26-2.42c5.48-1.7,10.94-3.5,16.32-5.54a238.22,238.22,0,0,0,31.56-14.1,184.41,184.41,0,0,1-30.45,16.83,240.71,240.71,0,0,1-32.83,11.89,257.82,257.82,0,0,1-69.19,9.8,258,258,0,0,1-69.19-9.81,240.76,240.76,0,0,1-32.83-11.89A184.58,184.58,0,0,1-7387.15-6517.47Z" transform="translate(12103.1 8569.75)"/><circle class="cls-5" cx="4848.43" cy="2087.8" r="11.86"/><line class="cls-4" x1="4848.43" y1="2105.66" x2="4848.43" y2="2616.05"/><polygon class="cls-4" points="4850.43 2105.66 4848.43 2616.05 4846.43 2105.66 4850.43 2105.66"/><line class="cls-4" x1="4848.43" y1="1202.56" x2="4848.43" y2="1495.16"/><polygon class="cls-4" points="4853.43 1202.56 4848.43 1495.16 4843.43 1202.56 4853.43 1202.56"/><line class="cls-4" x1="4848.43" y1="3156.48" x2="4848.43" y2="2764.16"/><polygon class="cls-4" points="4846.43 3156.48 4848.43 2764.16 4850.43 3156.48 4846.43 3156.48"/><text class="cls-6" transform="translate(2742.73 1624.35)">当前咱的是五级过滤，五个滤芯，基本都这样，有在后面<tspan x="0" y="50">加特殊要求的，比如加一个矿物质的。当前咱的是五级过</tspan><tspan x="0" y="100">滤。当前咱的是五级过滤，五个滤芯，基本都这样，有在</tspan><tspan x="90" y="150">后面加特殊要求的，比如加一个矿物质的。</tspan></text><text class="cls-7" transform="translate(2689.67 2239.94)">室内温度<tspan class="cls-8"><tspan x="-101.5" y="120">32 </tspan><tspan class="cls-9" x="5.94" y="120">°C</tspan><tspan class="cls-4" x="40.78" y="120" xml:space="preserve">  </tspan><tspan x="80.78" y="120">|</tspan><tspan class="cls-4" x="99.34" y="120" xml:space="preserve">  </tspan><tspan x="139.34" y="120">64 </tspan><tspan class="cls-9" x="245.1" y="120">°F</tspan></tspan></text><text class="cls-7" transform="translate(2689.67 2477.42)">室内湿度<tspan class="cls-8"><tspan x="14.34" y="120">23 </tspan><tspan class="cls-10" x="121.78" y="120">%</tspan></tspan></text><text class="cls-7" transform="translate(2689.67 2714.91)">室内日照<tspan class="cls-8"><tspan x="-4.22" y="120">4.6 </tspan><tspan class="cls-11" x="121.78" y="120">hrs</tspan></tspan></text><text class="cls-7" transform="translate(2689.67 2952.39)">室内噪声<tspan class="cls-8"><tspan x="8.82" y="120">20 </tspan><tspan class="cls-10" x="117.54" y="120">DB</tspan></tspan></text><text class="cls-7" transform="translate(3372.63 2239.94)">室外温度<tspan class="cls-8"><tspan x="-101.5" y="120">32 </tspan><tspan class="cls-9" x="5.94" y="120">°C</tspan><tspan class="cls-4" x="40.78" y="120" xml:space="preserve">  </tspan><tspan x="80.78" y="120">|</tspan><tspan class="cls-4" x="99.34" y="120" xml:space="preserve">  </tspan><tspan x="139.34" y="120">64 </tspan><tspan class="cls-9" x="245.1" y="120">°F</tspan></tspan></text><text class="cls-7" transform="translate(3370.56 2477.43)">室外湿度<tspan class="cls-8"><tspan x="14.34" y="120">23 </tspan><tspan class="cls-10" x="121.78" y="120">%</tspan></tspan></text><text class="cls-7" transform="translate(3370.56 2714.91)">室外日照<tspan class="cls-8"><tspan x="-4.22" y="120">4.6 </tspan><tspan class="cls-11" x="121.78" y="120">hrs</tspan></tspan></text><text class="cls-7" transform="translate(3370.56 2952.39)">室外噪声<tspan class="cls-8"><tspan x="8.82" y="120">20 </tspan><tspan class="cls-10" x="117.54" y="120">DB</tspan></tspan></text><text class="cls-12" transform="translate(2962.39 609.21)">LIFE-STYLE INDEX</text><text class="cls-13" transform="translate(2797.73 533.07)">健康生活综合指数</text><path class="cls-14" d="M-9309-71.11q27,.63,54.13.66c1247.72,0,2259.19-1011.47,2259.19-2259.19S-8007.14-4588.83-9254.85-4588.83q-27.14,0-54.13.66Z" transform="translate(12103.1 8569.75)"/><path class="cls-15" d="M-9309-4588.17q-27-.63-54.13-.66c-1247.72,0-2259.19,1011.47-2259.19,2259.19S-10610.83-70.45-9363.12-70.45q27.14,0,54.13-.66Z" transform="translate(12103.1 8569.75)"/><path class="cls-16" d="M-3125.43-71.11q27,.63,54.13.66c1247.72,0,2259.19-1011.47,2259.19-2259.19S-1823.59-4588.83-3071.3-4588.83q-27.14,0-54.13.66Z" transform="translate(12103.1 8569.75)"/><path class="cls-17" d="M-3724.63-4588.17q-27-.63-54.13-.66c-1247.72,0-2259.19,1011.47-2259.19,2259.19S-5026.47-70.45-3778.76-70.45q27.14,0,54.13-.66Z" transform="translate(12103.1 8569.75)"/><rect class="cls-18" x="1452.64" y="12408.81" width="960.59" height="2891.34"/><rect class="cls-19" x="490.77" y="12408.81" width="960.59" height="2891.34"/><rect class="cls-18" x="6741.52" y="12408.81" width="960.59" height="2891.34"/><rect class="cls-19" x="4736.09" y="12408.81" width="960.59" height="2891.34"/><rect class="cls-20" x="7317.29" y="10095.41" width="3659.75" height="1518.5"/><g id="Zpvso9.tif" class="cls-21"><path class="cls-4" d="M-3338.88,2748.92h72.38c2.79.53,5.56,1.42,8.37,1.53,59,2.41,115.52,15.75,169.78,38.57,64.15,27,129.8,47.1,200,50.14,42.24,1.83,84.26,1.23,126.24-3.73,49.9-5.9,97.19-21,143.36-40.2,47.92-19.91,96.89-36.09,148.82-41.66,15.09-1.62,30.2-3.11,45.29-4.65h72.38c2.79.53,5.56,1.42,8.37,1.53,59,2.41,115.52,15.75,169.78,38.58,64.15,27,129.8,47.1,200,50.14,42.24,1.83,84.26,1.23,126.24-3.73,49.9-5.9,97.19-21,143.36-40.2,47.92-19.91,96.89-36.09,148.82-41.66,15.09-1.62,30.2-3.11,45.29-4.65h72.38c2.79.53,5.56,1.42,8.37,1.53,59,2.4,115.52,15.75,169.78,38.57,64.15,27,129.8,47.1,200,50.14,42.24,1.83,84.26,1.24,126.24-3.73,49.9-5.9,97.19-21,143.36-40.2,47.92-19.91,96.89-36.1,148.82-41.66,15.09-1.62,30.2-3.11,45.29-4.65h36.19c-.15,5.71-.44,11.42-.44,17.13q0,127.6,0,255.2c0,24.31,1.64,22.44-22.89,22.44q-1806.41,0-3612.82,0c-7,0-14,.29-20.93.44V2748.92h36.19c2.79.53,5.56,1.42,8.37,1.53,59,2.4,115.52,15.75,169.78,38.57,64.15,27,129.8,47.1,200,50.14,42.24,1.83,84.26,1.23,126.24-3.73,49.9-5.9,97.19-21,143.36-40.2,47.92-19.91,96.89-36.09,148.82-41.66C-3369.08,2752-3354,2750.47-3338.88,2748.92Z" transform="translate(12103.1 8569.75)"/></g><g id="ueNIWR.tif" class="cls-21"><path class="cls-4" d="M-2845.93,2566.33h116.12c2.14.5,4.27,1.34,6.43,1.44,71.4,3.44,139.14,22.59,206.07,46.33a816.15,816.15,0,0,0,96.71,28c74.2,16.37,149.49,17.22,225,12,62.17-4.31,121.95-18.76,180.4-39.84,50.45-18.19,101.45-34.58,154.95-41.42,19.13-2.44,38.32-4.34,57.49-6.48h116.12a65.37,65.37,0,0,0,8.34,1.51c62.59,3.38,122.92,17.3,181.8,38.37,46.61,16.68,93.29,33.78,142.61,40.23,39.23,5.13,78.84,7.32,118.28,10.8,13.36,1.18,13.44,1.16,13.45,14.63q0,112.3,0,224.61,0,67.1,0,134.19c0,12.58-.9,13.33-13.68,13.47-1.59,0-3.17,0-4.76,0H-4877.12V2566.33h59c2.14.5,4.27,1.34,6.43,1.45,67.79,3.38,133,19.15,196,43.32,83.41,32,169.83,45.88,258.69,46.12,25.3.07,50.63-1.93,75.91-3.54,55.73-3.56,109.65-16,162.28-34.27,55.7-19.39,111.29-39.19,170.25-46.6,19.13-2.4,38.32-4.33,57.49-6.47h116.12a66.15,66.15,0,0,0,8.33,1.51c61.23,3.43,120.29,16.94,178.07,37.17,32,11.2,64.18,22.16,96.89,30.95,69.11,18.58,139.79,21.81,211.1,20.29,80.85-1.72,158.31-18.32,233.82-46.33,45.54-16.89,92.09-30.49,140.48-36.65C-2886.16,2570.72-2866,2568.63-2845.93,2566.33Z" transform="translate(12103.1 8569.75)"/></g><g id="DHw5Ik.tif" class="cls-21"><path class="cls-4" d="M-1297.4,2381.51v662.65h-3656q0-286.07,0-572.14c0-26.34.19-52.68-.08-79-.08-8.11,2.94-11.69,11.16-11.3,28.5,1.37,57,1.9,85.5,3.91,71.91,5.07,141.75,20.78,210.28,42.69,89.46,28.6,181,44.31,275.05,44.68,54.28.22,108.44-.54,162.44-6.92,64-7.56,125.65-24.77,186.94-43.64,82.73-25.48,167.24-39.25,253.89-39.3,27.24,0,54.5-.61,81.72.16,24.07.68,48.16,2.24,72.13,4.54,64.09,6.16,126.29,21.33,187.5,40.81,88.88,28.28,179.77,43.75,273.2,44.37,66.07.44,131.93-1.06,197.3-11.81,57.48-9.45,112.91-26.83,168.56-43.35,58-17.22,117.19-28.78,177.55-32.2,44.25-2.51,88.71-3.19,133-2.12,38.28.92,76.61,4.25,114.67,8.66,57.91,6.71,113.61,23.59,169.09,40.8,74.06,23,149.78,36.76,227.2,39.16,45.29,1.4,90.72.19,136-1.34,62.74-2.12,124.13-13.43,184.51-30.47,45.79-12.93,91.4-26.65,137.62-37.86C-1439,2385.68-1368.17,2383.18-1297.4,2381.51Z" transform="translate(12103.1 8569.75)"/></g><g id="_2jYcwI.tif" data-name="2jYcwI.tif" class="cls-21"><path class="cls-4" d="M-1808.14,2289.33v754.82H-5467.89q0-249.21,0-498.42,0-166.3,0-332.6c0-15,.38-15.7,15.63-15.24,35.53,1.09,71.11,1.71,106.56,4,75.29,4.95,149.35,17.85,222.53,36.24,39.72,10,79.58,19.57,119.67,27.92,63.23,13.17,127.33,19.32,191.88,21.71,69.56,2.58,139.06,2.13,208.45-3a1143.84,1143.84,0,0,0,216.57-37.24c119.9-32.68,241.81-49.87,366.06-49.56,40.3.1,80.6,1.73,120.87,3.31a1074.26,1074.26,0,0,1,233.12,35.43c108.43,28.68,218,49.94,330.42,51.77,60.27,1,120.64-.79,180.89-3.19,76.11-3,151-16.09,224.41-35.8,114.31-30.68,230.17-50.05,348.68-51.24,44.75-.45,89.54.48,134.28,1.91,26,.83,51.93,3.5,77.82,6.09,70,7,138.5,22.36,206.51,40,59.71,15.45,119.94,29.12,181.42,34.29C-1924.28,2285.4-1866.14,2286.55-1808.14,2289.33Z" transform="translate(12103.1 8569.75)"/></g><g id="fw8rYi.tif" class="cls-21"><path class="cls-4" d="M-900.94,2014.85v1029.3H-4560.68q0-505.51,0-1011c0-2.22.2-4.46,0-6.67-.86-9.18,3.36-12.41,12.33-11.94,27.88,1.48,55.81,2.16,83.68,3.85a742,742,0,0,1,151,25.25c39.82,10.88,79.24,23.23,119.09,34,63.12,17,127.58,24.86,192.88,27.41,65.51,2.56,130.75.47,195.77-7.65,56.31-7,111-21.52,164.87-38.73,86.87-27.73,175.83-42.7,266.91-43.61,42.81-.42,85.69,1.31,128.47,3.42,52.19,2.57,103.45,11.8,153.79,25.72,38.87,10.74,77.4,22.71,116.33,33.22,63.43,17.13,128.18,25.08,193.81,27.63s130.75.46,195.77-7.66c56.31-7,111-21.52,164.86-38.73,86.87-27.73,175.83-42.7,266.92-43.6,42.81-.42,85.69,1.31,128.47,3.42,52.19,2.57,103.45,11.81,153.79,25.72,39.18,10.83,78,22.87,117.26,33.44,63.13,17,127.58,24.85,192.88,27.4,65.51,2.56,130.74.4,195.77-7.64,62.06-7.68,121.84-25.16,181.33-43.55C-1092.24,2025.22-997.49,2013.63-900.94,2014.85Z" transform="translate(12103.1 8569.75)"/></g><g id="JibdNO.tif" class="cls-21"><path class="cls-4" d="M-2057.1,1923.35v1120.8H-5698.36c-18.48,0-18.49,0-18.49-18.25q0-588,0-1176a56.66,56.66,0,0,0,0-5.71c-.94-9.25,2.61-13.44,12.43-12.81,16.14,1,32.34,1.21,48.51,1.95,65,3,127.48,17.42,188.63,39.11,30.21,10.72,60.7,21,91.66,29.19,72.43,19.22,146.37,22.82,221,20.12,72.45-2.62,142.6-15.76,210.32-41.12,73.1-27.38,148-45.74,226.23-48.63,97.15-3.59,193,3.1,285.42,36.68,29.83,10.83,60,20.89,90.48,29.74,51.17,14.87,103.68,21.1,156.92,23.45,48.4,2.13,96.43-.21,144.42-5.71,53.06-6.08,103.5-22.38,153.86-39.28,32.78-11,65.78-21.87,99.4-29.7,72.64-16.9,146.54-17.88,220.72-14.12,68.55,3.48,134.13,19.35,198.7,41.92,38.59,13.49,78,25.55,117.88,34.2,62,13.44,125.12,14.92,188.54,12.57,74.44-2.77,146.44-16.76,215.59-43.67,110.19-42.88,224.31-52.82,340.94-44.13,58.29,4.34,114.61,17.7,169.91,36.7,40.19,13.81,80.92,26.46,122.1,36.85C-2162.11,1920.44-2109.51,1921.87-2057.1,1923.35Z" transform="translate(12103.1 8569.75)"/></g><g id="_0Cz9GI.tif" data-name="0Cz9GI.tif" class="cls-21"><path class="cls-4" d="M-1709.55,1648.88h106.74a20.92,20.92,0,0,0,4.53,1.31c61.35,3.48,119.13,21,175.25,44.84a549.66,549.66,0,0,0,201.46,43.82c86.94,2.41,170.62-10.1,250.75-45.13,41.36-18.08,84.2-32.15,129.14-38.64,15.66-2.26,31.37-4.14,47.05-6.2h53.37V3044.15H-4383.46c-17.51,0-17.53,0-17.53-17.3q0-689,0-1378h53.37a20.92,20.92,0,0,0,4.54,1.31c61.35,3.48,119.13,21,175.25,44.84a549.63,549.63,0,0,0,201.46,43.82c86.94,2.41,170.62-10.1,250.75-45.13,41.36-18.08,84.2-32.15,129.14-38.64,15.66-2.26,31.37-4.14,47.05-6.2h106.74a20.92,20.92,0,0,0,4.54,1.31c61.35,3.48,119.13,21,175.25,44.84a549.62,549.62,0,0,0,201.46,43.82c86.94,2.41,170.62-10.1,250.75-45.13,41.36-18.08,84.2-32.15,129.14-38.64,15.66-2.26,31.37-4.14,47.05-6.2h106.74a20.92,20.92,0,0,0,4.54,1.31c61.35,3.48,119.13,21,175.25,44.84a549.61,549.61,0,0,0,201.46,43.82c86.94,2.41,170.62-10.1,250.75-45.13,41.36-18.08,84.2-32.15,129.14-38.64C-1740.95,1652.82-1725.24,1650.93-1709.55,1648.88Z" transform="translate(12103.1 8569.75)"/></g><g id="Zpvso9.tif-2" data-name="Zpvso9.tif" class="cls-21"><path class="cls-4" d="M879.41,6712h72.38c2.79.53,5.56,1.42,8.37,1.53,59,2.41,115.52,15.75,169.78,38.57,64.15,27,129.8,47.1,200,50.14,42.24,1.83,84.26,1.23,126.24-3.73,49.9-5.9,97.19-21,143.36-40.2,47.92-19.91,96.89-36.09,148.82-41.66,15.09-1.62,30.2-3.11,45.29-4.65h72.38c2.79.53,5.56,1.42,8.37,1.53,59,2.41,115.52,15.75,169.78,38.58,64.15,27,129.8,47.1,200,50.14,42.24,1.83,84.26,1.23,126.24-3.73,49.9-5.9,97.19-21,143.36-40.2,47.92-19.91,96.89-36.09,148.82-41.66,15.09-1.62,30.2-3.11,45.29-4.65h72.38c2.79.53,5.56,1.42,8.37,1.53,59,2.4,115.52,15.75,169.78,38.57,64.15,27,129.8,47.1,200,50.14,42.24,1.83,84.26,1.24,126.24-3.73,49.9-5.9,97.19-21,143.36-40.2,47.92-19.91,96.89-36.1,148.82-41.66,15.09-1.62,30.2-3.11,45.29-4.65h36.19c-.15,5.71-.44,11.42-.44,17.13q0,127.6,0,255.2c0,24.31,1.64,22.44-22.89,22.44q-1806.41,0-3612.82,0c-7,0-14,.29-20.93.44V6712H37.51c2.79.53,5.56,1.42,8.37,1.53,59,2.4,115.52,15.75,169.78,38.57,64.15,27,129.8,47.1,200,50.14,42.24,1.83,84.26,1.23,126.24-3.73,49.9-5.9,97.19-21,143.36-40.2,47.92-19.91,96.89-36.09,148.82-41.66C849.21,6715,864.31,6713.54,879.41,6712Z" transform="translate(12103.1 8569.75)"/></g><g id="ueNIWR.tif-2" data-name="ueNIWR.tif" class="cls-21"><path class="cls-4" d="M2033.56,6071.83h116.12c2.14.5,4.27,1.34,6.43,1.44,71.4,3.44,139.14,22.59,206.07,46.33a816.15,816.15,0,0,0,96.71,28c74.2,16.37,149.49,17.22,225,12,62.17-4.31,121.95-18.76,180.4-39.84,50.45-18.19,101.45-34.58,154.95-41.42,19.13-2.44,38.32-4.34,57.49-6.48h116.12a65.37,65.37,0,0,0,8.34,1.51c62.59,3.38,122.92,17.3,181.8,38.37,46.61,16.68,93.29,33.78,142.61,40.23,39.23,5.13,78.84,7.32,118.28,10.8,13.36,1.18,13.44,1.16,13.45,14.63q0,112.3,0,224.61,0,67.1,0,134.19c0,12.58-.9,13.33-13.68,13.47-1.59,0-3.17,0-4.76,0H2.37V6071.83h59c2.14.5,4.27,1.34,6.43,1.45,67.79,3.38,133,19.15,196,43.32,83.41,32,169.83,45.88,258.69,46.12,25.3.07,50.63-1.93,75.91-3.54,55.73-3.56,109.65-16,162.28-34.27,55.7-19.39,111.29-39.19,170.25-46.6,19.13-2.4,38.32-4.33,57.49-6.47h116.12a66.15,66.15,0,0,0,8.33,1.51c61.23,3.43,120.29,16.94,178.07,37.17,32,11.2,64.18,22.16,96.89,30.95,69.11,18.58,139.79,21.81,211.1,20.29,80.85-1.72,158.31-18.32,233.82-46.33,45.54-16.89,92.09-30.49,140.48-36.65C1993.33,6076.21,2013.46,6074.13,2033.56,6071.83Z" transform="translate(12103.1 8569.75)"/></g><g id="DHw5Ik.tif-2" data-name="DHw5Ik.tif" class="cls-21"><path class="cls-4" d="M3657.91,5246.84v662.65H1.93q0-286.07,0-572.14c0-26.34.19-52.68-.08-79-.08-8.11,2.94-11.69,11.16-11.3,28.5,1.37,57,1.9,85.5,3.91,71.91,5.07,141.75,20.78,210.28,42.69,89.46,28.6,181,44.31,275.05,44.68,54.28.22,108.44-.54,162.44-6.92,64-7.56,125.65-24.77,186.94-43.64,82.73-25.48,167.24-39.25,253.89-39.3,27.24,0,54.5-.61,81.72.16,24.07.68,48.16,2.24,72.13,4.54,64.09,6.16,126.29,21.33,187.5,40.81,88.88,28.28,179.77,43.75,273.2,44.37,66.07.44,131.93-1.06,197.3-11.81,57.48-9.45,112.91-26.83,168.56-43.35,58-17.22,117.19-28.78,177.55-32.2,44.25-2.51,88.71-3.19,133-2.12,38.28.92,76.61,4.25,114.67,8.66,57.91,6.71,113.61,23.59,169.09,40.8,74.06,23,149.78,36.76,227.2,39.16,45.29,1.4,90.72.19,136-1.34,62.74-2.12,124.13-13.43,184.51-30.47,45.79-12.93,91.4-26.65,137.62-37.86C3516.33,5251,3587.14,5248.51,3657.91,5246.84Z" transform="translate(12103.1 8569.75)"/></g><g id="_2jYcwI.tif-2" data-name="2jYcwI.tif" class="cls-21"><path class="cls-4" d="M3659.75,4303.56v754.82H0Q0,4809.18,0,4560q0-166.3,0-332.6c0-15,.38-15.7,15.63-15.24,35.53,1.09,71.11,1.71,106.56,4,75.29,4.95,149.35,17.85,222.53,36.24,39.72,10,79.58,19.57,119.67,27.92,63.23,13.17,127.33,19.32,191.88,21.71,69.56,2.58,139.06,2.13,208.45-3a1143.84,1143.84,0,0,0,216.57-37.24c119.9-32.68,241.81-49.87,366.06-49.56,40.3.1,80.6,1.73,120.87,3.31A1074.26,1074.26,0,0,1,1801.36,4251c108.43,28.68,218,49.94,330.42,51.77,60.27,1,120.64-.79,180.89-3.19,76.11-3,151-16.09,224.41-35.8,114.31-30.68,230.17-50.05,348.68-51.24,44.75-.45,89.54.48,134.28,1.91,26,.83,51.93,3.5,77.82,6.09,70,7,138.5,22.36,206.51,40,59.71,15.45,119.94,29.12,181.42,34.29C3543.62,4299.63,3601.75,4300.78,3659.75,4303.56Z" transform="translate(12103.1 8569.75)"/></g><g id="fw8rYi.tif-2" data-name="fw8rYi.tif" class="cls-21"><path class="cls-4" d="M3659.81,2969.87v1029.3H.07q0-505.51,0-1011c0-2.22.2-4.46,0-6.67-.86-9.18,3.36-12.41,12.33-11.94,27.88,1.48,55.81,2.16,83.68,3.85a742,742,0,0,1,151,25.25c39.82,10.88,79.24,23.23,119.09,34,63.12,17,127.58,24.86,192.88,27.41,65.51,2.56,130.75.47,195.77-7.65,56.31-7,111-21.52,164.87-38.73,86.87-27.73,175.83-42.7,266.91-43.61,42.81-.42,85.69,1.31,128.47,3.42,52.19,2.57,103.45,11.8,153.79,25.72,38.87,10.74,77.4,22.71,116.33,33.22,63.43,17.13,128.18,25.08,193.81,27.63s130.75.46,195.77-7.66c56.31-7,111-21.52,164.86-38.73,86.87-27.73,175.83-42.7,266.92-43.6,42.81-.42,85.69,1.31,128.47,3.42,52.19,2.57,103.45,11.81,153.79,25.72,39.18,10.83,78,22.87,117.26,33.44,63.13,17,127.58,24.85,192.88,27.4,65.51,2.56,130.74.4,195.77-7.64,62.06-7.68,121.84-25.16,181.33-43.55C3468.51,2980.24,3563.26,2968.65,3659.81,2969.87Z" transform="translate(12103.1 8569.75)"/></g><g id="JibdNO.tif-2" data-name="JibdNO.tif" class="cls-21"><path class="cls-4" d="M3659.83,1617.89v1120.8H18.57c-18.48,0-18.49,0-18.49-18.25q0-588,0-1176a56.66,56.66,0,0,0,0-5.71c-.94-9.25,2.61-13.44,12.43-12.81,16.14,1,32.34,1.21,48.51,1.95,65,3,127.48,17.42,188.63,39.11,30.21,10.72,60.7,21,91.66,29.19,72.43,19.22,146.37,22.82,221,20.12,72.45-2.62,142.6-15.76,210.32-41.12,73.1-27.38,148-45.74,226.23-48.63,97.15-3.59,193,3.1,285.42,36.68,29.83,10.83,60,20.89,90.48,29.74,51.17,14.87,103.68,21.1,156.92,23.45,48.4,2.13,96.43-.21,144.42-5.71,53.06-6.08,103.5-22.38,153.86-39.28,32.78-11,65.78-21.87,99.4-29.7,72.64-16.9,146.54-17.88,220.72-14.12,68.55,3.48,134.13,19.35,198.7,41.92,38.59,13.49,78,25.55,117.88,34.2,62,13.44,125.12,14.92,188.54,12.57,74.44-2.77,146.44-16.76,215.59-43.67,110.19-42.88,224.31-52.82,340.94-44.13,58.29,4.34,114.61,17.7,169.91,36.7,40.19,13.81,80.92,26.46,122.1,36.85C3554.82,1615,3607.43,1616.41,3659.83,1617.89Z" transform="translate(12103.1 8569.75)"/></g><g id="_0Cz9GI.tif-2" data-name="0Cz9GI.tif" class="cls-21"><path class="cls-4" d="M2691.44,0h106.74a20.92,20.92,0,0,0,4.53,1.31c61.35,3.48,119.13,21,175.25,44.84A549.66,549.66,0,0,0,3179.42,90c86.94,2.41,170.62-10.1,250.75-45.13,41.36-18.08,84.2-32.15,129.14-38.64,15.66-2.26,31.37-4.14,47.05-6.2h53.37V1395.28H17.54C0,1395.28,0,1395.26,0,1378Q0,689,0,0H53.37a20.92,20.92,0,0,0,4.54,1.31c61.35,3.48,119.13,21,175.25,44.84A549.63,549.63,0,0,0,434.62,90c86.94,2.41,170.62-10.1,250.75-45.13,41.36-18.08,84.2-32.15,129.14-38.64,15.66-2.26,31.37-4.14,47.05-6.2H968.31a20.92,20.92,0,0,0,4.54,1.31c61.35,3.48,119.13,21,175.25,44.84A549.62,549.62,0,0,0,1349.55,90c86.94,2.41,170.62-10.1,250.75-45.13,41.36-18.08,84.2-32.15,129.14-38.64,15.66-2.26,31.37-4.14,47.05-6.2h106.74a20.92,20.92,0,0,0,4.54,1.31c61.35,3.48,119.13,21,175.25,44.84A549.61,549.61,0,0,0,2264.49,90c86.94,2.41,170.62-10.1,250.75-45.13,41.36-18.08,84.2-32.15,129.14-38.64C2660,3.94,2675.76,2.06,2691.44,0Z" transform="translate(12103.1 8569.75)"/></g><rect class="cls-2" x="12485.42" y="1624.47" width="1923.33" height="2891.34"/><rect class="cls-18" x="13447.72" y="1624.47" width="960.59" height="2891.34"/><rect class="cls-19" x="12485.85" y="1624.47" width="960.59" height="2891.34"/><rect class="cls-20" x="11617.85" y="1935.71" width="3659.75" height="1518.5"/><g id="Zpvso9.tif-3" data-name="Zpvso9.tif" class="cls-21"><path class="cls-4" d="M394.15-5410.78h72.38c2.79.53,5.56,1.42,8.37,1.53,59,2.41,115.52,15.75,169.78,38.57,64.15,27,129.8,47.1,200,50.14,42.24,1.83,84.26,1.23,126.24-3.73,49.9-5.9,97.19-21,143.36-40.2,47.92-19.91,96.89-36.09,148.82-41.66,15.09-1.62,30.2-3.11,45.29-4.65h72.38c2.79.53,5.56,1.42,8.37,1.53,59,2.41,115.52,15.75,169.78,38.58,64.15,27,129.8,47.1,200,50.14,42.24,1.83,84.26,1.23,126.24-3.73,49.9-5.9,97.19-21,143.36-40.2,47.92-19.91,96.89-36.09,148.82-41.66,15.09-1.62,30.2-3.11,45.29-4.65h72.38c2.79.53,5.56,1.42,8.37,1.53,59,2.4,115.52,15.75,169.78,38.57,64.15,27,129.8,47.1,200,50.14,42.24,1.83,84.26,1.24,126.24-3.73,49.9-5.9,97.19-21,143.36-40.2,47.92-19.91,96.89-36.1,148.82-41.66,15.09-1.62,30.2-3.11,45.29-4.65h36.19c-.15,5.71-.44,11.42-.44,17.13q0,127.6,0,255.2c0,24.31,1.64,22.44-22.89,22.44q-1806.41,0-3612.82,0c-7,0-14,.29-20.93.44v-295.23h36.19c2.79.53,5.56,1.42,8.37,1.53,59,2.4,115.52,15.75,169.78,38.57,64.15,27,129.8,47.1,200,50.14,42.24,1.83,84.26,1.23,126.24-3.73,49.9-5.9,97.19-21,143.36-40.2,47.92-19.91,96.89-36.09,148.82-41.66C364-5407.74,379.06-5409.23,394.15-5410.78Z" transform="translate(12103.1 8569.75)"/></g><g id="ueNIWR.tif-3" data-name="ueNIWR.tif" class="cls-21"><path class="cls-4" d="M1548.3-5593.36h116.12c2.14.5,4.27,1.34,6.43,1.44,71.4,3.44,139.14,22.59,206.07,46.33a816.15,816.15,0,0,0,96.71,28c74.2,16.37,149.49,17.22,225,12,62.17-4.31,121.95-18.76,180.4-39.84,50.45-18.19,101.45-34.58,154.95-41.42,19.13-2.44,38.32-4.34,57.49-6.48h116.12a65.37,65.37,0,0,0,8.34,1.51c62.59,3.38,122.92,17.3,181.8,38.37,46.61,16.68,93.29,33.78,142.61,40.23,39.23,5.13,78.84,7.32,118.28,10.8,13.36,1.18,13.44,1.16,13.45,14.63q0,112.3,0,224.61,0,67.1,0,134.19c0,12.58-.9,13.33-13.68,13.47-1.59,0-3.17,0-4.76,0H-482.89v-477.82h59c2.14.5,4.27,1.34,6.43,1.45,67.79,3.38,133,19.15,196,43.32,83.41,32,169.83,45.88,258.69,46.12,25.3.07,50.63-1.93,75.91-3.54,55.73-3.56,109.65-16,162.28-34.27,55.7-19.39,111.29-39.19,170.25-46.6,19.13-2.4,38.32-4.33,57.49-6.47H619.32a66.15,66.15,0,0,0,8.33,1.51c61.23,3.43,120.29,16.94,178.07,37.17,32,11.2,64.18,22.16,96.89,30.95,69.11,18.58,139.79,21.81,211.1,20.29,80.85-1.72,158.31-18.32,233.82-46.33,45.54-16.89,92.09-30.49,140.48-36.65C1508.08-5589,1528.2-5591.07,1548.3-5593.36Z" transform="translate(12103.1 8569.75)"/></g><g id="DHw5Ik.tif-3" data-name="DHw5Ik.tif" class="cls-21"><path class="cls-4" d="M3172.65-5778.19v662.65h-3656q0-286.07,0-572.14c0-26.34.19-52.68-.08-79-.08-8.11,2.94-11.69,11.16-11.3,28.5,1.37,57,1.9,85.5,3.91,71.91,5.07,141.75,20.78,210.28,42.69,89.46,28.6,181,44.31,275.05,44.68,54.28.22,108.44-.54,162.44-6.92,64-7.56,125.65-24.77,186.94-43.64,82.73-25.48,167.24-39.25,253.89-39.3,27.24,0,54.5-.61,81.72.16,24.07.68,48.16,2.24,72.13,4.54,64.09,6.16,126.29,21.33,187.5,40.81,88.88,28.28,179.77,43.75,273.2,44.37,66.07.44,131.93-1.06,197.3-11.81,57.48-9.45,112.91-26.83,168.56-43.35,58-17.22,117.19-28.78,177.55-32.2,44.25-2.51,88.71-3.19,133-2.12,38.28.92,76.61,4.25,114.67,8.66,57.91,6.71,113.61,23.59,169.09,40.8,74.06,23,149.78,36.76,227.2,39.16,45.29,1.4,90.72.19,136-1.34,62.74-2.12,124.13-13.43,184.51-30.47,45.79-12.93,91.4-26.65,137.62-37.86C3031.08-5774,3101.88-5776.52,3172.65-5778.19Z" transform="translate(12103.1 8569.75)"/></g><g id="_2jYcwI.tif-3" data-name="2jYcwI.tif" class="cls-21"><path class="cls-4" d="M3174.5-5870.36v754.82H-485.25q0-249.21,0-498.42,0-166.3,0-332.6c0-15,.38-15.7,15.63-15.24,35.53,1.09,71.11,1.71,106.56,4,75.29,4.95,149.35,17.85,222.53,36.24,39.72,10,79.58,19.57,119.67,27.92,63.23,13.17,127.33,19.32,191.88,21.71,69.56,2.58,139.06,2.13,208.45-3A1143.84,1143.84,0,0,0,596-5912.14c119.9-32.68,241.81-49.87,366.06-49.56,40.3.1,80.6,1.73,120.87,3.31A1074.26,1074.26,0,0,1,1316.1-5923c108.43,28.68,218,49.94,330.42,51.77,60.27,1,120.64-.79,180.89-3.19,76.11-3,151-16.09,224.41-35.8,114.31-30.68,230.17-50.05,348.68-51.24,44.75-.45,89.54.48,134.28,1.91,26,.83,51.93,3.5,77.82,6.09,70,7,138.5,22.36,206.51,40,59.71,15.45,119.94,29.12,181.42,34.29C3058.36-5874.3,3116.5-5873.15,3174.5-5870.36Z" transform="translate(12103.1 8569.75)"/></g><g id="fw8rYi.tif-3" data-name="fw8rYi.tif" class="cls-21"><path class="cls-4" d="M3174.56-6144.84v1029.3H-485.19q0-505.51,0-1011c0-2.22.2-4.46,0-6.67-.86-9.18,3.36-12.41,12.33-11.94,27.88,1.48,55.81,2.16,83.68,3.85a742,742,0,0,1,151,25.25c39.82,10.88,79.24,23.23,119.09,34,63.12,17,127.58,24.86,192.88,27.41,65.51,2.56,130.75.47,195.77-7.65,56.31-7,111-21.52,164.87-38.73,86.87-27.73,175.83-42.7,266.91-43.61,42.81-.42,85.69,1.31,128.47,3.42,52.19,2.57,103.45,11.8,153.79,25.72,38.87,10.74,77.4,22.71,116.33,33.22,63.43,17.13,128.18,25.08,193.81,27.63s130.75.46,195.77-7.66c56.31-7,111-21.52,164.86-38.73,86.87-27.73,175.83-42.7,266.92-43.6,42.81-.42,85.69,1.31,128.47,3.42,52.19,2.57,103.45,11.81,153.79,25.72,39.18,10.83,78,22.87,117.26,33.44,63.13,17,127.58,24.85,192.88,27.4,65.51,2.56,130.74.4,195.77-7.64,62.06-7.68,121.84-25.16,181.33-43.55C2983.26-6134.47,3078-6146.07,3174.56-6144.84Z" transform="translate(12103.1 8569.75)"/></g><g id="JibdNO.tif-3" data-name="JibdNO.tif" class="cls-21"><path class="cls-4" d="M3174.58-6236.34v1120.8H-466.68c-18.48,0-18.49,0-18.49-18.25q0-588,0-1176a56.66,56.66,0,0,0,0-5.71c-.94-9.25,2.61-13.44,12.43-12.81,16.14,1,32.34,1.21,48.51,1.95,65,3,127.48,17.42,188.63,39.11,30.21,10.72,60.7,21,91.66,29.19,72.43,19.22,146.37,22.82,221,20.12,72.45-2.62,142.6-15.76,210.32-41.12,73.1-27.38,148-45.74,226.23-48.63,97.15-3.59,193,3.1,285.42,36.68,29.83,10.83,60,20.89,90.48,29.74,51.17,14.87,103.68,21.1,156.92,23.45,48.4,2.13,96.43-.21,144.42-5.71,53.06-6.08,103.5-22.38,153.86-39.28,32.78-11,65.78-21.87,99.4-29.7,72.64-16.9,146.54-17.88,220.72-14.12,68.55,3.48,134.13,19.35,198.7,41.92,38.59,13.49,78,25.55,117.88,34.2,62,13.44,125.12,14.92,188.54,12.57,74.44-2.77,146.44-16.76,215.59-43.67,110.19-42.88,224.31-52.82,340.94-44.13,58.29,4.34,114.61,17.7,169.91,36.7,40.19,13.81,80.92,26.46,122.1,36.85C3069.57-6239.25,3122.17-6237.83,3174.58-6236.34Z" transform="translate(12103.1 8569.75)"/></g><g id="_0Cz9GI.tif-3" data-name="0Cz9GI.tif" class="cls-21"><path class="cls-4" d="M2206.19-6510.82h106.74a20.92,20.92,0,0,0,4.53,1.31c61.35,3.48,119.13,21,175.25,44.84a549.66,549.66,0,0,0,201.46,43.82c86.94,2.41,170.62-10.1,250.75-45.13,41.36-18.08,84.2-32.15,129.14-38.64,15.66-2.26,31.37-4.14,47.05-6.2h53.37v1395.28H-467.72c-17.51,0-17.53,0-17.53-17.3q0-689,0-1378h53.37a20.92,20.92,0,0,0,4.54,1.31c61.35,3.48,119.13,21,175.25,44.84a549.63,549.63,0,0,0,201.46,43.82C36.3-6418.44,120-6431,200.11-6466c41.36-18.08,84.2-32.15,129.14-38.64,15.66-2.26,31.37-4.14,47.05-6.2H483.06a20.92,20.92,0,0,0,4.54,1.31c61.35,3.48,119.13,21,175.25,44.84a549.62,549.62,0,0,0,201.46,43.82c86.94,2.41,170.62-10.1,250.75-45.13,41.36-18.08,84.2-32.15,129.14-38.64,15.66-2.26,31.37-4.14,47.05-6.2H1398a20.92,20.92,0,0,0,4.54,1.31c61.35,3.48,119.13,21,175.25,44.84a549.61,549.61,0,0,0,201.46,43.82c86.94,2.41,170.62-10.1,250.75-45.13,41.36-18.08,84.2-32.15,129.14-38.64C2174.79-6506.88,2190.5-6508.77,2206.19-6510.82Z" transform="translate(12103.1 8569.75)"/></g><path class="cls-2" d="M458.7-6945.28v2891.34H2229.27V-6945.28ZM1344-5288.18c-371.94,0-673.46-301.52-673.46-673.46S972-6635.1,1344-6635.1s673.46,301.52,673.46,673.46S1715.92-5288.18,1344-5288.18Z" transform="translate(12103.1 8569.75)"/><path class="cls-22" d="M1344.06-3695.16q27,.63,54.13.66c1247.72,0,2259.19-1011.47,2259.19-2259.19S2645.91-8212.88,1398.19-8212.88q-27.14,0-54.13.66Z" transform="translate(12103.1 8569.75)"/><path class="cls-23" d="M1344.06-8212.22q-27-.63-54.13-.66c-1247.72,0-2259.19,1011.47-2259.19,2259.19S42.21-3694.5,1289.93-3694.5q27.14,0,54.13-.66Z" transform="translate(12103.1 8569.75)"/><text class="cls-3" transform="translate(12967.26 2693.53)">82°</text><text class="cls-3" transform="translate(13544.41 2693.53)">32°</text><path class="cls-4" d="M1124.82-6598.47c6.72-2.71,13.57-5.1,20.45-7.37s13.82-4.38,20.79-6.37q20.93-5.92,42.24-10.38a710.7,710.7,0,0,1,86.09-12.68,700.45,700.45,0,0,1,87.07-1.88,668.07,668.07,0,0,1,86.65,9.24A645.5,645.5,0,0,1,1634-6575.39c52.64,24.88,101.78,56.92,146.51,94.11s85,79.93,118.74,127.36a635.79,635.79,0,0,1,80.53,154.27,677,677,0,0,1,36.88,169.92,709.64,709.64,0,0,1,2.1,87c-.55,14.49-1.54,29-3.06,43.39q-1.16,10.81-2.75,21.57c-1.07,7.17-2.26,14.32-3.79,21.4,1.38-7.11,2.42-14.28,3.34-21.47s1.67-14.39,2.29-21.6q1.92-21.63,2.38-43.35a707.35,707.35,0,0,0-3.44-86.67A697.84,697.84,0,0,0,1999.9-6115a669.1,669.1,0,0,0-24.49-83.05,649.28,649.28,0,0,0-35.21-79,636.76,636.76,0,0,0-45.55-73.52,660.43,660.43,0,0,0-54.94-66.79,703.87,703.87,0,0,0-63-59.27,715.2,715.2,0,0,0-69.63-51.36,671.86,671.86,0,0,0-75.48-42.24,647.6,647.6,0,0,0-80.36-32,659.24,659.24,0,0,0-83.94-21,692.8,692.8,0,0,0-172.68-9,708.45,708.45,0,0,0-86,11.31q-21.31,4.15-42.32,9.7-10.5,2.76-20.89,5.93C1138.48-6603.28,1131.59-6601,1124.82-6598.47Z" transform="translate(12103.1 8569.75)"/><circle class="cls-5" cx="13927.66" cy="2135" r="14.27"/><path class="cls-4" d="M1211.58-5250.28a238,238,0,0,0,31.56,14.11c5.38,2,10.84,3.84,16.32,5.54l8.26,2.42c2.77.74,5.56,1.42,8.33,2.13a280.06,280.06,0,0,0,33.78,6.15l4.26.52,2.13.27,2.14.17,8.55.66c2.85.29,5.71.27,8.57.35l8.57.2,8.57-.21c2.86-.08,5.72-.06,8.57-.35l8.55-.66,2.14-.17,2.13-.27,4.26-.53,4.26-.51c1.42-.17,2.84-.33,4.25-.6l8.47-1.44,2.12-.36,2.1-.45,4.2-.91c2.8-.59,5.62-1.13,8.39-1.88s5.56-1.39,8.34-2.13l8.26-2.42c5.48-1.7,10.94-3.5,16.32-5.54a238.22,238.22,0,0,0,31.56-14.1,184.41,184.41,0,0,1-30.45,16.83,240.71,240.71,0,0,1-32.83,11.89,257.82,257.82,0,0,1-69.19,9.8,258,258,0,0,1-69.19-9.81,240.76,240.76,0,0,1-32.83-11.89A184.58,184.58,0,0,1,1211.58-5250.28Z" transform="translate(12103.1 8569.75)"/><circle class="cls-5" cx="13447.16" cy="3354.99" r="11.86"/><line class="cls-4" x1="13447.16" y1="3372.85" x2="13447.16" y2="3883.25"/><polygon class="cls-4" points="13449.16 3372.85 13447.16 3883.25 13445.16 3372.85 13449.16 3372.85"/><line class="cls-4" x1="13447.16" y1="2469.76" x2="13447.16" y2="2762.35"/><polygon class="cls-4" points="13452.16 2469.76 13447.16 2762.35 13442.16 2469.76 13452.16 2469.76"/><line class="cls-4" x1="13447.16" y1="4423.67" x2="13447.16" y2="4031.35"/><polygon class="cls-4" points="13445.16 4423.67 13447.16 4031.35 13449.16 4423.67 13445.16 4423.67"/><text class="cls-6" transform="translate(13072.16 2891.54)">当前咱的是五级过滤，五个滤芯，基本都这样，有在后面<tspan x="0" y="50">加特殊要求的，比如加一个矿物质的。当前咱的是五级过</tspan><tspan x="0" y="100">滤。当前咱的是五级过滤，五个滤芯，基本都这样，有在</tspan><tspan x="90" y="150">后面加特殊要求的，比如加一个矿物质的。</tspan></text><text class="cls-7" transform="translate(13019.11 3507.13)">室内温度<tspan class="cls-8"><tspan x="-101.5" y="120">32 </tspan><tspan class="cls-9" x="5.94" y="120">°C</tspan><tspan class="cls-4" x="40.78" y="120" xml:space="preserve">  </tspan><tspan x="80.78" y="120">|</tspan><tspan class="cls-4" x="99.34" y="120" xml:space="preserve">  </tspan><tspan x="139.34" y="120">64 </tspan><tspan class="cls-9" x="245.1" y="120">°F</tspan></tspan></text><text class="cls-7" transform="translate(13019.11 3744.62)">室内湿度<tspan class="cls-8"><tspan x="14.34" y="120">23 </tspan><tspan class="cls-10" x="121.78" y="120">%</tspan></tspan></text><text class="cls-7" transform="translate(13019.11 3982.1)">室内日照<tspan class="cls-8"><tspan x="-4.22" y="120">4.6 </tspan><tspan class="cls-11" x="121.78" y="120">hrs</tspan></tspan></text><text class="cls-7" transform="translate(13019.11 4219.58)">室内噪声<tspan class="cls-8"><tspan x="8.82" y="120">20 </tspan><tspan class="cls-10" x="117.54" y="120">DB</tspan></tspan></text><text class="cls-7" transform="translate(13702.06 3507.13)">室外温度<tspan class="cls-8"><tspan x="-101.5" y="120">32 </tspan><tspan class="cls-9" x="5.94" y="120">°C</tspan><tspan class="cls-4" x="40.78" y="120" xml:space="preserve">  </tspan><tspan x="80.78" y="120">|</tspan><tspan class="cls-4" x="99.34" y="120" xml:space="preserve">  </tspan><tspan x="139.34" y="120">64 </tspan><tspan class="cls-9" x="245.1" y="120">°F</tspan></tspan></text><text class="cls-7" transform="translate(13699.99 3744.62)">室外湿度<tspan class="cls-8"><tspan x="14.34" y="120">23 </tspan><tspan class="cls-10" x="121.78" y="120">%</tspan></tspan></text><text class="cls-7" transform="translate(13699.99 3982.1)">室外日照<tspan class="cls-8"><tspan x="-4.22" y="120">4.6 </tspan><tspan class="cls-11" x="121.78" y="120">hrs</tspan></tspan></text><text class="cls-7" transform="translate(13699.99 4219.58)">室外噪声<tspan class="cls-8"><tspan x="8.82" y="120">20 </tspan><tspan class="cls-10" x="117.54" y="120">DB</tspan></tspan></text><text class="cls-12" transform="translate(13291.82 1876.4)">LIFE-STYLE INDEX</text><text class="cls-13" transform="translate(13127.16 1800.26)">健康生活综合指数</text></g></g></svg>