<svg xmlns="http://www.w3.org/2000/svg" viewBox="0 0 1204.79 2687.17"><defs><style>.cls-1{font-size:325.58px;}.cls-1,.cls-10,.cls-11,.cls-5{fill:#f2f2f2;}.cls-1,.cls-10,.cls-11,.cls-4,.cls-5{font-family:STYuanti-SC-Light, Yuanti SC;}.cls-2,.cls-3,.cls-4,.cls-7{fill:#fff;}.cls-3{stroke:#fff;stroke-miterlimit:10;}.cls-4{font-size:30px;}.cls-5{font-size:43.29px;}.cls-11,.cls-6{font-size:80px;}.cls-10,.cls-7,.cls-8,.cls-9{font-size:40px;}.cls-9{letter-spacing:0em;}</style></defs><title>L1 ALL</title><g id="Layer_2" data-name="Layer 2"><g id="Layer_1-2" data-name="Layer 1"><text class="cls-1" transform="translate(49.65 957.03)">82°</text><text class="cls-1" transform="translate(626.81 957.03)">32°</text><path class="cls-2" d="M310.32,234.77c6.72-2.71,13.57-5.1,20.45-7.37S344.58,223,351.55,221q20.93-5.92,42.24-10.38A710.7,710.7,0,0,1,479.88,198a700.45,700.45,0,0,1,87.07-1.88,668.07,668.07,0,0,1,86.65,9.24,645.5,645.5,0,0,1,165.91,52.52C872.16,282.73,921.3,314.77,966,352s85,79.93,118.74,127.36a635.79,635.79,0,0,1,80.53,154.27,677,677,0,0,1,36.88,169.92,709.64,709.64,0,0,1,2.1,87c-.55,14.49-1.54,29-3.06,43.39q-1.16,10.81-2.75,21.57c-1.07,7.17-2.26,14.32-3.79,21.4,1.38-7.11,2.42-14.28,3.34-21.47s1.67-14.39,2.29-21.6q1.92-21.63,2.38-43.35a707.35,707.35,0,0,0-3.44-86.67,697.84,697.84,0,0,0-13.86-85.54,669.1,669.1,0,0,0-24.49-83.05,649.28,649.28,0,0,0-35.21-79,636.76,636.76,0,0,0-45.55-73.52,660.43,660.43,0,0,0-54.94-66.79,703.87,703.87,0,0,0-63-59.27,715.2,715.2,0,0,0-69.63-51.36A671.86,671.86,0,0,0,817.09,263a647.6,647.6,0,0,0-80.36-32,659.24,659.24,0,0,0-83.94-21,692.8,692.8,0,0,0-172.68-9,708.45,708.45,0,0,0-86,11.31q-21.31,4.15-42.32,9.7-10.5,2.76-20.89,5.93C324,230,317.09,232.2,310.32,234.77Z"/><circle class="cls-3" cx="1010.05" cy="398.5" r="14.27"/><path class="cls-2" d="M397.08,1583a238,238,0,0,0,31.56,14.11c5.38,2,10.84,3.84,16.32,5.54l8.26,2.42c2.77.74,5.56,1.42,8.33,2.13a280.06,280.06,0,0,0,33.78,6.15l4.26.52,2.13.27,2.14.17,8.55.66c2.85.29,5.71.27,8.57.35l8.57.2,8.57-.21c2.86-.08,5.72-.06,8.57-.35l8.55-.66,2.14-.17,2.13-.27,4.26-.53,4.26-.51c1.42-.17,2.84-.33,4.25-.6l8.47-1.44,2.12-.36,2.1-.45,4.2-.91c2.8-.59,5.62-1.13,8.39-1.88s5.56-1.39,8.34-2.13l8.26-2.42c5.48-1.7,10.94-3.5,16.32-5.54A238.22,238.22,0,0,0,662,1583a184.41,184.41,0,0,1-30.45,16.83,240.71,240.71,0,0,1-32.83,11.89,249,249,0,0,1-138.38,0,240.76,240.76,0,0,1-32.83-11.89A184.58,184.58,0,0,1,397.08,1583Z"/><circle class="cls-3" cx="529.56" cy="1618.49" r="11.86"/><line class="cls-2" x1="529.56" y1="1636.35" x2="529.56" y2="2146.74"/><polygon class="cls-2" points="531.55 1636.35 529.55 2146.74 527.55 1636.35 531.55 1636.35"/><line class="cls-2" x1="529.56" y1="733.25" x2="529.56" y2="1025.85"/><polygon class="cls-2" points="534.55 733.25 529.55 1025.85 524.55 733.25 534.55 733.25"/><line class="cls-2" x1="529.56" y1="2687.17" x2="529.56" y2="2294.85"/><polygon class="cls-2" points="527.55 2687.17 529.55 2294.85 531.55 2687.17 527.55 2687.17"/><text class="cls-4" transform="translate(154.56 1155.04)">当前咱的是五级过滤，五个滤芯，基本都这样，有在后面<tspan x="0" y="50">加特殊要求的，比如加一个矿物质的。当前咱的是五级过</tspan><tspan x="0" y="100">滤。当前咱的是五级过滤，五个滤芯，基本都这样，有在</tspan><tspan x="90" y="150">后面加特殊要求的，比如加一个矿物质的。</tspan></text><text class="cls-5" transform="translate(101.5 1770.63)">室内温度<tspan class="cls-6"><tspan x="-101.5" y="120">32 </tspan><tspan class="cls-7" x="5.94" y="120">°C</tspan><tspan class="cls-2" x="40.78" y="120" xml:space="preserve">  </tspan><tspan x="80.78" y="120">|</tspan><tspan class="cls-2" x="99.34" y="120" xml:space="preserve">  </tspan><tspan x="139.34" y="120">64 </tspan><tspan class="cls-7" x="245.1" y="120">°F</tspan></tspan></text><text class="cls-5" transform="translate(101.5 2008.11)">室内湿度<tspan class="cls-6"><tspan x="14.34" y="120">23 </tspan><tspan class="cls-8" x="121.78" y="120">%</tspan></tspan></text><text class="cls-5" transform="translate(101.5 2245.6)">室内日照<tspan class="cls-6"><tspan x="-4.22" y="120">4.6 </tspan><tspan class="cls-9" x="121.78" y="120">hrs</tspan></tspan></text><text class="cls-5" transform="translate(101.5 2483.08)">室内噪声<tspan class="cls-6"><tspan x="8.82" y="120">20 </tspan><tspan class="cls-8" x="117.54" y="120">DB</tspan></tspan></text><text class="cls-5" transform="translate(784.46 1770.63)">室外温度<tspan class="cls-6"><tspan x="-101.5" y="120">32 </tspan><tspan class="cls-7" x="5.94" y="120">°C</tspan><tspan class="cls-2" x="40.78" y="120" xml:space="preserve">  </tspan><tspan x="80.78" y="120">|</tspan><tspan class="cls-2" x="99.34" y="120" xml:space="preserve">  </tspan><tspan x="139.34" y="120">64 </tspan><tspan class="cls-7" x="245.1" y="120">°F</tspan></tspan></text><text class="cls-5" transform="translate(782.38 2008.12)">室外湿度<tspan class="cls-6"><tspan x="14.34" y="120">23 </tspan><tspan class="cls-8" x="121.78" y="120">%</tspan></tspan></text><text class="cls-5" transform="translate(782.38 2245.6)">室外日照<tspan class="cls-6"><tspan x="-4.22" y="120">4.6 </tspan><tspan class="cls-9" x="121.78" y="120">hrs</tspan></tspan></text><text class="cls-5" transform="translate(782.38 2483.08)">室外噪声<tspan class="cls-6"><tspan x="8.82" y="120">20 </tspan><tspan class="cls-8" x="117.54" y="120">DB</tspan></tspan></text><text class="cls-10" transform="translate(374.22 139.9)">LIFE-STYLE INDEX</text><text class="cls-11" transform="translate(209.56 63.76)">健康生活综合指数</text></g></g></svg>