<svg xmlns="http://www.w3.org/2000/svg" viewBox="0 0 1059.17 2628.44"><defs><style>.cls-1{font-size:325.58px;}.cls-1,.cls-10,.cls-3,.cls-9{fill:#f2f2f2;}.cls-1,.cls-10,.cls-2,.cls-3,.cls-9{font-family:STYuanti-SC-Light, Yuanti SC;}.cls-2{font-size:30px;}.cls-2,.cls-5,.cls-6{fill:#fff;}.cls-3{font-size:43.29px;}.cls-10,.cls-4{font-size:80px;}.cls-5,.cls-7,.cls-8,.cls-9{font-size:40px;}.cls-8{letter-spacing:0em;}</style></defs><title>L1 P1</title><g id="Layer_2" data-name="Layer 2"><g id="Layer_1-2" data-name="Layer 1"><text class="cls-1" transform="translate(49.65 957.03)">82°</text><text class="cls-1" transform="translate(626.81 957.03)">32°</text><text class="cls-2" transform="translate(154.56 1155.04)">当前咱的是五级过滤，五个滤芯，基本都这样，有在后面<tspan x="0" y="50">加特殊要求的，比如加一个矿物质的。当前咱的是五级过</tspan><tspan x="0" y="100">滤。当前咱的是五级过滤，五个滤芯，基本都这样，有在</tspan><tspan x="90" y="150">后面加特殊要求的，比如加一个矿物质的。</tspan></text><text class="cls-3" transform="translate(101.5 1770.63)">室内温度<tspan class="cls-4"><tspan x="-101.5" y="120">32 </tspan><tspan class="cls-5" x="5.94" y="120">°C</tspan><tspan class="cls-6" x="40.78" y="120" xml:space="preserve">  </tspan><tspan x="80.78" y="120">|</tspan><tspan class="cls-6" x="99.34" y="120" xml:space="preserve">  </tspan><tspan x="139.34" y="120">64 </tspan><tspan class="cls-5" x="245.1" y="120">°F</tspan></tspan></text><text class="cls-3" transform="translate(101.5 2008.11)">室内湿度<tspan class="cls-4"><tspan x="14.34" y="120">23 </tspan><tspan class="cls-7" x="121.78" y="120">%</tspan></tspan></text><text class="cls-3" transform="translate(101.5 2245.6)">室内日照<tspan class="cls-4"><tspan x="-4.22" y="120">4.6 </tspan><tspan class="cls-8" x="121.78" y="120">hrs</tspan></tspan></text><text class="cls-3" transform="translate(101.5 2483.08)">室内噪声<tspan class="cls-4"><tspan x="8.82" y="120">20 </tspan><tspan class="cls-7" x="117.54" y="120">DB</tspan></tspan></text><text class="cls-3" transform="translate(784.46 1770.63)">室外温度<tspan class="cls-4"><tspan x="-101.5" y="120">32 </tspan><tspan class="cls-5" x="5.94" y="120">°C</tspan><tspan class="cls-6" x="40.78" y="120" xml:space="preserve">  </tspan><tspan x="80.78" y="120">|</tspan><tspan class="cls-6" x="99.34" y="120" xml:space="preserve">  </tspan><tspan x="139.34" y="120">64 </tspan><tspan class="cls-5" x="245.1" y="120">°F</tspan></tspan></text><text class="cls-3" transform="translate(782.38 2008.12)">室外湿度<tspan class="cls-4"><tspan x="14.34" y="120">23 </tspan><tspan class="cls-7" x="121.78" y="120">%</tspan></tspan></text><text class="cls-3" transform="translate(782.38 2245.6)">室外日照<tspan class="cls-4"><tspan x="-4.22" y="120">4.6 </tspan><tspan class="cls-8" x="121.78" y="120">hrs</tspan></tspan></text><text class="cls-3" transform="translate(782.38 2483.08)">室外噪声<tspan class="cls-4"><tspan x="8.82" y="120">20 </tspan><tspan class="cls-7" x="117.54" y="120">DB</tspan></tspan></text><text class="cls-9" transform="translate(374.22 139.9)">LIFE-STYLE INDEX</text><text class="cls-10" transform="translate(209.56 63.76)">健康生活综合指数</text></g></g></svg>