<svg xmlns="http://www.w3.org/2000/svg" viewBox="0 0 894.47 2491.66"><defs><style>.cls-1,.cls-2{fill:#fff;}.cls-2{stroke:#fff;stroke-miterlimit:10;}</style></defs><title>L1 P2</title><g id="Layer_2" data-name="Layer 2"><g id="Layer_1-2" data-name="Layer 1"><path class="cls-1" d="M0,39.27c6.72-2.71,13.57-5.1,20.45-7.37s13.82-4.38,20.79-6.37Q62.16,19.6,83.48,15.14A710.7,710.7,0,0,1,169.57,2.46,700.45,700.45,0,0,1,256.63.58a668.07,668.07,0,0,1,86.65,9.24A645.5,645.5,0,0,1,509.2,62.34C561.84,87.22,611,119.26,655.71,156.45s85,79.93,118.74,127.36A635.79,635.79,0,0,1,855,438.08,677,677,0,0,1,891.87,608a709.64,709.64,0,0,1,2.1,87c-.55,14.49-1.54,29-3.06,43.39q-1.16,10.81-2.75,21.57c-1.07,7.17-2.26,14.32-3.79,21.4,1.38-7.11,2.42-14.28,3.34-21.47s1.67-14.39,2.29-21.6q1.92-21.63,2.38-43.35a707.35,707.35,0,0,0-3.44-86.67,697.84,697.84,0,0,0-13.86-85.54,669.1,669.1,0,0,0-24.49-83.05,649.28,649.28,0,0,0-35.21-79,636.76,636.76,0,0,0-45.55-73.52,660.43,660.43,0,0,0-54.94-66.79,703.87,703.87,0,0,0-63-59.27,715.2,715.2,0,0,0-69.63-51.36,671.86,671.86,0,0,0-75.48-42.24,647.6,647.6,0,0,0-80.36-32,659.24,659.24,0,0,0-83.94-21,692.8,692.8,0,0,0-172.68-9,708.45,708.45,0,0,0-86,11.31q-21.31,4.15-42.32,9.7Q31,29.15,20.58,32.32C13.66,34.45,6.77,36.69,0,39.27Z"/><circle class="cls-2" cx="699.74" cy="202.99" r="14.27"/><path class="cls-1" d="M86.76,1387.46a238,238,0,0,0,31.56,14.11c5.38,2,10.84,3.84,16.32,5.54l8.26,2.42c2.77.74,5.56,1.42,8.33,2.13a280.06,280.06,0,0,0,33.78,6.15l4.26.52,2.13.27,2.14.17,8.55.66c2.85.29,5.71.27,8.57.35l8.57.2,8.57-.21c2.86-.08,5.72-.06,8.57-.35l8.55-.66,2.14-.17,2.13-.27,4.26-.53,4.26-.51c1.42-.17,2.84-.33,4.25-.6l8.47-1.44,2.12-.36,2.1-.45,4.2-.91c2.8-.59,5.62-1.13,8.39-1.88s5.56-1.39,8.34-2.13l8.26-2.42c5.48-1.7,10.94-3.5,16.32-5.54a238.22,238.22,0,0,0,31.56-14.1,184.41,184.41,0,0,1-30.45,16.83,240.71,240.71,0,0,1-32.83,11.89,257.82,257.82,0,0,1-69.19,9.8,258,258,0,0,1-69.19-9.81,240.76,240.76,0,0,1-32.83-11.89A184.58,184.58,0,0,1,86.76,1387.46Z"/><circle class="cls-2" cx="219.24" cy="1422.98" r="11.86"/><line class="cls-1" x1="219.24" y1="1440.84" x2="219.24" y2="1951.24"/><polygon class="cls-1" points="221.24 1440.84 219.24 1951.24 217.24 1440.84 221.24 1440.84"/><line class="cls-1" x1="219.24" y1="537.75" x2="219.24" y2="830.34"/><polygon class="cls-1" points="224.24 537.75 219.24 830.34 214.24 537.75 224.24 537.75"/><line class="cls-1" x1="219.24" y1="2491.66" x2="219.24" y2="2099.34"/><polygon class="cls-1" points="217.24 2491.66 219.24 2099.34 221.24 2491.66 217.24 2491.66"/></g></g></svg>