<svg xmlns="http://www.w3.org/2000/svg" viewBox="0 0 5157.16 1518.5"><defs><style>.cls-1,.cls-3{fill:#fff;}.cls-1,.cls-2{opacity:0.12;}</style></defs><title>L5 ALL</title><g id="Layer_2" data-name="Layer 2"><g id="Layer_1-2" data-name="Layer 1"><rect class="cls-1" x="931.2" width="3659.75" height="1518.5"/><g id="Zpvso9.tif" class="cls-2"><path class="cls-3" d="M2378.14,1223.26h72.38c2.79.53,5.56,1.42,8.37,1.53,59,2.41,115.52,15.75,169.78,38.57,64.15,27,129.8,47.1,200,50.14,42.24,1.83,84.26,1.23,126.24-3.73,49.9-5.9,97.19-21,143.36-40.2,47.92-19.91,96.89-36.09,148.82-41.66,15.09-1.62,30.2-3.11,45.29-4.65h72.38c2.79.53,5.56,1.42,8.37,1.53,59,2.41,115.52,15.75,169.78,38.58,64.15,27,129.8,47.1,200,50.14,42.24,1.83,84.26,1.23,126.24-3.73,49.9-5.9,97.19-21,143.36-40.2,47.92-19.91,96.89-36.09,148.82-41.66,15.09-1.62,30.2-3.11,45.29-4.65h72.38c2.79.53,5.56,1.42,8.37,1.53,59,2.4,115.52,15.75,169.78,38.57,64.15,27,129.8,47.1,200,50.14,42.24,1.83,84.26,1.24,126.24-3.73,49.9-5.9,97.19-21,143.36-40.2,47.92-19.91,96.89-36.1,148.82-41.66,15.09-1.62,30.2-3.11,45.29-4.65h36.19c-.15,5.71-.44,11.42-.44,17.13q0,127.6,0,255.2c0,24.31,1.64,22.44-22.89,22.44q-1806.41,0-3612.82,0c-7,0-14,.29-20.93.44V1223.26h36.19c2.79.53,5.56,1.42,8.37,1.53,59,2.4,115.52,15.75,169.78,38.57,64.15,27,129.8,47.1,200,50.14,42.24,1.83,84.26,1.23,126.24-3.73,49.9-5.9,97.19-21,143.36-40.2,47.92-19.91,96.89-36.09,148.82-41.66C2347.94,1226.3,2363,1224.81,2378.14,1223.26Z"/></g><g id="ueNIWR.tif" class="cls-2"><path class="cls-3" d="M2871.08,1040.67h116.12c2.14.5,4.27,1.34,6.43,1.44,71.4,3.44,139.14,22.59,206.07,46.33a816.15,816.15,0,0,0,96.71,28c74.2,16.37,149.49,17.22,225,12,62.17-4.31,121.95-18.76,180.4-39.84,50.45-18.19,101.45-34.58,154.95-41.42,19.13-2.44,38.32-4.34,57.49-6.48H4030.4a65.37,65.37,0,0,0,8.34,1.51c62.59,3.38,122.92,17.3,181.8,38.37,46.61,16.68,93.29,33.78,142.61,40.23,39.23,5.13,78.84,7.32,118.28,10.8,13.36,1.18,13.44,1.16,13.45,14.63q0,112.3,0,224.61,0,67.1,0,134.19c0,12.58-.9,13.33-13.68,13.47-1.59,0-3.17,0-4.76,0H839.89V1040.67h59c2.14.5,4.27,1.34,6.43,1.45,67.79,3.38,133,19.15,196,43.32,83.41,32,169.83,45.88,258.69,46.12,25.3.07,50.63-1.93,75.91-3.54,55.73-3.56,109.65-16,162.28-34.27,55.7-19.39,111.29-39.19,170.25-46.6,19.13-2.4,38.32-4.33,57.49-6.47H1942.1a66.15,66.15,0,0,0,8.33,1.51c61.23,3.43,120.29,16.94,178.07,37.17,32,11.2,64.18,22.16,96.89,30.95,69.11,18.58,139.79,21.81,211.1,20.29,80.85-1.72,158.31-18.32,233.82-46.33,45.54-16.89,92.09-30.49,140.48-36.65C2830.86,1045.06,2851,1043,2871.08,1040.67Z"/></g><g id="DHw5Ik.tif" class="cls-2"><path class="cls-3" d="M4419.62,855.85V1518.5h-3656q0-286.07,0-572.14c0-26.34.19-52.68-.08-79-.08-8.11,2.94-11.69,11.16-11.3,28.5,1.37,57,1.9,85.5,3.91,71.91,5.07,141.75,20.78,210.28,42.69,89.46,28.6,181,44.31,275.05,44.68,54.28.22,108.44-.54,162.44-6.92,64-7.56,125.65-24.77,186.94-43.64,82.73-25.48,167.24-39.25,253.89-39.3,27.24,0,54.5-.61,81.72.16,24.07.68,48.16,2.24,72.13,4.54,64.09,6.16,126.29,21.33,187.5,40.81,88.88,28.28,179.77,43.75,273.2,44.37,66.07.44,131.93-1.06,197.3-11.81,57.48-9.45,112.91-26.83,168.56-43.35,58-17.22,117.19-28.78,177.55-32.2,44.25-2.51,88.71-3.19,133-2.12,38.28.92,76.61,4.25,114.67,8.66,57.91,6.71,113.61,23.59,169.09,40.8,74.06,23,149.78,36.76,227.2,39.16,45.29,1.4,90.72.19,136-1.34,62.74-2.12,124.13-13.43,184.51-30.47,45.79-12.93,91.4-26.65,137.62-37.86C4278,860,4348.85,857.52,4419.62,855.85Z"/></g><g id="_2jYcwI.tif" data-name="2jYcwI.tif" class="cls-2"><path class="cls-3" d="M3908.87,763.67V1518.5H249.13q0-249.21,0-498.42,0-166.3,0-332.6c0-15,.38-15.7,15.63-15.24,35.53,1.09,71.11,1.71,106.56,4,75.29,4.95,149.35,17.85,222.53,36.24,39.72,10,79.58,19.57,119.67,27.92,63.23,13.17,127.33,19.32,191.88,21.71,69.56,2.58,139.06,2.13,208.45-3a1143.84,1143.84,0,0,0,216.57-37.24c119.9-32.68,241.81-49.87,366.06-49.56,40.3.1,80.6,1.73,120.87,3.31a1074.26,1074.26,0,0,1,233.12,35.43c108.43,28.68,218,49.94,330.42,51.77,60.27,1,120.64-.79,180.89-3.19,76.11-3,151-16.09,224.41-35.8,114.31-30.68,230.17-50.05,348.68-51.24,44.75-.45,89.54.48,134.28,1.91,26,.83,51.93,3.5,77.82,6.09,70,7,138.5,22.36,206.51,40,59.71,15.45,119.94,29.12,181.42,34.29C3792.74,759.74,3850.87,760.89,3908.87,763.67Z"/></g><g id="fw8rYi.tif" class="cls-2"><path class="cls-3" d="M4816.08,489.19V1518.5H1156.33q0-505.51,0-1011c0-2.22.2-4.46,0-6.67-.86-9.18,3.36-12.41,12.33-11.94,27.88,1.48,55.81,2.16,83.68,3.85a742,742,0,0,1,151,25.25c39.82,10.88,79.24,23.23,119.09,34,63.12,17,127.58,24.86,192.88,27.41,65.51,2.56,130.75.47,195.77-7.65,56.31-7,111-21.52,164.87-38.73,86.87-27.73,175.83-42.7,266.91-43.61,42.81-.42,85.69,1.31,128.47,3.42,52.19,2.57,103.45,11.8,153.79,25.72,38.87,10.74,77.4,22.71,116.33,33.22,63.43,17.13,128.18,25.08,193.81,27.63s130.75.46,195.77-7.66c56.31-7,111-21.52,164.86-38.73,86.87-27.73,175.83-42.7,266.92-43.6,42.81-.42,85.69,1.31,128.47,3.42,52.19,2.57,103.45,11.81,153.79,25.72,39.18,10.83,78,22.87,117.26,33.44,63.13,17,127.58,24.85,192.88,27.4,65.51,2.56,130.74.4,195.77-7.64,62.06-7.68,121.84-25.16,181.33-43.55C4624.78,499.56,4719.53,488,4816.08,489.19Z"/></g><g id="JibdNO.tif" class="cls-2"><path class="cls-3" d="M3659.91,397.69v1120.8H18.66c-18.48,0-18.49,0-18.49-18.25q0-588,0-1176a56.66,56.66,0,0,0,0-5.71c-.94-9.25,2.61-13.44,12.43-12.81,16.14,1,32.34,1.21,48.51,1.95,65,3,127.48,17.42,188.63,39.11,30.21,10.72,60.7,21,91.66,29.19,72.43,19.22,146.37,22.82,221,20.12C634.86,393.53,705,380.39,772.74,355c73.1-27.38,148-45.74,226.23-48.63,97.15-3.59,193,3.1,285.42,36.68,29.83,10.83,60,20.89,90.48,29.74,51.17,14.87,103.68,21.1,156.92,23.45,48.4,2.13,96.43-.21,144.42-5.71,53.06-6.08,103.5-22.38,153.86-39.28,32.78-11,65.78-21.87,99.4-29.7,72.64-16.9,146.54-17.88,220.72-14.12,68.55,3.48,134.13,19.35,198.7,41.92,38.59,13.49,78,25.55,117.88,34.2,62,13.44,125.12,14.92,188.54,12.57,74.44-2.77,146.44-16.76,215.59-43.67,110.19-42.88,224.31-52.82,340.94-44.13,58.29,4.34,114.61,17.7,169.91,36.7,40.19,13.81,80.92,26.46,122.1,36.85C3554.91,394.78,3607.51,396.21,3659.91,397.69Z"/></g><g id="_0Cz9GI.tif" data-name="0Cz9GI.tif" class="cls-2"><path class="cls-3" d="M4007.47,123.21h106.74a20.92,20.92,0,0,0,4.53,1.31c61.35,3.48,119.13,21,175.25,44.84a549.66,549.66,0,0,0,201.46,43.82c86.94,2.41,170.62-10.1,250.75-45.13,41.36-18.08,84.2-32.15,129.14-38.64,15.66-2.26,31.37-4.14,47.05-6.2h53.37V1518.49H1333.56c-17.51,0-17.53,0-17.53-17.3q0-689,0-1378h53.37a20.92,20.92,0,0,0,4.54,1.31c61.35,3.48,119.13,21,175.25,44.84a549.63,549.63,0,0,0,201.46,43.82c86.94,2.41,170.62-10.1,250.75-45.13,41.36-18.08,84.2-32.15,129.14-38.64,15.66-2.26,31.37-4.14,47.05-6.2h106.74a20.92,20.92,0,0,0,4.54,1.31c61.35,3.48,119.13,21,175.25,44.84a549.62,549.62,0,0,0,201.46,43.82c86.94,2.41,170.62-10.1,250.75-45.13,41.36-18.08,84.2-32.15,129.14-38.64,15.66-2.26,31.37-4.14,47.05-6.2h106.74a20.92,20.92,0,0,0,4.54,1.31c61.35,3.48,119.13,21,175.25,44.84a549.61,549.61,0,0,0,201.46,43.82c86.94,2.41,170.62-10.1,250.75-45.13,41.36-18.08,84.2-32.15,129.14-38.64C3976.07,127.15,3991.78,125.27,4007.47,123.21Z"/></g></g></g></svg>