<svg xmlns="http://www.w3.org/2000/svg" viewBox="0 0 3659.87 1029.68"><defs><style>.cls-1{opacity:0.12;}.cls-2{fill:#fff;}</style></defs><title>L5 P5</title><g id="Layer_2" data-name="Layer 2"><g id="Layer_1-2" data-name="Layer 1"><g id="fw8rYi.tif" class="cls-1"><path class="cls-2" d="M3659.87.38v1029.3H.13q0-505.51,0-1011c0-2.22.2-4.46,0-6.67C-.75,2.8,3.47-.43,12.44,0,40.32,1.52,68.25,2.21,96.12,3.89a742,742,0,0,1,151,25.25c39.82,10.88,79.24,23.23,119.09,34C429.34,80.16,493.79,88,559.1,90.53c65.51,2.56,130.75.47,195.77-7.65,56.31-7,111-21.52,164.87-38.73C1006.6,16.42,1095.55,1.45,1186.64.55c42.81-.42,85.69,1.31,128.47,3.42,52.19,2.57,103.45,11.8,153.79,25.72,38.87,10.74,77.4,22.71,116.33,33.22C1648.66,80,1713.41,88,1779,90.54s130.75.46,195.77-7.66c56.31-7,111-21.52,164.86-38.73,86.87-27.73,175.83-42.7,266.92-43.6C2449.4.13,2492.27,1.86,2535.05,4c52.19,2.57,103.45,11.81,153.79,25.72,39.18,10.83,78,22.87,117.26,33.44,63.13,17,127.58,24.85,192.88,27.4,65.51,2.56,130.74.4,195.77-7.64,62.06-7.68,121.84-25.16,181.33-43.55C3468.58,10.75,3563.33-.85,3659.87.38Z"/></g></g></g></svg>