<svg xmlns="http://www.w3.org/2000/svg" viewBox="0 0 3659.91 1213.03"><defs><style>.cls-1{opacity:0.12;}.cls-2{fill:#fff;}</style></defs><title>L5 P6</title><g id="Layer_2" data-name="Layer 2"><g id="Layer_1-2" data-name="Layer 1"><g id="JibdNO.tif" class="cls-1"><path class="cls-2" d="M3659.91,92.23V1213H18.66c-18.48,0-18.49,0-18.49-18.25q0-588,0-1176a56.66,56.66,0,0,0,0-5.71C-.8,3.86,2.75-.33,12.57.31c16.14,1,32.34,1.21,48.51,1.95,65,3,127.48,17.42,188.63,39.11,30.21,10.72,60.7,21,91.66,29.19,72.43,19.22,146.37,22.82,221,20.12C634.86,88.06,705,74.93,772.74,49.56,845.84,22.18,920.72,3.82,999,.93c97.15-3.59,193,3.1,285.42,36.68,29.83,10.83,60,20.89,90.48,29.74C1426,82.22,1478.55,88.45,1531.8,90.8c48.4,2.13,96.43-.21,144.42-5.71,53.06-6.08,103.5-22.38,153.86-39.28,32.78-11,65.78-21.87,99.4-29.7C2002.12-.79,2076-1.77,2150.2,2c68.55,3.48,134.13,19.35,198.7,41.92,38.59,13.49,78,25.55,117.88,34.2,62,13.44,125.12,14.92,188.54,12.57,74.44-2.77,146.44-16.76,215.59-43.67C2981.11,4.12,3095.23-5.81,3211.86,2.88c58.29,4.34,114.61,17.7,169.91,36.7C3422,53.39,3462.69,66,3503.87,76.44,3554.91,89.32,3607.51,90.74,3659.91,92.23Z"/></g></g></g></svg>