<svg xmlns="http://www.w3.org/2000/svg" viewBox="0 0 3656.07 662.65"><defs><style>.cls-1{opacity:0.12;}.cls-2{fill:#fff;}</style></defs><title>L5 P3</title><g id="Layer_2" data-name="Layer 2"><g id="Layer_1-2" data-name="Layer 1"><g id="DHw5Ik.tif" class="cls-1"><path class="cls-2" d="M3656.07,0V662.65H.09q0-286.07,0-572.14c0-26.34.19-52.68-.08-79C-.08,3.38,2.94-.2,11.16.19c28.5,1.37,57,1.9,85.5,3.91,71.91,5.07,141.75,20.78,210.28,42.69C396.4,75.4,487.91,91.1,582,91.47c54.28.22,108.44-.54,162.44-6.92,64-7.56,125.65-24.77,186.94-43.64,82.73-25.48,167.24-39.25,253.89-39.3,27.24,0,54.5-.61,81.72.16,24.07.68,48.16,2.24,72.13,4.54,64.09,6.16,126.29,21.33,187.5,40.81,88.88,28.28,179.77,43.75,273.2,44.37,66.07.44,131.93-1.06,197.3-11.81,57.48-9.45,112.91-26.83,168.56-43.35,58-17.22,117.19-28.78,177.55-32.2,44.25-2.51,88.71-3.19,133-2.12,38.28.92,76.61,4.25,114.67,8.66,57.91,6.71,113.61,23.59,169.09,40.8,74.06,23,149.78,36.76,227.2,39.16,45.29,1.4,90.72.19,136-1.34,62.74-2.12,124.13-13.43,184.51-30.47,45.79-12.93,91.4-26.65,137.62-37.86C3514.49,4.17,3585.3,1.67,3656.07,0Z"/></g></g></g></svg>