<svg xmlns="http://www.w3.org/2000/svg" viewBox="0 0 3659.75 846.35"><defs><style>.cls-1{opacity:0.12;}.cls-2{fill:#fff;}</style></defs><title>L5 P4</title><g id="Layer_2" data-name="Layer 2"><g id="Layer_1-2" data-name="Layer 1"><g id="_2jYcwI.tif" data-name="2jYcwI.tif" class="cls-1"><path class="cls-2" d="M3659.75,91.53V846.35H0Q0,597.14,0,347.93q0-166.3,0-332.6C0,.29.39-.37,15.64.1c35.53,1.09,71.11,1.71,106.56,4C197.49,9.09,271.55,22,344.73,40.37c39.72,10,79.58,19.57,119.67,27.92C527.64,81.46,591.73,87.61,656.28,90c69.56,2.58,139.06,2.13,208.45-3A1143.84,1143.84,0,0,0,1081.3,49.75C1201.2,17.07,1323.11-.12,1447.37.19c40.3.1,80.6,1.73,120.87,3.31a1074.26,1074.26,0,0,1,233.12,35.43c108.43,28.68,218,49.94,330.42,51.77,60.27,1,120.64-.79,180.89-3.19,76.11-3,151-16.09,224.41-35.8C2651.4,21,2767.26,1.66,2885.76.48,2930.52,0,2975.31,1,3020,2.39c26,.83,51.93,3.5,77.82,6.09,70,7,138.5,22.36,206.51,40,59.71,15.45,119.94,29.12,181.42,34.29C3543.62,87.59,3601.76,88.74,3659.75,91.53Z"/></g></g></g></svg>