<svg xmlns="http://www.w3.org/2000/svg" viewBox="0 0 3657.1 295.23"><defs><style>.cls-1{opacity:0.12;}.cls-2{fill:#fff;}</style></defs><title>L5 P1</title><g id="Layer_2" data-name="Layer 2"><g id="Layer_1-2" data-name="Layer 1"><g id="Zpvso9.tif" class="cls-1"><path class="cls-2" d="M878.09,0h72.38c2.79.53,5.56,1.42,8.37,1.53,59,2.41,115.52,15.75,169.78,38.57,64.15,27,129.8,47.1,200,50.14,42.24,1.83,84.26,1.23,126.24-3.73,49.9-5.9,97.19-21,143.36-40.2,47.92-19.91,96.89-36.09,148.82-41.66,15.09-1.62,30.2-3.11,45.29-4.65h72.38c2.79.53,5.56,1.42,8.37,1.53,59,2.41,115.52,15.75,169.78,38.58,64.15,27,129.8,47.1,200,50.14,42.24,1.83,84.26,1.23,126.24-3.73,49.9-5.9,97.19-21,143.36-40.2,47.92-19.91,96.89-36.09,148.82-41.66,15.09-1.62,30.2-3.11,45.29-4.65H2779c2.79.53,5.56,1.42,8.37,1.53,59,2.4,115.52,15.75,169.78,38.57,64.15,27,129.8,47.1,200,50.14,42.24,1.83,84.26,1.24,126.24-3.73,49.9-5.9,97.19-21,143.36-40.2,47.92-19.91,96.89-36.1,148.82-41.66,15.09-1.62,30.2-3.11,45.29-4.65h36.19c-.15,5.71-.44,11.42-.44,17.13q0,127.6,0,255.2c0,24.31,1.64,22.44-22.89,22.44q-1806.41,0-3612.82,0c-7,0-14,.29-20.93.44V0H36.19c2.79.53,5.56,1.42,8.37,1.53,59,2.4,115.52,15.75,169.78,38.57,64.15,27,129.8,47.1,200,50.14,42.24,1.83,84.26,1.23,126.24-3.73,49.9-5.9,97.19-21,143.36-40.2,47.92-19.91,96.89-36.09,148.82-41.66C847.88,3,863,1.55,878.09,0Z"/></g></g></g></svg>