<svg xmlns="http://www.w3.org/2000/svg" viewBox="0 0 3655.02 477.82"><defs><style>.cls-1{opacity:0.12;}.cls-2{fill:#fff;}</style></defs><title>L5 P2</title><g id="Layer_2" data-name="Layer 2"><g id="Layer_1-2" data-name="Layer 1"><g id="ueNIWR.tif" class="cls-1"><path class="cls-2" d="M2031.19,0h116.12c2.14.5,4.27,1.34,6.43,1.44,71.4,3.44,139.14,22.59,206.07,46.33a816.15,816.15,0,0,0,96.71,28c74.2,16.37,149.49,17.22,225,12C2743.73,83.43,2803.5,69,2862,47.9c50.45-18.19,101.45-34.58,154.95-41.42C3036,4,3055.23,2.15,3074.39,0h116.12a65.37,65.37,0,0,0,8.34,1.51c62.59,3.38,122.92,17.3,181.8,38.37,46.61,16.68,93.29,33.78,142.61,40.23,39.23,5.13,78.84,7.32,118.28,10.8,13.36,1.18,13.44,1.16,13.45,14.63q0,112.3,0,224.61,0,67.1,0,134.19c0,12.58-.9,13.33-13.68,13.47-1.59,0-3.17,0-4.76,0H0V0H59c2.14.5,4.27,1.34,6.43,1.45,67.79,3.38,133,19.15,196,43.32,83.41,32,169.83,45.88,258.69,46.12,25.3.07,50.63-1.93,75.91-3.54,55.73-3.56,109.65-16,162.28-34.27C814,33.69,869.64,13.88,928.6,6.47c19.13-2.4,38.32-4.33,57.49-6.47h116.12a66.15,66.15,0,0,0,8.33,1.51c61.23,3.43,120.29,16.94,178.07,37.17,32,11.2,64.18,22.16,96.89,30.95,69.11,18.58,139.79,21.81,211.1,20.29,80.85-1.72,158.31-18.32,233.82-46.33C1876,26.69,1922.51,13.1,1970.9,6.94,1991,4.38,2011.09,2.3,2031.19,0Z"/></g></g></g></svg>