<svg xmlns="http://www.w3.org/2000/svg" viewBox="0 0 3659.75 1395.28"><defs><style>.cls-1{opacity:0.12;}.cls-2{fill:#fff;}</style></defs><title>L5 P7</title><g id="Layer_2" data-name="Layer 2"><g id="Layer_1-2" data-name="Layer 1"><g id="_0Cz9GI.tif" data-name="0Cz9GI.tif" class="cls-1"><path class="cls-2" d="M2691.44,0h106.74a20.92,20.92,0,0,0,4.53,1.31c61.35,3.48,119.13,21,175.25,44.84A549.66,549.66,0,0,0,3179.42,90c86.94,2.41,170.62-10.1,250.75-45.13,41.36-18.08,84.2-32.15,129.14-38.64,15.66-2.26,31.37-4.14,47.05-6.2h53.37V1395.28H17.54C0,1395.28,0,1395.26,0,1378Q0,689,0,0H53.37a20.92,20.92,0,0,0,4.54,1.31c61.35,3.48,119.13,21,175.25,44.84A549.63,549.63,0,0,0,434.62,90c86.94,2.41,170.62-10.1,250.75-45.13,41.36-18.08,84.2-32.15,129.14-38.64,15.66-2.26,31.37-4.14,47.05-6.2H968.31a20.92,20.92,0,0,0,4.54,1.31c61.35,3.48,119.13,21,175.25,44.84A549.62,549.62,0,0,0,1349.55,90c86.94,2.41,170.62-10.1,250.75-45.13,41.36-18.08,84.2-32.15,129.14-38.64,15.66-2.26,31.37-4.14,47.05-6.2h106.74a20.92,20.92,0,0,0,4.54,1.31c61.35,3.48,119.13,21,175.25,44.84A549.61,549.61,0,0,0,2264.49,90c86.94,2.41,170.62-10.1,250.75-45.13,41.36-18.08,84.2-32.15,129.14-38.64C2660,3.94,2675.76,2.06,2691.44,0Z"/></g></g></g></svg>