<svg xmlns="http://www.w3.org/2000/svg" xmlns:xlink="http://www.w3.org/1999/xlink" viewBox="0 0 4626.65 4518.38"><defs><style>.cls-1{fill:#212121;}.cls-2{fill:#ffce03;stroke:#fbb03b;}.cls-10,.cls-2,.cls-3{stroke-miterlimit:10;}.cls-2,.cls-3{opacity:0.5;}.cls-3{fill:#7ed1d2;stroke:#65c8d0;}.cls-10,.cls-11,.cls-14,.cls-4,.cls-6{fill:#fff;}.cls-4,.cls-5{opacity:0.12;}.cls-7,.cls-8{opacity:0.3;}.cls-7{fill:url(#radial-gradient);}.cls-8{fill:url(#radial-gradient-2);}.cls-9{font-size:325.58px;}.cls-12,.cls-17,.cls-18,.cls-9{fill:#f2f2f2;}.cls-11,.cls-12,.cls-17,.cls-18,.cls-9{font-family:STYuanti-SC-Light, Yuanti SC;}.cls-10{stroke:#fff;}.cls-11{font-size:30px;}.cls-12{font-size:43.29px;}.cls-13,.cls-18{font-size:80px;}.cls-14,.cls-15,.cls-16,.cls-17{font-size:40px;}.cls-16{letter-spacing:0em;}</style><radialGradient id="radial-gradient" cx="2317.86" cy="2259.19" r="3004.51" gradientUnits="userSpaceOnUse"><stop offset="0" stop-color="#fbb03b"/><stop offset="1" stop-opacity="0"/></radialGradient><radialGradient id="radial-gradient-2" cx="-5031.3" cy="8469.61" r="3004.5" gradientTransform="translate(-2722.51 10728.8) rotate(180)" gradientUnits="userSpaceOnUse"><stop offset="0" stop-color="aqua"/><stop offset="1" stop-opacity="0"/></radialGradient></defs><title>OVERALL</title><g id="Layer_2" data-name="Layer 2"><g id="Layer_1-2" data-name="Layer 1"><rect class="cls-1" x="1351.58" y="1267.6" width="1923.33" height="2891.34"/><rect class="cls-2" x="2313.88" y="1267.6" width="960.59" height="2891.34"/><rect class="cls-3" x="1352.02" y="1267.6" width="960.59" height="2891.34"/><rect class="cls-4" x="484.01" y="1578.85" width="3659.75" height="1518.5"/><g id="Zpvso9.tif" class="cls-5"><path class="cls-6" d="M1363.42,2802.11h72.38c2.79.53,5.56,1.42,8.37,1.53,59,2.41,115.52,15.75,169.78,38.57,64.15,27,129.8,47.1,200,50.14,42.24,1.83,84.26,1.23,126.24-3.73,49.9-5.9,97.19-21,143.36-40.2,47.92-19.91,96.89-36.09,148.82-41.66,15.09-1.62,30.2-3.11,45.29-4.65h72.38c2.79.53,5.56,1.42,8.37,1.53,59,2.41,115.52,15.75,169.78,38.58,64.15,27,129.8,47.1,200,50.14,42.24,1.83,84.26,1.23,126.24-3.73,49.9-5.9,97.19-21,143.36-40.2,47.92-19.91,96.89-36.09,148.82-41.66,15.09-1.62,30.2-3.11,45.29-4.65h72.38c2.79.53,5.56,1.42,8.37,1.53,59,2.4,115.52,15.75,169.78,38.57,64.15,27,129.8,47.1,200,50.14,42.24,1.83,84.26,1.24,126.24-3.73,49.9-5.9,97.19-21,143.36-40.2,47.92-19.91,96.89-36.1,148.82-41.66,15.09-1.62,30.2-3.11,45.29-4.65h36.19c-.15,5.71-.44,11.42-.44,17.13q0,127.6,0,255.2c0,24.31,1.64,22.44-22.89,22.44q-1806.41,0-3612.82,0c-7,0-14,.29-20.93.44V2802.11h36.19c2.79.53,5.56,1.42,8.37,1.53,59,2.4,115.52,15.75,169.78,38.57,64.15,27,129.8,47.1,200,50.14,42.24,1.83,84.26,1.23,126.24-3.73,49.9-5.9,97.19-21,143.36-40.2,47.92-19.91,96.89-36.09,148.82-41.66C1333.22,2805.14,1348.32,2803.66,1363.42,2802.11Z"/></g><g id="ueNIWR.tif" class="cls-5"><path class="cls-6" d="M2517.57,2619.52h116.12c2.14.5,4.27,1.34,6.43,1.44,71.4,3.44,139.14,22.59,206.07,46.33a816.15,816.15,0,0,0,96.71,28c74.2,16.37,149.49,17.22,225,12,62.17-4.31,121.95-18.76,180.4-39.84,50.45-18.19,101.45-34.58,154.95-41.42,19.13-2.44,38.32-4.34,57.49-6.48h116.12a65.37,65.37,0,0,0,8.34,1.51c62.59,3.38,122.92,17.3,181.8,38.37,46.61,16.68,93.29,33.78,142.61,40.23,39.23,5.13,78.84,7.32,118.28,10.8,13.36,1.18,13.44,1.16,13.45,14.63q0,112.3,0,224.61,0,67.1,0,134.19c0,12.58-.9,13.33-13.68,13.47-1.59,0-3.17,0-4.76,0H486.38V2619.52h59c2.14.5,4.27,1.34,6.43,1.45,67.79,3.38,133,19.15,196,43.32,83.41,32,169.83,45.88,258.69,46.12,25.3.07,50.63-1.93,75.91-3.54,55.73-3.56,109.65-16,162.28-34.27,55.7-19.39,111.29-39.19,170.25-46.6,19.13-2.4,38.32-4.33,57.49-6.47h116.12a66.15,66.15,0,0,0,8.33,1.51c61.23,3.43,120.29,16.94,178.07,37.17,32,11.2,64.18,22.16,96.89,30.95,69.11,18.58,139.79,21.81,211.1,20.29,80.85-1.72,158.31-18.32,233.82-46.33,45.54-16.89,92.09-30.49,140.48-36.65C2477.34,2623.9,2497.47,2621.82,2517.57,2619.52Z"/></g><g id="DHw5Ik.tif" class="cls-5"><path class="cls-6" d="M4141.92,2434.7v662.65h-3656q0-286.07,0-572.14c0-26.34.19-52.68-.08-79-.08-8.11,2.94-11.69,11.16-11.3,28.5,1.37,57,1.9,85.5,3.91,71.91,5.07,141.75,20.78,210.28,42.69,89.46,28.6,181,44.31,275.05,44.68,54.28.22,108.44-.54,162.44-6.92,64-7.56,125.65-24.77,186.94-43.64,82.73-25.48,167.24-39.25,253.89-39.3,27.24,0,54.5-.61,81.72.16,24.07.68,48.16,2.24,72.13,4.54,64.09,6.16,126.29,21.33,187.5,40.81,88.88,28.28,179.77,43.75,273.2,44.37,66.07.44,131.93-1.06,197.3-11.81,57.48-9.45,112.91-26.83,168.56-43.35,58-17.22,117.19-28.78,177.55-32.2,44.25-2.51,88.71-3.19,133-2.12,38.28.92,76.61,4.25,114.67,8.66,57.91,6.71,113.61,23.59,169.09,40.8,74.06,23,149.78,36.76,227.2,39.16,45.29,1.4,90.72.19,136-1.34,62.74-2.12,124.13-13.43,184.51-30.47,45.79-12.93,91.4-26.65,137.62-37.86C4000.34,2438.87,4071.15,2436.37,4141.92,2434.7Z"/></g><g id="_2jYcwI.tif" data-name="2jYcwI.tif" class="cls-5"><path class="cls-6" d="M4143.76,2342.52v754.82H484q0-249.21,0-498.42,0-166.3,0-332.6c0-15,.38-15.7,15.63-15.24,35.53,1.09,71.11,1.71,106.56,4,75.29,4.95,149.35,17.85,222.53,36.24,39.72,10,79.58,19.57,119.67,27.92,63.23,13.17,127.33,19.32,191.88,21.71,69.56,2.58,139.06,2.13,208.45-3a1143.84,1143.84,0,0,0,216.57-37.24c119.9-32.68,241.81-49.87,366.06-49.56,40.3.1,80.6,1.73,120.87,3.31a1074.26,1074.26,0,0,1,233.12,35.43c108.43,28.68,218,49.94,330.42,51.77,60.27,1,120.64-.79,180.89-3.19,76.11-3,151-16.09,224.41-35.8,114.31-30.68,230.17-50.05,348.68-51.24,44.75-.45,89.54.48,134.28,1.91,26,.83,51.93,3.5,77.82,6.09,70,7,138.5,22.36,206.51,40,59.71,15.45,119.94,29.12,181.42,34.29C4027.63,2338.58,4085.76,2339.73,4143.76,2342.52Z"/></g><g id="fw8rYi.tif" class="cls-5"><path class="cls-6" d="M4143.82,2068v1029.3H484.08q0-505.51,0-1011c0-2.22.2-4.46,0-6.67-.86-9.18,3.36-12.41,12.33-11.94,27.88,1.48,55.81,2.16,83.68,3.85a742,742,0,0,1,151,25.25c39.82,10.88,79.24,23.23,119.09,34,63.12,17,127.58,24.86,192.88,27.41,65.51,2.56,130.75.47,195.77-7.65,56.31-7,111-21.52,164.87-38.73,86.87-27.73,175.83-42.7,266.91-43.61,42.81-.42,85.69,1.31,128.47,3.42,52.19,2.57,103.45,11.8,153.79,25.72,38.87,10.74,77.4,22.71,116.33,33.22,63.43,17.13,128.18,25.08,193.81,27.63s130.75.46,195.77-7.66c56.31-7,111-21.52,164.86-38.73,86.87-27.73,175.83-42.7,266.92-43.6,42.81-.42,85.69,1.31,128.47,3.42,52.19,2.57,103.45,11.81,153.79,25.72,39.18,10.83,78,22.87,117.26,33.44,63.13,17,127.58,24.85,192.88,27.4,65.51,2.56,130.74.4,195.77-7.64,62.06-7.68,121.84-25.16,181.33-43.55C3952.52,2078.41,4047.27,2066.81,4143.82,2068Z"/></g><g id="JibdNO.tif" class="cls-5"><path class="cls-6" d="M4143.84,1976.54v1120.8H502.58c-18.48,0-18.49,0-18.49-18.25q0-588,0-1176a56.66,56.66,0,0,0,0-5.71c-.94-9.25,2.61-13.44,12.43-12.81,16.14,1,32.34,1.21,48.51,1.95,65,3,127.48,17.42,188.63,39.11,30.21,10.72,60.7,21,91.66,29.19,72.43,19.22,146.37,22.82,221,20.12,72.45-2.62,142.6-15.76,210.32-41.12,73.1-27.38,148-45.74,226.23-48.63,97.15-3.59,193,3.1,285.42,36.68,29.83,10.83,60,20.89,90.48,29.74,51.17,14.87,103.68,21.1,156.92,23.45,48.4,2.13,96.43-.21,144.42-5.71,53.06-6.08,103.5-22.38,153.86-39.28,32.78-11,65.78-21.87,99.4-29.7,72.64-16.9,146.54-17.88,220.72-14.12,68.55,3.48,134.13,19.35,198.7,41.92,38.59,13.49,78,25.55,117.88,34.2,62,13.44,125.12,14.92,188.54,12.57,74.44-2.77,146.44-16.76,215.59-43.67,110.19-42.88,224.31-52.82,340.94-44.13,58.29,4.34,114.61,17.7,169.91,36.7,40.19,13.81,80.92,26.46,122.1,36.85C4038.83,1973.63,4091.44,1975.05,4143.84,1976.54Z"/></g><g id="_0Cz9GI.tif" data-name="0Cz9GI.tif" class="cls-5"><path class="cls-6" d="M3175.45,1702.06h106.74a20.92,20.92,0,0,0,4.53,1.31c61.35,3.48,119.13,21,175.25,44.84A549.66,549.66,0,0,0,3663.43,1792c86.94,2.41,170.62-10.1,250.75-45.13,41.36-18.08,84.2-32.15,129.14-38.64,15.66-2.26,31.37-4.14,47.05-6.2h53.37V3097.34H501.55c-17.51,0-17.53,0-17.53-17.3q0-689,0-1378h53.37a20.92,20.92,0,0,0,4.54,1.31c61.35,3.48,119.13,21,175.25,44.84A549.63,549.63,0,0,0,918.62,1792c86.94,2.41,170.62-10.1,250.75-45.13,41.36-18.08,84.2-32.15,129.14-38.64,15.66-2.26,31.37-4.14,47.05-6.2h106.74a20.92,20.92,0,0,0,4.54,1.31c61.35,3.48,119.13,21,175.25,44.84A549.62,549.62,0,0,0,1833.56,1792c86.94,2.41,170.62-10.1,250.75-45.13,41.36-18.08,84.2-32.15,129.14-38.64,15.66-2.26,31.37-4.14,47.05-6.2h106.74a20.92,20.92,0,0,0,4.54,1.31c61.35,3.48,119.13,21,175.25,44.84A549.61,549.61,0,0,0,2748.5,1792c86.94,2.41,170.62-10.1,250.75-45.13,41.36-18.08,84.2-32.15,129.14-38.64C3144.05,1706,3159.76,1704.12,3175.45,1702.06Z"/></g><path class="cls-1" d="M1428,1267.6V4158.94H3198.53V1267.6Zm885.28,1657.1c-371.94,0-673.46-301.52-673.46-673.46s301.52-673.46,673.46-673.46,673.46,301.52,673.46,673.46S2685.19,2924.7,2313.25,2924.7Z"/><path class="cls-7" d="M2313.32,4517.72q27,.63,54.13.66c1247.72,0,2259.19-1011.47,2259.19-2259.19S3615.17,0,2367.45,0q-27.14,0-54.13.66Z"/><path class="cls-8" d="M2313.32.66q-27-.63-54.13-.66C1011.48,0,0,1011.47,0,2259.19S1011.48,4518.38,2259.19,4518.38q27.14,0,54.13-.66Z"/><text class="cls-9" transform="translate(1833.42 2336.67)">82°</text><text class="cls-9" transform="translate(2410.58 2336.67)">32°</text><path class="cls-6" d="M2094.09,1614.41c6.72-2.71,13.57-5.1,20.45-7.37s13.82-4.38,20.79-6.37q20.93-5.92,42.24-10.38a710.7,710.7,0,0,1,86.09-12.68,700.45,700.45,0,0,1,87.07-1.88,668.07,668.07,0,0,1,86.65,9.24,645.5,645.5,0,0,1,165.91,52.52c52.64,24.88,101.78,56.92,146.51,94.11s85,79.93,118.74,127.36a635.79,635.79,0,0,1,80.53,154.27A677,677,0,0,1,2986,2183.14a709.64,709.64,0,0,1,2.1,87c-.55,14.49-1.54,29-3.06,43.39q-1.16,10.81-2.75,21.57c-1.07,7.17-2.26,14.32-3.79,21.4,1.38-7.11,2.42-14.28,3.34-21.47s1.67-14.39,2.29-21.6q1.92-21.63,2.38-43.35a707.35,707.35,0,0,0-3.44-86.67,697.84,697.84,0,0,0-13.86-85.54,669.1,669.1,0,0,0-24.49-83.05,649.28,649.28,0,0,0-35.21-79,636.76,636.76,0,0,0-45.55-73.52,660.43,660.43,0,0,0-54.94-66.79,703.87,703.87,0,0,0-63-59.27,715.2,715.2,0,0,0-69.63-51.36,671.86,671.86,0,0,0-75.48-42.24,647.6,647.6,0,0,0-80.36-32,659.24,659.24,0,0,0-83.94-21,692.8,692.8,0,0,0-172.68-9,708.45,708.45,0,0,0-86,11.31q-21.31,4.15-42.32,9.7-10.5,2.76-20.89,5.93C2107.75,1609.6,2100.86,1611.84,2094.09,1614.41Z"/><circle class="cls-10" cx="2793.82" cy="1778.14" r="14.27"/><path class="cls-6" d="M2180.85,2962.61a238,238,0,0,0,31.56,14.11c5.38,2,10.84,3.84,16.32,5.54l8.26,2.42c2.77.74,5.56,1.42,8.33,2.13a280.06,280.06,0,0,0,33.78,6.15l4.26.52,2.13.27,2.14.17,8.55.66c2.85.29,5.71.27,8.57.35l8.57.2,8.57-.21c2.86-.08,5.72-.06,8.57-.35l8.55-.66,2.14-.17,2.13-.27,4.26-.53,4.26-.51c1.42-.17,2.84-.33,4.25-.6l8.47-1.44,2.12-.36,2.1-.45,4.2-.91c2.8-.59,5.62-1.13,8.39-1.88s5.56-1.39,8.34-2.13l8.26-2.42c5.48-1.7,10.94-3.5,16.32-5.54a238.22,238.22,0,0,0,31.56-14.1,184.41,184.41,0,0,1-30.45,16.83,240.71,240.71,0,0,1-32.83,11.89,249,249,0,0,1-138.38,0,240.76,240.76,0,0,1-32.83-11.89A184.58,184.58,0,0,1,2180.85,2962.61Z"/><circle class="cls-10" cx="2313.32" cy="2998.13" r="11.86"/><line class="cls-6" x1="2313.32" y1="3015.99" x2="2313.32" y2="3526.38"/><polygon class="cls-6" points="2315.32 3015.99 2313.32 3526.38 2311.32 3015.99 2315.32 3015.99"/><line class="cls-6" x1="2313.32" y1="2112.89" x2="2313.32" y2="2405.49"/><polygon class="cls-6" points="2318.32 2112.89 2313.32 2405.49 2308.32 2112.89 2318.32 2112.89"/><line class="cls-6" x1="2313.32" y1="4066.81" x2="2313.32" y2="3674.49"/><polygon class="cls-6" points="2311.32 4066.81 2313.32 3674.49 2315.32 4066.81 2311.32 4066.81"/><text class="cls-11" transform="translate(1938.32 2534.67)">当前咱的是五级过滤，五个滤芯，基本都这样，有在后面<tspan x="0" y="50">加特殊要求的，比如加一个矿物质的。当前咱的是五级过</tspan><tspan x="0" y="100">滤。当前咱的是五级过滤，五个滤芯，基本都这样，有在</tspan><tspan x="90" y="150">后面加特殊要求的，比如加一个矿物质的。</tspan></text><text class="cls-12" transform="translate(1885.27 3150.27)">室内温度<tspan class="cls-13"><tspan x="-101.5" y="120">32 </tspan><tspan class="cls-14" x="5.94" y="120">°C</tspan><tspan class="cls-6" x="40.78" y="120" xml:space="preserve">  </tspan><tspan x="80.78" y="120">|</tspan><tspan class="cls-6" x="99.34" y="120" xml:space="preserve">  </tspan><tspan x="139.34" y="120">64 </tspan><tspan class="cls-14" x="245.1" y="120">°F</tspan></tspan></text><text class="cls-12" transform="translate(1885.27 3387.75)">室内湿度<tspan class="cls-13"><tspan x="14.34" y="120">23 </tspan><tspan class="cls-15" x="121.78" y="120">%</tspan></tspan></text><text class="cls-12" transform="translate(1885.27 3625.24)">室内日照<tspan class="cls-13"><tspan x="-4.22" y="120">4.6 </tspan><tspan class="cls-16" x="121.78" y="120">hrs</tspan></tspan></text><text class="cls-12" transform="translate(1885.27 3862.72)">室内噪声<tspan class="cls-13"><tspan x="8.82" y="120">20 </tspan><tspan class="cls-15" x="117.54" y="120">DB</tspan></tspan></text><text class="cls-12" transform="translate(2568.22 3150.27)">室外温度<tspan class="cls-13"><tspan x="-101.5" y="120">32 </tspan><tspan class="cls-14" x="5.94" y="120">°C</tspan><tspan class="cls-6" x="40.78" y="120" xml:space="preserve">  </tspan><tspan x="80.78" y="120">|</tspan><tspan class="cls-6" x="99.34" y="120" xml:space="preserve">  </tspan><tspan x="139.34" y="120">64 </tspan><tspan class="cls-14" x="245.1" y="120">°F</tspan></tspan></text><text class="cls-12" transform="translate(2566.15 3387.75)">室外湿度<tspan class="cls-13"><tspan x="14.34" y="120">23 </tspan><tspan class="cls-15" x="121.78" y="120">%</tspan></tspan></text><text class="cls-12" transform="translate(2566.15 3625.24)">室外日照<tspan class="cls-13"><tspan x="-4.22" y="120">4.6 </tspan><tspan class="cls-16" x="121.78" y="120">hrs</tspan></tspan></text><text class="cls-12" transform="translate(2566.15 3862.72)">室外噪声<tspan class="cls-13"><tspan x="8.82" y="120">20 </tspan><tspan class="cls-15" x="117.54" y="120">DB</tspan></tspan></text><text class="cls-17" transform="translate(2157.99 1519.54)">LIFE-STYLE INDEX</text><text class="cls-18" transform="translate(1993.32 1443.4)">健康生活综合指数</text></g></g></svg>