<svg id="Layer_1" data-name="Layer 1" xmlns="http://www.w3.org/2000/svg" xmlns:xlink="http://www.w3.org/1999/xlink" viewBox="0 0 5442.52 2891.34"><defs><style>.cls-1,.cls-27{fill:#212121;}.cls-2,.cls-25,.cls-3,.cls-33,.cls-36{opacity:0.3;}.cls-2{fill:url(#radial-gradient);}.cls-3{fill:url(#radial-gradient-2);}.cls-4{font-size:43.29px;}.cls-10,.cls-11,.cls-12,.cls-23,.cls-29,.cls-30,.cls-4{fill:#f2f2f2;}.cls-10,.cls-11,.cls-12,.cls-15,.cls-21,.cls-23,.cls-26,.cls-29,.cls-30,.cls-35,.cls-38,.cls-4{font-family:STYuanti-SC-Light, Yuanti SC;}.cls-11,.cls-5{font-size:80px;}.cls-15,.cls-20,.cls-21,.cls-31,.cls-6,.cls-7{fill:#fff;}.cls-10,.cls-6,.cls-8,.cls-9{font-size:40px;}.cls-9{letter-spacing:0em;}.cls-12{font-size:325.58px;}.cls-13,.cls-14,.cls-16,.cls-25,.cls-26{fill:#7ed1d2;}.cls-14,.cls-16,.cls-18,.cls-19,.cls-24,.cls-25,.cls-26,.cls-27{stroke:#65c8d0;}.cls-14,.cls-16,.cls-17,.cls-18,.cls-19,.cls-22,.cls-24,.cls-25,.cls-26,.cls-27,.cls-32,.cls-34,.cls-37{stroke-miterlimit:10;}.cls-15,.cls-23{font-size:30px;}.cls-16,.cls-17{opacity:0.08;}.cls-17{fill:#ffce03;stroke:#fbb03b;}.cls-18,.cls-19,.cls-22,.cls-24,.cls-32,.cls-34,.cls-37{fill:none;}.cls-18,.cls-22,.cls-24,.cls-34{stroke-width:2px;}.cls-19,.cls-32{stroke-width:3px;}.cls-20{font-size:50px;}.cls-20,.cls-31{font-family:STYuanti-SC-Regular, Yuanti SC;}.cls-21{font-size:100px;}.cls-22{stroke:#7ed1d2;}.cls-24{stroke-linecap:round;}.cls-26,.cls-35,.cls-38{font-size:60.91px;}.cls-27{opacity:0.8;}.cls-28{font-size:15px;}.cls-29{font-size:364.16px;}.cls-30{font-size:204.21px;}.cls-31{font-size:108.91px;}.cls-32{stroke:#fff;}.cls-33,.cls-35{fill:#ffd965;}.cls-34{stroke:#ffd965;}.cls-36,.cls-38{fill:#ce3700;}.cls-37{stroke:#ce3700;}</style><radialGradient id="radial-gradient" cx="2725.62" cy="903.78" r="3004.51" gradientUnits="userSpaceOnUse"><stop offset="0" stop-color="#fbb03b"/><stop offset="1" stop-opacity="0"/></radialGradient><radialGradient id="radial-gradient-2" cx="1062.51" cy="-10582.95" r="3004.5" gradientTransform="translate(3780.47 -9679.17) rotate(180)" gradientUnits="userSpaceOnUse"><stop offset="0" stop-color="aqua"/><stop offset="1" stop-opacity="0"/></radialGradient></defs><title>FINAL</title><rect class="cls-1" x="1759.6" width="1923.33" height="2891.34"/><rect class="cls-1" width="1770.57" height="2891.34"/><rect class="cls-1" x="3671.95" width="1770.57" height="2891.34"/><path class="cls-2" d="M2721.09,3162.31q27,.63,54.13.66c1247.72,0,2259.19-1011.47,2259.19-2259.19S4022.93-1355.41,2775.22-1355.41q-27.14,0-54.13.66Z"/><path class="cls-3" d="M2722.49-1354.75q-27-.63-54.13-.66c-1247.72,0-2259.19,1011.47-2259.19,2259.19S1420.64,3163,2668.36,3163q27.14,0,54.13-.66Z"/><text class="cls-4" transform="translate(2293.21 1875.28)">室内温度<tspan class="cls-5"><tspan x="-101.5" y="120">32 </tspan><tspan class="cls-6" x="5.94" y="120">°C</tspan><tspan class="cls-7" x="40.78" y="120" xml:space="preserve">  </tspan><tspan x="80.78" y="120">|</tspan><tspan class="cls-7" x="99.34" y="120" xml:space="preserve">  </tspan><tspan x="139.34" y="120">64 </tspan><tspan class="cls-6" x="245.1" y="120">°F</tspan></tspan></text><text class="cls-4" transform="translate(2293.21 2112.76)">室内湿度<tspan class="cls-5"><tspan x="14.34" y="120">23 </tspan><tspan class="cls-8" x="121.78" y="120">%</tspan></tspan></text><text class="cls-4" transform="translate(2293.21 2350.25)">室内日照<tspan class="cls-5"><tspan x="-4.22" y="120">4.6 </tspan><tspan class="cls-9" x="121.78" y="120">hrs</tspan></tspan></text><text class="cls-4" transform="translate(2293.21 2587.73)">室内噪声<tspan class="cls-5"><tspan x="8.82" y="120">20 </tspan><tspan class="cls-8" x="117.54" y="120">DB</tspan></tspan></text><text class="cls-4" transform="translate(2976.16 1875.28)">室外温度<tspan class="cls-5"><tspan x="-101.5" y="120">32 </tspan><tspan class="cls-6" x="5.94" y="120">°C</tspan><tspan class="cls-7" x="40.78" y="120" xml:space="preserve">  </tspan><tspan x="80.78" y="120">|</tspan><tspan class="cls-7" x="99.34" y="120" xml:space="preserve">  </tspan><tspan x="139.34" y="120">64 </tspan><tspan class="cls-6" x="245.1" y="120">°F</tspan></tspan></text><text class="cls-4" transform="translate(2974.09 2112.77)">室外湿度<tspan class="cls-5"><tspan x="14.34" y="120">23 </tspan><tspan class="cls-8" x="121.78" y="120">%</tspan></tspan></text><text class="cls-4" transform="translate(2974.09 2350.25)">室外日照<tspan class="cls-5"><tspan x="-4.22" y="120">4.6 </tspan><tspan class="cls-9" x="121.78" y="120">hrs</tspan></tspan></text><text class="cls-4" transform="translate(2974.09 2587.73)">室外噪声<tspan class="cls-5"><tspan x="8.82" y="120">20 </tspan><tspan class="cls-8" x="117.54" y="120">DB</tspan></tspan></text><text class="cls-10" transform="translate(2565.92 268.35)">LIFE-STYLE INDEX</text><text class="cls-11" transform="translate(2401.26 192.21)">健康生活综合指数</text><text class="cls-12" transform="translate(2216.5 1086.94)">82°</text><text class="cls-12" transform="translate(2793.66 1086.94)">32°</text><path class="cls-13" d="M2588.78,1691.53a238,238,0,0,0,31.56,14.11c5.38,2,10.84,3.84,16.32,5.54l8.26,2.42c2.77.74,5.56,1.42,8.34,2.13a280,280,0,0,0,33.78,6.15l4.26.52,2.13.27,2.14.17,8.55.66c2.85.29,5.71.27,8.57.35l8.57.2,8.57-.21c2.86-.08,5.72-.06,8.57-.35l8.55-.66,2.14-.17,2.13-.27,4.26-.53,4.26-.51c1.42-.17,2.84-.33,4.25-.6l8.47-1.44,2.12-.36,2.1-.45,4.2-.9c2.8-.59,5.62-1.13,8.39-1.88s5.56-1.39,8.34-2.13l8.26-2.42c5.48-1.7,10.95-3.5,16.32-5.54a238.25,238.25,0,0,0,31.56-14.1,184.44,184.44,0,0,1-30.45,16.83,240.74,240.74,0,0,1-32.83,11.89,249,249,0,0,1-138.38,0,240.73,240.73,0,0,1-32.83-11.89A184.58,184.58,0,0,1,2588.78,1691.53Z"/><circle class="cls-14" cx="2721.26" cy="1727.05" r="11.86"/><path class="cls-13" d="M2493.32,386.43c13.08-5.21,26.52-9.46,40-13.36q10.16-2.89,20.42-5.39t20.6-4.7a687,687,0,0,1,83.6-12.33,679,679,0,0,1,84.56-1.84,646.63,646.63,0,0,1,84.16,9,629,629,0,0,1,161.15,51c6.34,3.12,12.76,6.08,19,9.4,3.13,1.64,6.29,3.23,9.4,4.9l9.29,5.11,4.64,2.57,4.58,2.67,9.15,5.34,9,5.57c3,1.85,6,3.7,9,5.66a714.31,714.31,0,0,1,68.28,50.16c43.38,36.19,82.52,77.63,115.32,123.7a617.38,617.38,0,0,1,78.2,149.83,657.25,657.25,0,0,1,35.8,165,689.14,689.14,0,0,1,2,84.48c-.53,14.08-1.5,28.14-3,42.14q-1.13,10.5-2.67,20.95c-1,7-2.2,13.91-3.68,20.78,1.34-6.91,2.34-13.87,3.24-20.85s1.62-14,2.22-21q1.86-21,2.3-42.1a686.8,686.8,0,0,0-3.36-84.16,667.07,667.07,0,0,0-37.27-163.7,630.83,630.83,0,0,0-34.19-76.74,618.32,618.32,0,0,0-44.23-71.39,641.48,641.48,0,0,0-53.35-64.85,683.5,683.5,0,0,0-61.19-57.54,708.4,708.4,0,0,0-67.62-49.85c-2.91-2-5.89-3.78-8.87-5.63l-8.93-5.54-9.06-5.31-4.53-2.66-4.59-2.55-9.19-5.08c-3.08-1.66-6.21-3.24-9.31-4.87-6.18-3.3-12.52-6.28-18.79-9.4-3.16-1.52-6.35-2.95-9.53-4.42l-4.77-2.2c-1.59-.73-3.21-1.4-4.81-2.1l-9.65-4.16-9.74-3.94-4.87-2-4.92-1.85c-3.28-1.22-6.55-2.49-9.85-3.67-6.62-2.3-13.21-4.67-19.9-6.75s-13.39-4.13-20.1-6.15c-6.76-1.84-13.5-3.76-20.31-5.41s-13.63-3.25-20.46-4.82c-6.87-1.4-13.72-2.87-20.63-4.07a671.14,671.14,0,0,0-167.67-8.82,684.74,684.74,0,0,0-83.51,11q-10.35,2-20.62,4.36t-20.47,5C2520,377.54,2506.51,381.5,2493.32,386.43Z"/><circle class="cls-14" cx="3172.84" cy="545.42" r="13.85"/><circle class="cls-14" cx="2721.26" cy="2821.29" r="7.63"/><polygon class="cls-13" points="2723.26 1744.91 2721.26 2255.3 2719.26 1744.91 2723.26 1744.91"/><polygon class="cls-13" points="2726.26 841.82 2721.26 1134.41 2716.26 841.82 2726.26 841.82"/><polygon class="cls-13" points="2719.26 2795.73 2721.26 2403.41 2723.26 2795.73 2719.26 2795.73"/><text class="cls-15" transform="translate(2346.26 1285.87)">当前咱的是五级过滤，五个滤芯，基本都这样，有在后面<tspan x="0" y="50">加特殊要求的，比如加一个矿物质的。当前咱的是五级过</tspan><tspan x="0" y="100">滤。当前咱的是五级过滤，五个滤芯，基本都这样，有在</tspan><tspan x="90" y="150">后面加特殊要求的，比如加一个矿物质的。</tspan></text><path class="cls-16" d="M2720.37,1592.72c-72.92-13.33-139.44-47-169.73-43.68-70.83,7.71-130.4,42.46-130.4,42.46,117.08,57.06,224.73,65.3,284.67,65.26,4.4,0,9.58-.05,15.46-.21Z"/><path class="cls-16" d="M2720.37,1432.05c-114.45,25-276.77,18-550.19-80.09-6.74-2.42-11.63,7.59-7.57,13.48,143.48,208,345.83,276.89,482.72,288.89a702.22,702.22,0,0,0,75,2.52Z"/><path class="cls-16" d="M2720.37,1211.95c-101.65-43.59-123.83-107.11-310.49-125.73-85.4-8.52-168.07,69.52-265,114.12-58.74,27-41.43,56.77-26,88.56,105.61,217.72,328.8,365.16,587,367.84q7.21.08,14.45,0Z"/><path class="cls-16" d="M2720.37,1031.43c-77.23,15.49-167.63,51.2-274.56,118.86-152.17,96.27-360.38-409.05-386.3-251-58.27,355.37,182.57,690.7,537.94,749a655.52,655.52,0,0,0,122.92,8.48Z"/><path class="cls-16" d="M2720.37,939.19c-331.89,86.31-433.88-195.14-540.26-31.65-79.39,122-118.51,150.33-127.23,101.2,2.17,358.26,293.25,648,652,648q7.75,0,15.46-.19Z"/><path class="cls-16" d="M2720.37,807.71c-50.14-26.9-117.92-49.49-248.94-55.67C2404.92,748.91,2198.12,799,2115.8,835c-14.85,6.49-36.82,9.56-40.72-.27a652.88,652.88,0,0,0-22.39,170c0,360.12,291.93,652.05,652.05,652.05q7.83,0,15.62-.19Z"/><path class="cls-16" d="M2720.37,559.13c-143.77,23.44-214.48,97.53-315.59,125.57-65.36,18.13-220.07,3.66-256.26-7.85a8.55,8.55,0,0,1-5-4.25,649,649,0,0,0-90.79,332.1c0,360.12,291.93,652.05,652.05,652.05q7.83,0,15.62-.19Z"/><path class="cls-16" d="M2720.37,422.62c-51.26-13.51-108.56-21.16-160.22-.49-102.76,41.12-202,47.18-229,48.07-168.38,117.9-278.5,313.34-278.5,534.5,0,360.12,291.93,652.05,652.05,652.05q7.83,0,15.62-.19Z"/><path class="cls-16" d="M2721.37,350.84q-7.79-.18-15.62-.19c-360.12,0-652.05,291.93-652.05,652.05s291.93,652.05,652.05,652.05q7.83,0,15.62-.19Z"/><path class="cls-17" d="M2602,1557.57l2,.64Z"/><path class="cls-17" d="M2587,1553.16l2.62.72Z"/><path class="cls-17" d="M2597,1556l2.67.81Z"/><path class="cls-17" d="M2591.26,1554.34l3.43,1Z"/><path class="cls-17" d="M2606.79,1559.05l1.42.45Z"/><path class="cls-17" d="M2708.68,1589.14l.27.06Z"/><path class="cls-17" d="M2688.6,1584.32l.34.09Z"/><path class="cls-17" d="M2722.36,1591.88v63.83c64.76-1.67,215.33-15.84,361.18-119.5,0,0-115.64,0-236.15,48.23-40.11,16.05-83.63,15-125.08,7.44Z"/><path class="cls-17" d="M2715.12,1590.49l.79.16Z"/><path class="cls-17" d="M2695.3,1586l.1,0Z"/><path class="cls-17" d="M2582.69,1552l2.68.69Z"/><path class="cls-17" d="M2558.22,1548c-.7,0-1.38,0-2,0C2556.84,1548,2557.52,1548,2558.22,1548Z"/><path class="cls-17" d="M2716.27,1655.84q2.88,0,6-.13Q2719.16,1655.79,2716.27,1655.84Z"/><path class="cls-17" d="M2714.25,1655.87l1.69,0Z"/><polygon class="cls-17" points="2706.88 1655.92 2706.9 1655.92 2706.9 1655.92 2706.88 1655.92"/><path class="cls-17" d="M2552.63,1548.2c.86-.09,1.76-.15,2.69-.18-.92,0-1.82.09-2.69.18-70.83,7.71-130.4,42.46-130.4,42.46h0S2481.81,1555.92,2552.63,1548.2Z"/><path class="cls-17" d="M2709.08,1655.91h0Z"/><path class="cls-17" d="M2711.44,1655.9l1.83,0Z"/><path class="cls-17" d="M2559.2,1548c.75,0,1.51.08,2.29.14C2560.71,1548.11,2559.94,1548.06,2559.2,1548Z"/><path class="cls-17" d="M2570.1,1549.28l2.46.45Z"/><path class="cls-17" d="M2573.78,1550q1.47.3,3,.64Q2575.25,1550.27,2573.78,1550Z"/><path class="cls-17" d="M2577.53,1550.78q1.87.42,3.81.91Q2579.4,1551.2,2577.53,1550.78Z"/><path class="cls-17" d="M2562.29,1548.23q1.57.14,3.22.35Q2563.85,1548.36,2562.29,1548.23Z"/><path class="cls-17" d="M2566.21,1548.67q1.33.18,2.7.4Q2567.53,1548.85,2566.21,1548.67Z"/><path class="cls-17" d="M2374.45,1413.72q-4.93-1.18-9.92-2.42Q2369.52,1412.54,2374.45,1413.72Z"/><path class="cls-17" d="M2426.24,1425.11q-24.69-4.9-51.18-11.24Q2401.56,1420.22,2426.24,1425.11Z"/><path class="cls-17" d="M2362.94,1410.91q-4.52-1.12-9.09-2.28Q2358.42,1409.79,2362.94,1410.91Z"/><path class="cls-17" d="M2351.7,1408.07l-8.68-2.25Z"/><path class="cls-17" d="M2435.88,1427q-4.19-.8-8.44-1.64Q2431.68,1426.18,2435.88,1427Z"/><path class="cls-17" d="M2317.9,1399l-8.35-2.35Z"/><path class="cls-17" d="M2329.22,1402.13l-8.34-2.29Z"/><path class="cls-17" d="M2340.47,1405.15l-8.43-2.25Z"/><path class="cls-17" d="M2508.47,1438.28l-5.75-.7Z"/><path class="cls-17" d="M2445.39,1428.75l-7.56-1.4Z"/><path class="cls-17" d="M2482.15,1434.79l-6.14-.92Z"/><path class="cls-17" d="M2499.8,1437.21l-5.84-.77Z"/><path class="cls-17" d="M2454.76,1430.41l-7-1.24Z"/><path class="cls-17" d="M2473.15,1433.43l-6.36-1Z"/><path class="cls-17" d="M2464,1432l-6.63-1.11Z"/><path class="cls-17" d="M2491,1436.05l-6-.84Z"/><path class="cls-17" d="M2626.28,1443.54l-4.12.15Z"/><path class="cls-17" d="M2619.4,1443.77l-4.29.11Z"/><path class="cls-17" d="M2633.07,1443.23l-4,.19Z"/><path class="cls-17" d="M2306.46,1395.78l-8.4-2.43Z"/><path class="cls-17" d="M2170.46,1351.67q20.14,7.23,39.47,13.79-19.34-6.58-39.47-13.8c-5.05-1.81-9.07,3.36-9,8.55C2161.39,1355,2165.41,1349.85,2170.46,1351.67Z"/><path class="cls-17" d="M2639.75,1442.85l-3.87.23Z"/><path class="cls-17" d="M2612.43,1443.93l-4.53.06Z"/><path class="cls-17" d="M2605.35,1444h0Z"/><path class="cls-17" d="M2283.19,1389l-8.7-2.64Z"/><path class="cls-17" d="M2271.37,1385.36l-9-2.78Z"/><path class="cls-17" d="M2294.89,1392.43l-8.52-2.52Z"/><path class="cls-17" d="M2642.58,1442.67l3.76-.26Z"/><path class="cls-17" d="M2598.17,1444l-5.4,0Z"/><path class="cls-17" d="M2259.38,1381.64l-9.33-3Z"/><path class="cls-17" d="M2691.56,1656.53q-3.89-.08-7.77-.21Q2687.67,1656.44,2691.56,1656.53Z"/><path class="cls-17" d="M2671.85,1439.95l-3.52.41Z"/><path class="cls-17" d="M2659.27,1441.3l-3.62.34Z"/><path class="cls-17" d="M2665.6,1440.66l-3.56.38Z"/><path class="cls-17" d="M2652.85,1441.89l-3.68.3Z"/><path class="cls-17" d="M3265.87,1319.09c-36.19-11.5-190.9-26-256.26-7.85-95.32,26.44-163.63,93.8-291.6,121.07l2.64-.56v224.8c202.25-4,425.84-95,550.2-325.16A8.61,8.61,0,0,0,3265.87,1319.09Z"/><path class="cls-17" d="M2700.79,1656.66q-4.2,0-8.38-.12Q2696.59,1656.63,2700.79,1656.66Z"/><path class="cls-17" d="M2720.18,1656.56q-4.18.08-8.34.11Q2716,1656.64,2720.18,1656.56Z"/><path class="cls-17" d="M2682.33,1656.27q-3.86-.13-7.7-.31Q2678.48,1656.14,2682.33,1656.27Z"/><path class="cls-17" d="M2709.89,1434l-5,1Z"/><path class="cls-17" d="M2715.5,1432.85l-3.38.68Z"/><path class="cls-17" d="M2703.34,1435.21l-4.87.87Z"/><path class="cls-17" d="M2696.36,1436.43l-3.75.62Z"/><path class="cls-17" d="M2684.14,1438.33l-3.49.49Z"/><path class="cls-17" d="M2690.22,1437.42l-3.55.55Z"/><path class="cls-17" d="M2678,1439.17l-3.49.45Z"/><path class="cls-17" d="M2222.53,1369.7q-5.79-1.93-11.65-3.92Q2216.74,1367.77,2222.53,1369.7Z"/><path class="cls-17" d="M2559.19,1442.8q-3.36-.19-6.75-.42Q2555.84,1442.61,2559.19,1442.8Z"/><path class="cls-17" d="M2550.6,1442.26l-6.15-.44Z"/><path class="cls-17" d="M2583.5,1443.82q-11.35-.28-23.2-1Q2572.15,1443.54,2583.5,1443.82Z"/><path class="cls-17" d="M2542.24,1441.64l-5.88-.48Z"/><path class="cls-17" d="M2590.88,1444q-3.24,0-6.52-.13Q2587.64,1443.92,2590.88,1444Z"/><path class="cls-17" d="M2525.5,1440.14l-5.71-.58Z"/><path class="cls-17" d="M2533.88,1440.93l-5.74-.53Z"/><path class="cls-17" d="M2517,1439.26l-5.71-.64Z"/><path class="cls-17" d="M2702.15,1656.68q4.12,0,8.25,0Q2706.26,1656.7,2702.15,1656.68Z"/><path class="cls-17" d="M2672.51,1655.86q-3.67-.18-7.32-.4Q2668.84,1655.68,2672.51,1655.86Z"/><path class="cls-17" d="M2662.79,1655.32q-3.59-.22-7.17-.48Q2659.2,1655.1,2662.79,1655.32Z"/><path class="cls-17" d="M2653.28,1654.66l-6.33-.51Z"/><path class="cls-17" d="M2235,1373.81q-5.23-1.71-10.52-3.47Q2229.73,1372.1,2235,1373.81Z"/><path class="cls-17" d="M2247.26,1377.79l-9.82-3.18Z"/><path class="cls-17" d="M2524.5,1107.41l-1.65-.52Z"/><path class="cls-17" d="M2528,1108.53l-1.58-.51Z"/><path class="cls-17" d="M2532.53,1110l-1.52-.51Z"/><path class="cls-17" d="M2536,1111.21l-1.54-.53Z"/><path class="cls-17" d="M2511.58,1103.58l-2.11-.58Z"/><path class="cls-17" d="M2540.24,1112.73l-1.4-.51Z"/><path class="cls-17" d="M2516.12,1104.87l-1.74-.51Z"/><path class="cls-17" d="M2519.77,1106l-1.65-.49Z"/><path class="cls-17" d="M2543.58,1114l-1.46-.54Z"/><path class="cls-17" d="M2561.32,1121.13l-1.38-.6Z"/><path class="cls-17" d="M2567.66,1124l-1-.46Z"/><path class="cls-17" d="M2507.41,1102.43l-1.87-.5Z"/><path class="cls-17" d="M2571.36,1125.69l-1.14-.54Z"/><path class="cls-17" d="M2564.78,1122.66l-1.22-.54Z"/><path class="cls-17" d="M2550.91,1116.79l-1.37-.54Z"/><path class="cls-17" d="M2558,1119.69l-1.31-.55Z"/><path class="cls-17" d="M2547.59,1115.49l-1.6-.62Z"/><path class="cls-17" d="M2554.66,1118.31l-1.63-.67Z"/><path class="cls-17" d="M2417.5,1086.28l-2.81-.3Z"/><path class="cls-17" d="M2441.75,1089.31l-2.54-.36Z"/><path class="cls-17" d="M2446.65,1090l-2.43-.36Z"/><path class="cls-17" d="M2457.87,1091.8l-2.36-.39Z"/><path class="cls-17" d="M2503.15,1101.31l-2.67-.68Z"/><path class="cls-17" d="M2435.84,1088.5l-3.37-.44Z"/><path class="cls-17" d="M2429.87,1087.73l-2.67-.33Z"/><path class="cls-17" d="M2574.17,1127l-1-.48Z"/><path class="cls-17" d="M2144.72,1199.58c96.89-44.6,179.56-122.64,265-114.12l2.15.22-2.15-.22c-85.4-8.52-168.07,69.52-265,114.12-31,14.25-40.79,29.25-40.91,44.91C2103.93,1228.83,2113.76,1213.83,2144.72,1199.58Z"/><path class="cls-17" d="M2424.26,1087l-4.06-.47Z"/><path class="cls-17" d="M2453.14,1091l-2.4-.38Z"/><path class="cls-17" d="M2488.82,1097.85l-2.06-.46Z"/><path class="cls-17" d="M2494.06,1099.06l-2.88-.67Z"/><path class="cls-17" d="M2484.5,1096.89l-2.93-.63Z"/><path class="cls-17" d="M2498.3,1100.09l-2-.48Z"/><path class="cls-17" d="M2468.61,1093.7l-2.25-.41Z"/><path class="cls-17" d="M2464,1092.87l-2.26-.4Z"/><path class="cls-17" d="M2478.93,1095.71l-2.17-.44Z"/><path class="cls-17" d="M2474.51,1094.83l-2.67-.52Z"/><path class="cls-17" d="M2683.63,1193.1l-1.18-.67Z"/><path class="cls-17" d="M2695.83,1199.69l-1.8-.94Z"/><path class="cls-17" d="M2692.37,1197.87l-1.43-.76Z"/><path class="cls-17" d="M2689.66,1196.42l-1.46-.79Z"/><path class="cls-17" d="M2698.62,1201.11l-1.52-.77Z"/><path class="cls-17" d="M2674.37,1187.75l-.92-.54Z"/><path class="cls-17" d="M2677.76,1189.74l-1-.59Z"/><path class="cls-17" d="M2702.2,1202.91l-2.4-1.19Z"/><path class="cls-17" d="M2686.25,1194.56l-1.27-.7Z"/><path class="cls-17" d="M2680.25,1191.18l-1.1-.63Z"/><path class="cls-17" d="M2711.73,1207.44l-1.78-.82Z"/><path class="cls-17" d="M2672,1186.34l-.82-.5Z"/><path class="cls-17" d="M2708.78,1206.07l-2.52-1.2Z"/><path class="cls-17" d="M2715.57,1209.18l-2.65-1.19Z"/><path class="cls-17" d="M2718.61,1210.51l-1.93-.85Z"/><path class="cls-17" d="M2577.69,1128.76l-1-.5Z"/><path class="cls-17" d="M2705.06,1204.3l-1.63-.79Z"/><path class="cls-17" d="M2719.76,1656l-5.66,0Z"/><path class="cls-17" d="M3295.2,1169.68c-82.32,36-289.12,86.08-355.63,82.94-107.34-5.06-172.23-21.14-219.76-41.58l.36.16v444.75c248.81-3.12,519.75-153.4,615.66-478.24C3341.37,1159,3313.1,1161.85,3295.2,1169.68Z"/><path class="cls-17" d="M2707.47,1656l5,0Z"/><path class="cls-17" d="M2595.45,1138.2l-.54-.31Z"/><path class="cls-17" d="M2592.5,1136.54l-.87-.48Z"/><path class="cls-17" d="M2603.88,1143.07l-.7-.41Z"/><path class="cls-17" d="M2600.92,1141.33l-.23-.14Z"/><path class="cls-17" d="M2668.06,1184l-.18-.11Z"/><path class="cls-17" d="M2580.45,1130.15l-.95-.48Z"/><path class="cls-17" d="M2583.84,1131.89l-.92-.48Z"/><path class="cls-17" d="M2589.75,1135l-.76-.41Z"/><path class="cls-17" d="M2586.57,1133.33l-.93-.49Z"/><path class="cls-17" d="M2598.26,1139.79l-.79-.45Z"/><path class="cls-17" d="M2617.19,1151.22l-.12-.08Z"/><path class="cls-17" d="M2619.87,1152.92l-.09-.05Z"/><path class="cls-17" d="M2660.66,1179.36l-.33-.21Z"/><path class="cls-17" d="M2606.33,1144.53l-.16-.09Z"/><path class="cls-17" d="M2666.33,1182.89l-.65-.4Z"/><path class="cls-17" d="M2609.37,1146.37l-.58-.35Z"/><path class="cls-17" d="M2611.81,1147.87l-.16-.1Z"/><path class="cls-17" d="M2614.71,1149.67l-.4-.25Z"/><path class="cls-17" d="M2633.67,1652.82l-2.22-.24Z"/><path class="cls-17" d="M2642,1653.68l-2.5-.25Z"/><path class="cls-17" d="M2658.35,1655.07l-2.84-.21Z"/><path class="cls-17" d="M2650.2,1654.43l-2.7-.23Z"/><path class="cls-17" d="M2616.28,1650.68l-.92-.12Z"/><path class="cls-17" d="M2060.93,899.1c25.92-158.09,234.14,347.24,386.3,251q4.86-3.07,9.67-6.06-4.82,3-9.67,6.05c-152.17,96.27-360.38-409.05-386.3-251a656.51,656.51,0,0,0-8.69,107.39A656.56,656.56,0,0,1,2060.93,899.1Z"/><path class="cls-17" d="M2625.17,1651.83l-1.76-.21Z"/><path class="cls-17" d="M2704.31,1656.75h0Z"/><path class="cls-17" d="M2666.46,1655.6l-2.94-.18Z"/><path class="cls-17" d="M2674.52,1656l-3-.15Z"/><path class="cls-17" d="M2505.48,1115.4q-9.23,5.13-18.63,10.6Q2496.25,1120.53,2505.48,1115.4Z"/><path class="cls-17" d="M2486.34,1126.3q-14.24,8.29-28.89,17.37Q2472.1,1134.58,2486.34,1126.3Z"/><path class="cls-17" d="M2533.47,1100.37q-13.64,7.05-27.68,14.86Q2519.84,1107.42,2533.47,1100.37Z"/><path class="cls-17" d="M3231,1070c-121.57,186.84-237.41-207.43-697.21,30.2,70.3-36.33,132.56-57.89,188-69v625.34c306.79-7.85,574.56-232.43,626.05-546.42C3379.68,916,3352.5,883.25,3231,1070Z"/><path class="cls-17" d="M2716.31,1656.66l-2,0Z"/><path class="cls-17" d="M2690.53,1656.59l-3-.08Z"/><path class="cls-17" d="M2682.54,1656.36l-3-.12Z"/><path class="cls-17" d="M2698.5,1656.72l-2.8,0Z"/><path class="cls-17" d="M2284.67,859.19l2.34.63Z"/><path class="cls-17" d="M2270.16,856.3l2.16.31Z"/><path class="cls-17" d="M2267.34,856c.79.08,1.59.17,2.38.27C2268.93,856.14,2268.13,856.05,2267.34,856Z"/><path class="cls-17" d="M2264.36,855.71q1.18.08,2.37.2Q2265.55,855.8,2264.36,855.71Z"/><path class="cls-17" d="M2275.9,857.22l2.41.47Z"/><path class="cls-17" d="M2281.56,858.42l2.38.58Z"/><path class="cls-17" d="M2278.76,857.79l2.15.48Z"/><path class="cls-17" d="M2272.86,856.69l2.38.41Z"/><path class="cls-17" d="M2253.54,855.65q1.09-.07,2.18-.11Q2254.63,855.58,2253.54,855.65Z"/><path class="cls-17" d="M2250.78,855.88q1.16-.12,2.32-.2Q2251.93,855.76,2250.78,855.88Z"/><path class="cls-17" d="M2247.91,856.22c.78-.11,1.56-.2,2.35-.29C2249.48,856,2248.69,856.11,2247.91,856.22Z"/><path class="cls-17" d="M2261.77,855.57l2.16.11Z"/><path class="cls-17" d="M2258.41,855.5c-.79,0-1.57,0-2.36,0C2256.84,855.51,2257.62,855.5,2258.41,855.5Z"/><path class="cls-17" d="M2259,855.5q1.17,0,2.35,0Q2260.15,855.51,2259,855.5Z"/><path class="cls-17" d="M2306,866.22l2,.77Z"/><path class="cls-17" d="M2312.58,868.85l1.56.65Z"/><path class="cls-17" d="M2318.92,871.54l1.56.68Z"/><path class="cls-17" d="M2315.91,870.25l1.59.68Z"/><path class="cls-17" d="M2322.6,873.16l1,.46Z"/><path class="cls-17" d="M2333.22,878h0Z"/><path class="cls-17" d="M2329.13,876.13h0Z"/><path class="cls-17" d="M2287.57,860l2.14.62Z"/><path class="cls-17" d="M2326.62,875l.59.27Z"/><path class="cls-17" d="M2296.65,862.8l2.1.73Z"/><path class="cls-17" d="M2309.13,867.44l2.27.92Z"/><path class="cls-17" d="M2290.48,860.82l2.38.73Z"/><path class="cls-17" d="M2293.69,861.82l2.12.7Z"/><path class="cls-17" d="M2245.47,856.61q1.11-.2,2.22-.36Q2246.58,856.41,2245.47,856.61Z"/><path class="cls-17" d="M2303,865.06l1.88.71Z"/><path class="cls-17" d="M2299.66,863.85l2.35.85Z"/><path class="cls-17" d="M2232.1,860.42c.76-.3,1.52-.59,2.28-.86C2233.62,859.83,2232.86,860.12,2232.1,860.42Z"/><path class="cls-17" d="M2191.77,893.3q1.09-1.39,2.18-2.73Q2192.85,891.91,2191.77,893.3Z"/><path class="cls-17" d="M2189.11,896.79c.74-1,1.49-2,2.23-2.93C2190.59,894.82,2189.85,895.79,2189.11,896.79Z"/><path class="cls-17" d="M2242.74,857.15q1.14-.25,2.29-.46Q2243.88,856.9,2242.74,857.15Z"/><path class="cls-17" d="M2196.61,887.39c.74-.86,1.48-1.69,2.22-2.5C2198.09,885.71,2197.35,886.54,2196.61,887.39Z"/><path class="cls-17" d="M2181.61,907.59c.75-1.15,1.5-2.27,2.25-3.38-.75,1.11-1.5,2.23-2.25,3.38-79.39,122-118.51,150.33-127.23,101.2h0C2063.1,1057.92,2102.22,1029.59,2181.61,907.59Z"/><path class="cls-17" d="M2186.84,899.91c.72-1,1.45-2,2.17-3C2188.29,897.89,2187.56,898.89,2186.84,899.91Z"/><path class="cls-17" d="M2199.27,884.4q1.09-1.2,2.19-2.34Q2200.36,883.2,2199.27,884.4Z"/><path class="cls-17" d="M2203.88,879.6q-1.05,1-2.1,2.12Q2202.83,880.64,2203.88,879.6Z"/><path class="cls-17" d="M2721.56,1656.63q-3.68.08-7.38.13Q2717.88,1656.72,2721.56,1656.63Z"/><path class="cls-17" d="M3351.65,1078.51c-25.92,158.09-234.14-347.24-386.3-251C2872.43,886.34,2792,921,2721.84,939.25h0v717.38c345.91-8,625.19-285.47,636.24-630.62Q3355.95,1052.15,3351.65,1078.51Z"/><path class="cls-17" d="M2714.14,941.2h0Z"/><path class="cls-17" d="M2184.27,903.59q1.09-1.6,2.17-3.13Q2185.36,902,2184.27,903.59Z"/><path class="cls-17" d="M2655.19,952.28h0Z"/><path class="cls-17" d="M2676.71,949h0Z"/><path class="cls-17" d="M2699,944.7l-.09,0Z"/><path class="cls-17" d="M2194.31,890.13q1.06-1.29,2.12-2.52Q2195.37,888.85,2194.31,890.13Z"/><path class="cls-17" d="M2227,862.68q1.12-.55,2.24-1.05Q2228.15,862.13,2227,862.68Z"/><path class="cls-17" d="M2222,865.41c.76-.45,1.51-.88,2.27-1.3C2223.52,864.52,2222.76,865,2222,865.41Z"/><path class="cls-17" d="M2229.72,861.43c.77-.34,1.54-.67,2.31-1C2231.26,860.76,2230.49,861.09,2229.72,861.43Z"/><path class="cls-17" d="M2224.43,864c.73-.4,1.46-.77,2.19-1.14C2225.89,863.25,2225.16,863.63,2224.43,864Z"/><path class="cls-17" d="M2234.83,859.4q1.13-.4,2.26-.75Q2236,859,2234.83,859.4Z"/><path class="cls-17" d="M2239.91,857.84c.78-.21,1.56-.39,2.35-.57C2241.47,857.44,2240.69,857.63,2239.91,857.84Z"/><path class="cls-17" d="M2204.14,879.35c.74-.72,1.47-1.42,2.21-2.11C2205.61,877.93,2204.87,878.63,2204.14,879.35Z"/><path class="cls-17" d="M2237.54,858.52c.76-.23,1.52-.45,2.28-.66C2239.06,858.06,2238.3,858.29,2237.54,858.52Z"/><path class="cls-17" d="M2209.29,874.61q1-.9,2.1-1.76Q2210.34,873.71,2209.29,874.61Z"/><path class="cls-17" d="M2211.71,872.59q1.1-.89,2.21-1.73Q2212.81,871.7,2211.71,872.59Z"/><path class="cls-17" d="M2206.8,876.83q1.1-1,2.21-2Q2207.9,875.82,2206.8,876.83Z"/><path class="cls-17" d="M2214.37,870.52c.74-.56,1.49-1.1,2.23-1.63C2215.86,869.42,2215.11,870,2214.37,870.52Z"/><path class="cls-17" d="M2219.33,867.06q1.11-.72,2.22-1.38Q2220.44,866.34,2219.33,867.06Z"/><path class="cls-17" d="M2216.84,868.73q1.06-.74,2.13-1.44Q2217.9,868,2216.84,868.73Z"/><path class="cls-17" d="M2658.69,780.95l1.14.38Z"/><path class="cls-17" d="M2653.65,779.35l1.46.45Z"/><path class="cls-17" d="M2662.38,782.16l1.54.52Z"/><path class="cls-17" d="M2666,783.4l1.55.54Z"/><path class="cls-17" d="M2669.85,784.74l1.28.45Z"/><path class="cls-17" d="M2674.37,786.38l1.45.54Z"/><path class="cls-17" d="M2640.76,775.57l1.1.3Z"/><path class="cls-17" d="M2631.9,773.21l1.62.42Z"/><path class="cls-17" d="M2627.64,772.13l1.12.28Z"/><path class="cls-17" d="M2636.18,774.33l1.58.42Z"/><path class="cls-17" d="M2645.7,777l1.46.43Z"/><path class="cls-17" d="M2677.79,787.67l1.54.59Z"/><path class="cls-17" d="M2649.66,778.14l1.58.48Z"/><path class="cls-17" d="M2688.91,792.1l1.53.64Z"/><path class="cls-17" d="M2712.29,802.84l1.52.77Z"/><path class="cls-17" d="M2702.43,798.07l1.54.72Z"/><path class="cls-17" d="M2705.39,799.46l1.51.72Z"/><path class="cls-17" d="M2708.44,800.93l2.47,1.21Z"/><path class="cls-17" d="M2715.07,804.25l1.54.79Z"/><path class="cls-17" d="M2717.8,805.66l3.56,1.88Z"/><path class="cls-17" d="M2695.3,794.84l1.4.62Z"/><path class="cls-17" d="M2685.18,790.57l1.79.73Z"/><path class="cls-17" d="M2621.94,770.76l1.49.35Z"/><path class="cls-17" d="M2692.09,793.45l1.52.66Z"/><path class="cls-17" d="M2699.45,796.7l1.49.68Z"/><path class="cls-17" d="M2681.21,789l1.48.58Z"/><path class="cls-17" d="M2530.5,756.17l1.84.19Z"/><path class="cls-17" d="M2509.34,754.31l2.16.17Z"/><path class="cls-17" d="M2516,754.85l2,.17Z"/><path class="cls-17" d="M2502.74,753.82l1.51.11Z"/><path class="cls-17" d="M2494.45,753.25l1.63.1Z"/><path class="cls-17" d="M2536.67,756.81l2,.21Z"/><path class="cls-17" d="M2524,755.55l.36,0Z"/><path class="cls-17" d="M2479.83,752.4l2.13.12Z"/><path class="cls-17" d="M2486.95,752.79l2.26.13Z"/><path class="cls-17" d="M2706.06,1656.76a649.68,649.68,0,0,1-438.43-169.39,649.68,649.68,0,0,0,438.43,169.39c2,0,4,0,6,0C2710,1656.74,2708,1656.76,2706.06,1656.76Z"/><path class="cls-17" d="M3308,753.69c2.65,18-5.23,35.18-40.44,51.39-96.89,44.6-179.56,122.64-265,114.12-167.16-16.68-202.41-69.36-281-111.49v848.86q-3.89.09-7.79.14c356.51-4.19,644.22-294.5,644.22-652A650,650,0,0,0,3308,753.69Z"/><path class="cls-17" d="M2543.11,757.51l1.55.17Z"/><path class="cls-17" d="M2228.69,1448.89q18.66,20,38.94,38.48Q2247.37,1468.95,2228.69,1448.89Z"/><path class="cls-17" d="M2561.94,759.85l1.82.25Z"/><path class="cls-17" d="M2596.76,765.45l1.73.33Z"/><path class="cls-17" d="M2591.81,764.54l1.14.21Z"/><path class="cls-17" d="M2601.73,766.4l1.69.33Z"/><path class="cls-17" d="M2585.37,763.42l1.48.25Z"/><path class="cls-17" d="M2612.67,768.66l1.53.33Z"/><path class="cls-17" d="M2607.24,767.52l.9.18Z"/><path class="cls-17" d="M2568.55,760.77l.67.1Z"/><path class="cls-17" d="M2617.26,769.68l1.69.39Z"/><path class="cls-17" d="M2579.85,762.5l1.83.3Z"/><path class="cls-17" d="M2556.15,759.08l1.91.25Z"/><path class="cls-17" d="M2574.52,761.66l1.66.26Z"/><path class="cls-17" d="M2550.43,758.36l1.28.16Z"/><path class="cls-17" d="M3249.46,644.2a5.63,5.63,0,0,1-4.22.08c-252.89-90.75-410.72-103.55-523.56-85.16V1649.35q-7.79.18-15.62.19c-358.74,0-649.8-289.7-652-647.91,0,1,0,2.05,0,3.08,0,360.12,291.93,652.05,652.05,652.05s652.05-291.93,652.05-652.05A649,649,0,0,0,3249.46,644.2Z"/><path class="cls-17" d="M2673.42,409.54l2.64.39Z"/><path class="cls-17" d="M2668.2,408.82l2.59.35Z"/><path class="cls-17" d="M2663,408.19l2.56.3Z"/><path class="cls-17" d="M2641.89,406.57l1.86.09Z"/><path class="cls-17" d="M2647.17,406.82l2.25.15Z"/><path class="cls-17" d="M2652.44,407.18l2.41.2Z"/><path class="cls-17" d="M2657.71,407.64l2.5.25Z"/><path class="cls-17" d="M2694,413.14l2.84.58Z"/><path class="cls-17" d="M2703.79,415.24l3.31.75Z"/><path class="cls-17" d="M2707.48,416.08q6.71,1.57,13.3,3.31Q2714.19,417.66,2707.48,416.08Z"/><path class="cls-17" d="M2678.62,410.34l2.67.44Z"/><path class="cls-17" d="M2699,414.19l3,.64Z"/><path class="cls-17" d="M2636.32,406.42h0Z"/><path class="cls-17" d="M2688.93,412.15l2.77.53Z"/><path class="cls-17" d="M2683.8,411.21l2.71.48Z"/><path class="cls-17" d="M2576.72,413.89l2-.57Z"/><path class="cls-17" d="M2581.86,412.47l2.12-.53Z"/><path class="cls-17" d="M2631.33,406.39l-1.72,0Z"/><path class="cls-17" d="M2571.61,415.46l1.83-.57Z"/><path class="cls-17" d="M2986.58,412.92c-1.21.7-60.27,34.81-130.37,42.44-25.33,2.76-76-20.31-134.53-35.74V1653.57q-7.79.18-15.62.19c-360.12,0-652.05-291.93-652.05-652.05h0c0,360.12,291.93,652.05,652.05,652.05s652.05-291.93,652.05-652.05C3358.11,742,3206.3,517.8,2986.58,412.92Z"/><path class="cls-17" d="M2592.23,410.12l2.22-.42Z"/><path class="cls-17" d="M2566.53,417.21l1.39-.48Z"/><path class="cls-17" d="M2587,411.22l2.18-.48Z"/><path class="cls-17" d="M2613.27,407.19l2.21-.18Z"/><path class="cls-17" d="M2597.45,409.18l2.25-.36Z"/><path class="cls-17" d="M2624,406.55l2-.07Z"/><path class="cls-17" d="M2618.6,406.81l2.15-.13Z"/><path class="cls-17" d="M2608,407.72l2.24-.24Z"/><path class="cls-17" d="M2602.69,408.38l2.26-.3Z"/><path class="cls-17" d="M2149,661.63q11.17-18.3,23.49-35.8Q2160.17,643.32,2149,661.63Z"/><path class="cls-17" d="M2713.91,348.7q3.84,0,7.67.14Q2717.74,348.75,2713.91,348.7Z"/><path class="cls-17" d="M2706.06,348.65h0c-218.21,0-411.37,107.19-529.73,271.79C2294.68,455.84,2487.85,348.65,2706.06,348.65Z"/><path class="cls-17" d="M2092.81,778.62q3.37-9.3,7-18.46Q2096.18,769.32,2092.81,778.62Z"/><path class="cls-17" d="M2104.73,748.13q8-18.92,17-37.22Q2112.69,729.2,2104.73,748.13Z"/><path class="cls-17" d="M2706.06,1652.76c-360.12,0-652.05-291.93-652.05-652.05h0c0,360.12,291.93,652.05,652.05,652.05q3.7,0,7.4,0Q2709.76,1652.76,2706.06,1652.76Z"/><path class="cls-17" d="M2721.68,348.84V1652.57q-3.89.09-7.8.14c356.51-4.19,644.23-294.5,644.23-652C3358.11,645.81,3074.58,357.14,2721.68,348.84Z"/><path class="cls-17" d="M2075.82,832.86q3.78-14.21,8.17-28.17Q2079.6,818.65,2075.82,832.86Z"/><path class="cls-17" d="M2059.53,915.48q.77-5.87,1.64-11.71Q2060.3,909.61,2059.53,915.48Z"/><path class="cls-17" d="M2088.25,791.61v0Z"/><line class="cls-18" x1="80.14" y1="1720.14" x2="122.09" y2="1762.1"/><line class="cls-18" x1="89.38" y1="1720.43" x2="126.49" y2="1757.53"/><line class="cls-18" x1="79.88" y1="1729.86" x2="116.98" y2="1766.96"/><line class="cls-18" x1="97.92" y1="1720.14" x2="128.89" y2="1751.12"/><line class="cls-18" x1="80.25" y1="1737.81" x2="111.22" y2="1768.79"/><line class="cls-18" x1="105.82" y1="1720.14" x2="129.68" y2="1744"/><line class="cls-18" x1="80.14" y1="1745.82" x2="104" y2="1769.68"/><path class="cls-19" d="M70.36,1710.36h34.55a34.55,34.55,0,0,1,34.55,34.55v0a34.55,34.55,0,0,1-34.55,34.55h0a34.55,34.55,0,0,1-34.55-34.55v-34.55A0,0,0,0,1,70.36,1710.36Z"/><path class="cls-19" d="M80.14,1720.14h24.77a24.77,24.77,0,0,1,24.77,24.77v0a24.77,24.77,0,0,1-24.77,24.77h0a24.77,24.77,0,0,1-24.77-24.77v-24.77a0,0,0,0,1,0,0Z"/><text class="cls-20" transform="translate(171.62 1758.53)">纯水水质（PPM）</text><text class="cls-21" transform="translate(117.71 484.55)">06</text><path class="cls-22" d="M481.34,559.92,1420,451,476.82,341.62c-32.26-3.74-65.51-1.53-95.68,8.09-40.77,13-84.67,41-84.67,101.32,0,54.49,38.25,82.64,76.49,97.16C406.41,560.89,444.51,564.19,481.34,559.92Z"/><line class="cls-22" x1="416.52" y1="302.58" x2="416.52" y2="599.01"/><line class="cls-22" x1="254.61" y1="451.29" x2="416.03" y2="451.29"/><path class="cls-13" d="M481.52,364.84a258.13,258.13,0,0,0-43.35-.8V538.31a265.17,265.17,0,0,0,47.43-.61l848.34-86.22Z"/><text class="cls-23" transform="translate(121.16 762.77)">幼儿时期是孩子成长发育最快，精力最旺盛的时期,在孩子各项机能和系统还未发育完善的这个时期，孩子又是最容<tspan x="0" y="50">幼儿时期是孩子成长发育最快，精力最旺盛的时期,在孩子各项机能和系统还未发育完期，孩子又是最容。</tspan></text><text class="cls-20" transform="translate(122.7 1077.79)">可吸入颗粒物（PM10）</text><text class="cls-10" transform="translate(139.35 1206.07)">室内</text><text class="cls-10" transform="translate(234.47 1206.07)">18ug/m3</text><circle class="cls-24" cx="251.2" cy="1378.03" r="11.7"/><circle class="cls-24" cx="308.3" cy="1378.03" r="11.7"/><circle class="cls-24" cx="205.48" cy="1378.03" r="11.7"/><circle class="cls-24" cx="366.01" cy="1389.74" r="11.7"/><circle class="cls-24" cx="651.99" cy="1385.92" r="11.7"/><rect class="cls-25" x="181.88" y="1352.4" width="38.93" height="149.84"/><rect class="cls-18" x="181.88" y="1352.4" width="498.98" height="149.5"/><circle class="cls-24" cx="220.8" cy="1464.73" r="25.56"/><circle class="cls-24" cx="274.37" cy="1473.57" r="21.24"/><circle class="cls-24" cx="646.77" cy="1475.98" r="21.24"/><circle class="cls-24" cx="450.77" cy="1385.92" r="21.24"/><circle class="cls-24" cx="329.32" cy="1433.54" r="35.93"/><circle class="cls-24" cx="413.66" cy="1443.38" r="35.93"/><circle class="cls-24" cx="552.14" cy="1427.95" r="61.79"/><circle class="cls-24" cx="254.82" cy="1420.57" r="11.7"/><circle class="cls-24" cx="646.77" cy="1426.99" r="11.7"/><circle class="cls-24" cx="358.06" cy="1484.26" r="11.7"/><circle class="cls-24" cx="457.55" cy="1484.59" r="11.7"/><circle class="cls-24" cx="469.26" cy="1450.26" r="11.7"/><line class="cls-22" x1="220.8" y1="1256.1" x2="220.8" y2="1502.87"/><rect class="cls-18" x="692.15" y="1352.4" width="117.35" height="149.18"/><text class="cls-26" transform="translate(720.37 1441.61)">优</text><rect class="cls-27" x="220.8" y="1353.03" width="460.05" height="148.87"/><text class="cls-20" transform="translate(965.76 1077.79)">细颗粒物（PM2.5）</text><text class="cls-10" transform="translate(1011.96 1205.24)">室内</text><text class="cls-10" transform="translate(1107.83 1206.91)">18ug/m3</text><rect class="cls-25" x="1026.67" y="1352.7" width="71.19" height="149.18"/><rect class="cls-18" x="1026.54" y="1352.4" width="498.98" height="149.5"/><circle class="cls-24" cx="1059.89" cy="1484.26" r="8.28"/><circle class="cls-24" cx="1092.57" cy="1488.53" r="6.88"/><circle class="cls-24" cx="1106.78" cy="1456.63" r="6.88"/><circle class="cls-24" cx="1062.17" cy="1439.59" r="6.88"/><circle class="cls-24" cx="1179.95" cy="1439.59" r="11.64"/><circle class="cls-24" cx="1145.12" cy="1487.08" r="11.64"/><circle class="cls-24" cx="1127.22" cy="1475.98" r="3.79"/><circle class="cls-24" cx="1082.88" cy="1452.84" r="3.79"/><circle class="cls-24" cx="1221.76" cy="1447.17" r="3.79"/><circle class="cls-24" cx="1041.97" cy="1473.57" r="3.79"/><circle class="cls-24" cx="1183.27" cy="1489.81" r="3.79"/><circle class="cls-24" cx="1040.77" cy="1443.38" r="3.79"/><circle class="cls-24" cx="1443.26" cy="1464.93" r="6.88"/><circle class="cls-24" cx="1280.17" cy="1482.89" r="6.88"/><circle class="cls-24" cx="1410.54" cy="1464.93" r="13.55"/><circle class="cls-24" cx="1263.17" cy="1400.84" r="3.79"/><circle class="cls-24" cx="1440.17" cy="1490.87" r="3.79"/><circle class="cls-24" cx="1191.59" cy="1373.55" r="3.79"/><circle class="cls-24" cx="1352.23" cy="1371.31" r="8.28" transform="translate(-204.99 238.14) rotate(-9.36)"/><circle class="cls-24" cx="1254.16" cy="1466.17" r="6.88" transform="translate(-221.72 223.45) rotate(-9.36)"/><circle class="cls-24" cx="1353.32" cy="1404.25" r="6.88" transform="translate(-210.33 238.75) rotate(-9.36)"/><circle class="cls-24" cx="1239.04" cy="1424.31" r="6.88" transform="translate(-215.11 220.44) rotate(-9.36)"/><circle class="cls-24" cx="1387.11" cy="1413.08" r="6.88" transform="translate(-211.32 244.36) rotate(-9.36)"/><circle class="cls-24" cx="1311.71" cy="1464.37" r="6.88" transform="translate(-220.66 232.78) rotate(-9.36)"/><circle class="cls-24" cx="1188.97" cy="1413.13" r="6.88" transform="translate(-213.96 212.14) rotate(-9.36)"/><circle class="cls-24" cx="1215.82" cy="1366.67" r="6.88" transform="translate(-206.05 215.89) rotate(-9.36)"/><circle class="cls-24" cx="1217.44" cy="1476.06" r="10.32" transform="translate(-223.82 217.61) rotate(-9.36)"/><circle class="cls-24" cx="1369.02" cy="1463.51" r="11.64" transform="translate(-219.76 242.09) rotate(-9.36)"/><circle class="cls-24" cx="1333.05" cy="1482.89" r="11.64" transform="translate(-223.39 236.5) rotate(-9.36)"/><circle class="cls-24" cx="1296.73" cy="1373.49" r="11.64" transform="translate(-206.08 229.14) rotate(-9.36)"/><circle class="cls-24" cx="1233.72" cy="1392.02" r="13.55" transform="translate(-209.93 219.14) rotate(-9.36)"/><circle class="cls-24" cx="1249.86" cy="1489.81" r="7.68" transform="translate(-225.62 223.07) rotate(-9.36)"/><circle class="cls-24" cx="1320.44" cy="1424.07" r="15.87" transform="translate(-213.99 233.67) rotate(-9.36)"/><circle class="cls-24" cx="1282.43" cy="1462.22" r="3.79" transform="translate(-220.7 228) rotate(-9.36)"/><circle class="cls-24" cx="1284.01" cy="1417.61" r="3.79" transform="translate(-213.43 227.66) rotate(-9.36)"/><circle class="cls-24" cx="1325.54" cy="1361.76" r="3.79" transform="translate(-203.79 233.67) rotate(-9.36)"/><circle class="cls-24" cx="1111.07" cy="1488.38" r="3.79" transform="translate(-227.24 200.48) rotate(-9.36)"/><circle class="cls-24" cx="1371.35" cy="1436.4" r="3.79" transform="translate(-215.32 242.11) rotate(-9.36)"/><circle class="cls-24" cx="1294.29" cy="1449.05" r="3.79" transform="translate(-218.4 229.75) rotate(-9.36)"/><circle class="cls-24" cx="1304.18" cy="1492.17" r="3.79" transform="matrix(0.99, -0.16, 0.16, 0.99, -225.28, 231.93)"/><circle class="cls-24" cx="1386.97" cy="1388.89" r="3.79" transform="translate(-207.39 244.02) rotate(-9.36)"/><circle class="cls-24" cx="1380.69" cy="1484.78" r="3.79" transform="translate(-223.06 244.27) rotate(-9.36)"/><circle class="cls-24" cx="1212.95" cy="1425.48" r="3.79" transform="translate(-215.65 216.21) rotate(-9.36)"/><circle class="cls-24" cx="1333.05" cy="1384" r="3.79" transform="translate(-207.31 235.19) rotate(-9.36)"/><circle class="cls-24" cx="1283.96" cy="1394" r="3.79" transform="translate(-209.59 227.34) rotate(-9.36)"/><circle class="cls-24" cx="1337.28" cy="1456.31" r="3.79" transform="translate(-219.01 236.84) rotate(-9.36)"/><circle class="cls-24" cx="1355.52" cy="1431.19" r="3.79" transform="translate(-214.68 239.47) rotate(-9.36)"/><circle class="cls-24" cx="1265.97" cy="1371.23" r="3.79" transform="translate(-206.12 224.11) rotate(-9.36)"/><circle class="cls-24" cx="1181.75" cy="1392.63" r="3.79" transform="translate(-210.73 210.7) rotate(-9.36)"/><circle class="cls-24" cx="1505.49" cy="1471.45" r="6.88" transform="translate(-103.2 2829.3) rotate(-84.51)"/><circle class="cls-24" cx="1143.19" cy="1455.48" r="6.88" transform="translate(-414.96 2454.23) rotate(-84.51)"/><circle class="cls-24" cx="1467.46" cy="1471.6" r="10.32" transform="translate(-137.75 2791.59) rotate(-84.51)"/><circle class="cls-24" cx="1408.49" cy="1373.49" r="11.64" transform="translate(-93.41 2644.16) rotate(-84.51)"/><circle class="cls-24" cx="1415.42" cy="1428.35" r="13.55" transform="translate(-141.75 2700.67) rotate(-84.51)"/><circle class="cls-24" cx="1466.67" cy="1378.12" r="15.87" transform="translate(-45.41 2706.26) rotate(-84.51)"/><circle class="cls-24" cx="1437.82" cy="1444.11" r="3.79" transform="translate(-137.18 2737.22) rotate(-84.51)"/><circle class="cls-24" cx="1497.56" cy="1487.45" r="3.79" transform="translate(-126.3 2835.89) rotate(-84.51)"/><circle class="cls-24" cx="1465.12" cy="1495.96" r="3.79" transform="translate(-164.11 2811.29) rotate(-84.51)"/><circle class="cls-24" cx="1388.5" cy="1438.17" r="3.79" transform="matrix(0.1, -1, 1, 0.1, -175.87, 2682.76)"/><circle class="cls-24" cx="1163.2" cy="1473.57" r="3.79" transform="translate(-414.86 2490.5) rotate(-84.51)"/><circle class="cls-24" cx="1443.82" cy="1421.27" r="3.79" transform="translate(-109.02 2722.55) rotate(-84.51)"/><circle class="cls-24" cx="1501.35" cy="1388.89" r="3.79" transform="translate(-24.76 2750.52) rotate(-84.51)"/><circle class="cls-24" cx="1432.27" cy="1394.66" r="3.79" transform="translate(-92.98 2686.97) rotate(-84.51)"/><circle class="cls-24" cx="1141.46" cy="1433.82" r="3.79" transform="translate(-394.96 2432.92) rotate(-84.51)"/><circle class="cls-24" cx="1086.52" cy="1368.1" r="6.88" transform="translate(-379.22 2318.79) rotate(-84.51)"/><circle class="cls-24" cx="1158.37" cy="1368.25" r="6.88" transform="translate(-314.4 2390.45) rotate(-84.51)"/><circle class="cls-24" cx="1264.42" cy="1443.38" r="6.88" transform="translate(-293.28 2563.96) rotate(-84.51)"/><circle class="cls-24" cx="1142.61" cy="1381.1" r="6.88" transform="translate(-341.44 2386.39) rotate(-84.51)"/><circle class="cls-24" cx="1497.76" cy="1431.29" r="6.88" transform="translate(-70.21 2785.3) rotate(-84.51)"/><circle class="cls-24" cx="1048.49" cy="1368.25" r="10.32" transform="translate(-413.76 2281.08) rotate(-84.51)"/><circle class="cls-24" cx="1146.73" cy="1410.16" r="11.64" transform="translate(-366.64 2416.77) rotate(-84.51)"/><circle class="cls-24" cx="1505.49" cy="1368.25" r="11.64" transform="translate(-0.48 2735.98) rotate(-84.51)"/><circle class="cls-24" cx="1095.95" cy="1411.61" r="20.02" transform="translate(-414.01 2367.53) rotate(-84.51)"/><circle class="cls-24" cx="1114.86" cy="1371.53" r="3.79" transform="translate(-357 2350.1) rotate(-84.51)"/><circle class="cls-24" cx="1128.41" cy="1420.09" r="3.79" transform="translate(-393.1 2407.51) rotate(-84.51)"/><circle class="cls-24" cx="1468.91" cy="1424.41" r="3.79" transform="translate(-89.46 2750.36) rotate(-84.51)"/><circle class="cls-24" cx="1055.07" cy="1407.68" r="3.79" transform="translate(-447.07 2323.29) rotate(-84.51)"/><circle class="cls-24" cx="1187.06" cy="1466.17" r="3.79" transform="translate(-385.92 2507.56) rotate(-84.51)"/><circle class="cls-24" cx="1517.78" cy="1449.37" r="3.79" transform="matrix(0.1, -1, 1, 0.1, -70.12, 2821.57)"/><circle class="cls-24" cx="1040.77" cy="1392.68" r="3.79" transform="translate(-445.06 2295.48) rotate(-84.51)"/><circle class="cls-24" cx="1496.04" cy="1409.63" r="3.79" transform="translate(-50.22 2763.99) rotate(-84.51)"/><line class="cls-22" x1="1097.86" y1="1256.1" x2="1097.86" y2="1501.75"/><rect class="cls-18" x="1533.62" y="1352.7" width="117.35" height="149.18"/><text class="cls-26" transform="translate(1561.84 1441.91)">优</text><rect class="cls-27" x="1097.86" y="1352.7" width="427.36" height="149.18"/><text class="cls-20" transform="translate(171.62 192.21)">室内空气质量指数 （AQI）</text><rect class="cls-19" x="73.9" y="149.58" width="62.02" height="62.02"/><path class="cls-19" d="M63.8,162.12c20.55,0,20.55,34,41.11,34s20.55-34,41.11-34"/><path class="cls-19" d="M63.8,178c20.55,0,20.55,34,41.11,34s20.55-34,41.11-34"/><path class="cls-19" d="M63.8,146.27c20.55,0,20.55,34,41.11,34s20.55-34,41.11-34"/><text class="cls-15" transform="translate(1026.54 2207.21)">溶解性总固体</text><text class="cls-15" transform="translate(1026.54 2133.37)">阴离子合成洗涤剂</text><text class="cls-15" transform="translate(1026.54 2281.05)">硬度（CaCO3计）</text><text class="cls-15" transform="translate(1026.54 2354.89)">氯化物</text><text class="cls-15" transform="translate(1026.54 2428.74)">硬度（CaCO3计）</text><text class="cls-15" transform="translate(1026.54 2502.58)">总有机碳（TOC）</text><text class="cls-15" transform="translate(1026.54 2576.42)">硫酸盐</text><text class="cls-15" transform="translate(1026.54 2650.26)">挥发酚类（以苯酚计）</text><text class="cls-15" transform="translate(1026.54 2059.53)">PH值</text><text class="cls-15" transform="translate(1026.54 1925.14)">纯水水质检察</text><line class="cls-22" x1="1000.72" y1="2725.96" x2="1648.6" y2="2725.96"/><text class="cls-15" transform="translate(1518.88 2650.24)">0.18<tspan class="cls-28" x="50.73" y="0">mg/L</tspan></text><text class="cls-15" transform="translate(1518.89 2576.4)">0.13<tspan class="cls-28" x="50.7" y="0">mg/L</tspan></text><text class="cls-15" transform="translate(1515.43 2502.57)">0.43<tspan class="cls-28" x="57.63" y="0">mg/L</tspan></text><text class="cls-15" transform="translate(1518.89 2428.73)">0.13<tspan class="cls-28" x="50.7" y="0">mg/L</tspan></text><text class="cls-15" transform="translate(1522.33 2354.89)">0.11<tspan class="cls-28" x="43.83" y="0">mg/L</tspan></text><text class="cls-15" transform="translate(1514.98 2281.06)">0.00<tspan class="cls-28" x="58.53" y="0">mg/L</tspan></text><text class="cls-15" transform="translate(1515.56 2207.22)">0.23<tspan class="cls-28" x="57.36" y="0">mg/L</tspan></text><text class="cls-15" transform="translate(1518.89 2133.38)">0.13<tspan class="cls-28" x="50.7" y="0">mg/L</tspan></text><text class="cls-15" transform="translate(1539.18 2059.54)">6.5</text><line class="cls-22" x1="1000.72" y1="1969.42" x2="1648.6" y2="1969.42"/><text class="cls-15" transform="translate(1498.66 1924.67)">实时数据</text><text class="cls-29" transform="translate(117.71 2191.46)">纯</text><text class="cls-30" transform="translate(602.11 2083.82)">4</text><text class="cls-31" transform="translate(567.64 2244.84)">TDS</text><text class="cls-15" transform="translate(134.71 2357.91)">当前咱的是五级过滤，五个滤芯，基本都这样，<tspan x="0" y="50">有在后面加特殊要求的，比如加一个矿物质的。</tspan><tspan x="0" y="100">当前咱的是五级过滤。</tspan></text><line class="cls-32" x1="618.12" y1="2121.97" x2="709.26" y2="2121.97"/><line class="cls-18" x1="3752.09" y1="1720.14" x2="3794.04" y2="1762.1"/><line class="cls-18" x1="3761.33" y1="1720.43" x2="3798.44" y2="1757.53"/><line class="cls-18" x1="3751.83" y1="1729.86" x2="3788.93" y2="1766.96"/><line class="cls-18" x1="3769.87" y1="1720.14" x2="3800.84" y2="1751.12"/><line class="cls-18" x1="3752.2" y1="1737.81" x2="3783.17" y2="1768.79"/><line class="cls-18" x1="3777.77" y1="1720.14" x2="3801.63" y2="1744"/><line class="cls-18" x1="3752.09" y1="1745.82" x2="3775.95" y2="1769.68"/><path class="cls-19" d="M3742.31,1710.36h34.55a34.55,34.55,0,0,1,34.55,34.55v0a34.55,34.55,0,0,1-34.55,34.55h0a34.55,34.55,0,0,1-34.55-34.55v-34.55A0,0,0,0,1,3742.31,1710.36Z"/><path class="cls-19" d="M3752.09,1720.14h24.77a24.77,24.77,0,0,1,24.77,24.77v0a24.77,24.77,0,0,1-24.77,24.77h0a24.77,24.77,0,0,1-24.77-24.77v-24.77A0,0,0,0,1,3752.09,1720.14Z"/><text class="cls-20" transform="translate(3843.57 1758.53)">原水水质（PPM）</text><text class="cls-21" transform="translate(3789.66 484.55)">10</text><path class="cls-22" d="M4153.29,559.92,5091.93,451,4148.77,341.62c-32.26-3.74-65.51-1.53-95.68,8.09-40.77,13-84.67,41-84.67,101.32,0,54.49,38.25,82.64,76.49,97.16C4078.36,560.89,4116.46,564.19,4153.29,559.92Z"/><line class="cls-22" x1="4088.47" y1="302.58" x2="4088.47" y2="599.01"/><line class="cls-22" x1="3926.56" y1="451.29" x2="4087.98" y2="451.29"/><path class="cls-13" d="M4153.47,364.84a258.13,258.13,0,0,0-43.35-.8V538.31a265.17,265.17,0,0,0,47.43-.61l848.34-86.22Z"/><text class="cls-23" transform="translate(3793.11 762.77)">幼儿时期是孩子成长发育最快，精力最旺盛的时期,在孩子各项机能和系统还未发育完善的这个时期，孩子又是最容<tspan x="0" y="50">幼儿时期是孩子成长发育最快，精力最旺盛的时期,在孩子各项机能和系统还未发育完期，孩子又是最容。</tspan></text><text class="cls-20" transform="translate(3794.65 1077.79)">可吸入颗粒物（PM10）</text><text class="cls-10" transform="translate(3845.19 1206.07)">室外</text><text class="cls-10" transform="translate(3940.32 1206.07)">18ug/m3</text><circle class="cls-24" cx="3923.15" cy="1378.03" r="11.7"/><circle class="cls-24" cx="3980.25" cy="1378.03" r="11.7"/><circle class="cls-24" cx="3877.43" cy="1378.03" r="11.7"/><circle class="cls-24" cx="4037.96" cy="1389.74" r="11.7"/><circle class="cls-24" cx="4323.94" cy="1385.92" r="11.7"/><rect class="cls-33" x="3853.83" y="1352.4" width="223.77" height="149.84"/><rect class="cls-18" x="3853.83" y="1352.4" width="498.98" height="149.5"/><circle class="cls-24" cx="3892.76" cy="1464.73" r="25.56"/><circle class="cls-24" cx="3946.33" cy="1473.57" r="21.24"/><circle class="cls-24" cx="4318.72" cy="1475.98" r="21.24"/><circle class="cls-24" cx="4122.72" cy="1385.92" r="21.24"/><circle class="cls-24" cx="4001.27" cy="1433.54" r="35.93"/><circle class="cls-24" cx="4085.61" cy="1443.38" r="35.93"/><circle class="cls-24" cx="4224.09" cy="1427.95" r="61.79"/><circle class="cls-24" cx="3926.77" cy="1420.57" r="11.7"/><circle class="cls-24" cx="4318.72" cy="1426.99" r="11.7"/><circle class="cls-24" cx="4030.01" cy="1484.26" r="11.7"/><circle class="cls-24" cx="4129.5" cy="1484.59" r="11.7"/><circle class="cls-24" cx="4141.21" cy="1450.26" r="11.7"/><line class="cls-22" x1="4077.59" y1="1256.1" x2="4077.59" y2="1502.87"/><rect class="cls-34" x="4364.1" y="1352.4" width="117.35" height="149.18"/><text class="cls-35" transform="translate(4392.32 1441.61)">良</text><rect class="cls-27" x="4077.59" y="1353.03" width="275.21" height="148.87"/><text class="cls-20" transform="translate(4637.71 1077.79)">细颗粒物（PM2.5）</text><text class="cls-10" transform="translate(4815.61 1205.24)">室外</text><text class="cls-10" transform="translate(4911.48 1206.91)">18ug/m3</text><rect class="cls-36" x="4698.62" y="1352.7" width="306.38" height="149.18"/><rect class="cls-18" x="4698.49" y="1352.4" width="498.98" height="149.5"/><circle class="cls-24" cx="4731.84" cy="1484.26" r="8.28"/><circle class="cls-24" cx="4764.52" cy="1488.53" r="6.88"/><circle class="cls-24" cx="4778.73" cy="1456.63" r="6.88"/><circle class="cls-24" cx="4734.12" cy="1439.59" r="6.88"/><circle class="cls-24" cx="4851.91" cy="1439.59" r="11.64"/><circle class="cls-24" cx="4817.07" cy="1487.08" r="11.64"/><circle class="cls-24" cx="4799.17" cy="1475.98" r="3.79"/><circle class="cls-24" cx="4754.83" cy="1452.84" r="3.79"/><circle class="cls-24" cx="4893.71" cy="1447.17" r="3.79"/><circle class="cls-24" cx="4713.92" cy="1473.57" r="3.79"/><circle class="cls-24" cx="4855.22" cy="1489.81" r="3.79"/><circle class="cls-24" cx="4712.72" cy="1443.38" r="3.79"/><circle class="cls-24" cx="5115.21" cy="1464.93" r="6.88"/><circle class="cls-24" cx="4952.12" cy="1482.89" r="6.88"/><circle class="cls-24" cx="5082.49" cy="1464.93" r="13.55"/><circle class="cls-24" cx="4935.12" cy="1400.84" r="3.79"/><circle class="cls-24" cx="5112.12" cy="1490.87" r="3.79"/><circle class="cls-24" cx="4863.54" cy="1373.55" r="3.79"/><circle class="cls-24" cx="5024.18" cy="1371.31" r="8.28" transform="matrix(0.99, -0.16, 0.16, 0.99, -156.12, 835.23)"/><circle class="cls-24" cx="4926.11" cy="1466.17" r="6.88" transform="translate(-172.85 820.54) rotate(-9.36)"/><circle class="cls-24" cx="5025.27" cy="1404.25" r="6.88" transform="translate(-161.46 835.84) rotate(-9.36)"/><circle class="cls-24" cx="4911" cy="1424.31" r="6.88" transform="translate(-166.24 817.53) rotate(-9.36)"/><circle class="cls-24" cx="5059.07" cy="1413.08" r="6.88" transform="translate(-162.45 841.45) rotate(-9.36)"/><circle class="cls-24" cx="4983.66" cy="1464.37" r="6.88" transform="translate(-171.79 829.88) rotate(-9.36)"/><circle class="cls-24" cx="4860.92" cy="1413.13" r="6.88" transform="translate(-165.09 809.23) rotate(-9.36)"/><circle class="cls-24" cx="4887.77" cy="1366.67" r="6.88" transform="translate(-157.18 812.98) rotate(-9.36)"/><circle class="cls-24" cx="4889.39" cy="1476.06" r="10.32" transform="translate(-174.95 814.7) rotate(-9.36)"/><circle class="cls-24" cx="5040.97" cy="1463.51" r="11.64" transform="translate(-170.89 839.18) rotate(-9.36)"/><circle class="cls-24" cx="5005" cy="1482.89" r="11.64" transform="translate(-174.52 833.59) rotate(-9.36)"/><circle class="cls-24" cx="4968.68" cy="1373.49" r="11.64" transform="translate(-157.21 826.23) rotate(-9.36)"/><circle class="cls-24" cx="4905.67" cy="1392.02" r="13.55" transform="translate(-161.06 816.23) rotate(-9.36)"/><circle class="cls-24" cx="4921.81" cy="1489.81" r="7.68" transform="translate(-176.75 820.16) rotate(-9.36)"/><circle class="cls-24" cx="4992.39" cy="1424.07" r="15.87" transform="translate(-165.12 830.76) rotate(-9.36)"/><circle class="cls-24" cx="4954.38" cy="1462.22" r="3.79" transform="translate(-171.83 825.09) rotate(-9.36)"/><circle class="cls-24" cx="4955.96" cy="1417.61" r="3.79" transform="translate(-164.55 824.75) rotate(-9.36)"/><circle class="cls-24" cx="4997.49" cy="1361.76" r="3.79" transform="translate(-154.92 830.76) rotate(-9.36)"/><circle class="cls-24" cx="4783.02" cy="1488.38" r="3.79" transform="translate(-178.36 797.57) rotate(-9.36)"/><circle class="cls-24" cx="5043.3" cy="1436.4" r="3.79" transform="translate(-166.45 839.2) rotate(-9.36)"/><circle class="cls-24" cx="4966.24" cy="1449.05" r="3.79" transform="translate(-169.53 826.84) rotate(-9.36)"/><circle class="cls-24" cx="4976.13" cy="1492.17" r="3.79" transform="translate(-176.41 829.02) rotate(-9.36)"/><circle class="cls-24" cx="5058.92" cy="1388.89" r="3.79" transform="translate(-158.51 841.11) rotate(-9.36)"/><circle class="cls-24" cx="5052.64" cy="1484.78" r="3.79" transform="translate(-174.19 841.36) rotate(-9.36)"/><circle class="cls-24" cx="4884.9" cy="1425.48" r="3.79" transform="translate(-166.78 813.3) rotate(-9.36)"/><circle class="cls-24" cx="5005" cy="1384" r="3.79" transform="translate(-158.44 832.28) rotate(-9.36)"/><circle class="cls-24" cx="4955.91" cy="1394" r="3.79" transform="translate(-160.72 824.43) rotate(-9.36)"/><circle class="cls-24" cx="5009.23" cy="1456.31" r="3.79" transform="translate(-170.14 833.93) rotate(-9.36)"/><circle class="cls-24" cx="5027.47" cy="1431.19" r="3.79" transform="translate(-165.81 836.56) rotate(-9.36)"/><circle class="cls-24" cx="4937.92" cy="1371.23" r="3.79" transform="translate(-157.25 821.2) rotate(-9.36)"/><circle class="cls-24" cx="4853.7" cy="1392.63" r="3.79" transform="translate(-161.85 807.79) rotate(-9.36)"/><circle class="cls-24" cx="5177.44" cy="1471.45" r="6.88" transform="translate(3217.55 6484.42) rotate(-84.51)"/><circle class="cls-24" cx="4815.14" cy="1455.48" r="6.88" transform="translate(2905.8 6109.35) rotate(-84.51)"/><circle class="cls-24" cx="5139.41" cy="1471.6" r="10.32" transform="translate(3183.01 6446.71) rotate(-84.51)"/><circle class="cls-24" cx="5080.44" cy="1373.49" r="11.64" transform="translate(3227.35 6299.27) rotate(-84.51)"/><circle class="cls-24" cx="5087.37" cy="1428.35" r="13.55" transform="translate(3179.01 6355.79) rotate(-84.51)"/><circle class="cls-24" cx="5138.62" cy="1378.12" r="15.87" transform="translate(3275.35 6361.38) rotate(-84.51)"/><circle class="cls-24" cx="5109.77" cy="1444.11" r="3.79" transform="translate(3183.58 6392.34) rotate(-84.51)"/><circle class="cls-24" cx="5169.51" cy="1487.45" r="3.79" transform="translate(3194.46 6491) rotate(-84.51)"/><circle class="cls-24" cx="5137.07" cy="1495.96" r="3.79" transform="matrix(0.1, -1, 1, 0.1, 3156.65, 6466.41)"/><circle class="cls-24" cx="5060.46" cy="1438.17" r="3.79" transform="matrix(0.1, -1, 1, 0.1, 3144.89, 6337.88)"/><circle class="cls-24" cx="4835.15" cy="1473.57" r="3.79" transform="translate(2905.9 6145.62) rotate(-84.51)"/><circle class="cls-24" cx="5115.78" cy="1421.27" r="3.79" transform="translate(3211.74 6377.67) rotate(-84.51)"/><circle class="cls-24" cx="5173.3" cy="1388.89" r="3.79" transform="translate(3296 6405.64) rotate(-84.51)"/><circle class="cls-24" cx="5104.22" cy="1394.66" r="3.79" transform="translate(3227.78 6342.09) rotate(-84.51)"/><circle class="cls-24" cx="4813.41" cy="1433.82" r="3.79" transform="translate(2925.8 6088.04) rotate(-84.51)"/><circle class="cls-24" cx="4758.47" cy="1368.1" r="6.88" transform="translate(2941.54 5973.91) rotate(-84.51)"/><circle class="cls-24" cx="4830.32" cy="1368.25" r="6.88" transform="translate(3006.36 6045.57) rotate(-84.51)"/><circle class="cls-24" cx="4936.37" cy="1443.38" r="6.88" transform="translate(3027.48 6219.07) rotate(-84.51)"/><circle class="cls-24" cx="4814.56" cy="1381.1" r="6.88" transform="translate(2979.32 6041.51) rotate(-84.51)"/><circle class="cls-24" cx="5169.72" cy="1431.29" r="6.88" transform="translate(3250.55 6440.42) rotate(-84.51)"/><circle class="cls-24" cx="4720.45" cy="1368.25" r="10.32" transform="translate(2906.99 5936.2) rotate(-84.51)"/><circle class="cls-24" cx="4818.68" cy="1410.16" r="11.64" transform="translate(2954.12 6071.88) rotate(-84.51)"/><circle class="cls-24" cx="5177.44" cy="1368.25" r="11.64" transform="translate(3320.28 6391.09) rotate(-84.51)"/><circle class="cls-24" cx="4767.9" cy="1411.61" r="20.02" transform="translate(2906.75 6022.65) rotate(-84.51)"/><circle class="cls-24" cx="4786.81" cy="1371.53" r="3.79" transform="translate(2963.75 6005.22) rotate(-84.51)"/><circle class="cls-24" cx="4800.36" cy="1420.09" r="3.79" transform="translate(2927.66 6062.63) rotate(-84.51)"/><circle class="cls-24" cx="5140.86" cy="1424.41" r="3.79" transform="translate(3231.3 6405.47) rotate(-84.51)"/><circle class="cls-24" cx="4727.02" cy="1407.68" r="3.79" transform="translate(2873.69 5978.41) rotate(-84.51)"/><circle class="cls-24" cx="4859.01" cy="1466.17" r="3.79" transform="translate(2934.84 6162.68) rotate(-84.51)"/><circle class="cls-24" cx="5189.73" cy="1449.37" r="3.79" transform="translate(3250.64 6476.69) rotate(-84.51)"/><circle class="cls-24" cx="4712.72" cy="1392.68" r="3.79" transform="translate(2875.7 5950.6) rotate(-84.51)"/><circle class="cls-24" cx="5167.99" cy="1409.63" r="3.79" transform="translate(3270.54 6419.11) rotate(-84.51)"/><line class="cls-22" x1="5005.44" y1="1256.1" x2="5005.44" y2="1501.75"/><rect class="cls-37" x="5205.57" y="1352.7" width="117.35" height="149.18"/><text class="cls-38" transform="translate(5233.79 1441.91)">差</text><rect class="cls-27" x="5005.44" y="1352.7" width="191.73" height="149.18"/><text class="cls-20" transform="translate(3843.57 192.21)">室外空气质量指数 （AQI）</text><rect class="cls-19" x="3745.85" y="149.58" width="62.02" height="62.02"/><path class="cls-19" d="M3735.75,162.12c20.55,0,20.55,34,41.11,34s20.55-34,41.11-34"/><path class="cls-19" d="M3735.75,178c20.55,0,20.55,34,41.11,34s20.55-34,41.11-34"/><path class="cls-19" d="M3735.75,146.27c20.55,0,20.55,34,41.11,34s20.55-34,41.11-34"/><text class="cls-15" transform="translate(4698.49 2207.21)">溶解性总固体</text><text class="cls-15" transform="translate(4698.49 2133.37)">阴离子合成洗涤剂</text><text class="cls-15" transform="translate(4698.49 2281.05)">硬度（CaCO3计）</text><text class="cls-15" transform="translate(4698.49 2354.89)">氯化物</text><text class="cls-15" transform="translate(4698.49 2428.74)">硬度（CaCO3计）</text><text class="cls-15" transform="translate(4698.49 2502.58)">总有机碳（TOC）</text><text class="cls-15" transform="translate(4698.49 2576.42)">硫酸盐</text><text class="cls-15" transform="translate(4698.49 2650.26)">挥发酚类（以苯酚计）</text><text class="cls-15" transform="translate(4698.49 2059.53)">PH值</text><text class="cls-15" transform="translate(4698.49 1925.14)">原水水质检察</text><line class="cls-22" x1="4672.67" y1="2725.96" x2="5320.55" y2="2725.96"/><text class="cls-15" transform="translate(5190.83 2650.24)">0.18<tspan class="cls-28" x="50.73" y="0">mg/L</tspan></text><text class="cls-15" transform="translate(5190.84 2576.4)">0.13<tspan class="cls-28" x="50.7" y="0">mg/L</tspan></text><text class="cls-15" transform="translate(5187.38 2502.57)">0.43<tspan class="cls-28" x="57.63" y="0">mg/L</tspan></text><text class="cls-15" transform="translate(5190.84 2428.73)">0.13<tspan class="cls-28" x="50.7" y="0">mg/L</tspan></text><text class="cls-15" transform="translate(5194.28 2354.89)">0.11<tspan class="cls-28" x="43.83" y="0">mg/L</tspan></text><text class="cls-15" transform="translate(5186.93 2281.06)">0.00<tspan class="cls-28" x="58.53" y="0">mg/L</tspan></text><text class="cls-15" transform="translate(5187.51 2207.22)">0.23<tspan class="cls-28" x="57.36" y="0">mg/L</tspan></text><text class="cls-15" transform="translate(5190.84 2133.38)">0.13<tspan class="cls-28" x="50.7" y="0">mg/L</tspan></text><text class="cls-15" transform="translate(5212.76 2059.54)">6.5</text><line class="cls-22" x1="4672.67" y1="1969.42" x2="5320.55" y2="1969.42"/><text class="cls-15" transform="translate(5172.25 1925.14)">实时数据</text><text class="cls-29" transform="translate(3789.66 2191.46)">浊</text><text class="cls-30" transform="translate(4274.16 2083.82)">8</text><text class="cls-31" transform="translate(4239.59 2244.84)">TDS</text><text class="cls-15" transform="translate(3806.66 2357.91)">当前咱的是五级过滤，五个滤芯，基本都这样，<tspan x="0" y="50">有在后面加特殊要求的，比如加一个矿物质的。</tspan><tspan x="0" y="100">当前咱的是五级过滤。</tspan></text><line class="cls-32" x1="4290.07" y1="2121.97" x2="4381.21" y2="2121.97"/><rect class="cls-18" x="368.33" y="2537.61" width="140.15" height="133.39"/><text class="cls-15" transform="translate(378.4 2735.96)">水质纯度</text><rect class="cls-18" x="134.71" y="2537.61" width="140.15" height="133.39"/><text class="cls-15" transform="translate(144.78 2735.96)">水质软硬</text><rect class="cls-18" x="601.95" y="2537.61" width="140.15" height="133.39"/><text class="cls-15" transform="translate(612.02 2735.96)">水压状态</text><rect class="cls-18" x="4040.28" y="2537.61" width="140.15" height="133.39"/><text class="cls-15" transform="translate(4050.35 2735.96)">水质纯度</text><rect class="cls-18" x="3806.66" y="2537.61" width="140.15" height="133.39"/><text class="cls-15" transform="translate(3816.73 2735.96)">水质硬度</text><rect class="cls-18" x="4273.9" y="2537.61" width="140.15" height="133.39"/><text class="cls-15" transform="translate(4283.97 2735.96)">水压状态</text></svg>